STARTFONT 2.1
FONT -FontForge-Metropolis-Regular-R-Normal--64-610-75-75-P-374-ISO10646-1
SIZE 61 75 75
FONTBOUNDINGBOX 83 80 -11 -18
COMMENT "Generated by fontforge, http://fontforge.sourceforge.net"
COMMENT "Copyright \(c\) 2016 by Chris Simpson."
STARTPROPERTIES 39
FOUNDRY "FontForge"
FAMILY_NAME "Metropolis"
WEIGHT_NAME "Regular"
SLANT "R"
SETWIDTH_NAME "Normal"
ADD_STYLE_NAME ""
PIXEL_SIZE 64
POINT_SIZE 610
RESOLUTION_X 75
RESOLUTION_Y 75
SPACING "P"
AVERAGE_WIDTH 374
CHARSET_REGISTRY "ISO10646"
CHARSET_ENCODING "1"
FONTNAME_REGISTRY ""
CHARSET_COLLECTIONS "ISO8859-2 ISO8859-9 ISO8859-4 ISO10646-1"
FONT_NAME "Metropolis-Regular"
FACE_NAME "Metropolis Regular"
COPYRIGHT "Copyright \(c\) 2016 by Chris Simpson."
FONT_VERSION "001.000"
FONT_ASCENT 51
FONT_DESCENT 13
UNDERLINE_POSITION -9
UNDERLINE_THICKNESS 2
X_HEIGHT 33
CAP_HEIGHT 44
RAW_ASCENT 795
RAW_DESCENT 205
NORM_SPACE 19
RELATIVE_WEIGHT 40
RELATIVE_SETWIDTH 50
SUPERSCRIPT_X 0
SUPERSCRIPT_Y 22
SUPERSCRIPT_SIZE 38
SUBSCRIPT_X 0
SUBSCRIPT_Y 4
SUBSCRIPT_SIZE 38
AVG_LOWERCASE_WIDTH 350
AVG_UPPERCASE_WIDTH 441
ENDPROPERTIES
CHARS 300
STARTCHAR space
ENCODING 32
SWIDTH 290 0
DWIDTH 19 0
BBX 1 1 0 0
BITMAP
00
ENDCHAR
STARTCHAR exclam
ENCODING 33
SWIDTH 273 0
DWIDTH 17 0
BBX 7 46 5 -1
BITMAP
7E
7E
7E
7E
7E
7E
7E
7E
7C
7C
7C
7C
7C
7C
7C
7C
3C
3C
3C
3C
3C
3C
3C
3C
3C
3C
3C
3C
3C
3C
3C
3C
3C
00
00
00
00
00
00
38
7E
FE
FE
FE
7E
3C
ENDCHAR
STARTCHAR quotedbl
ENCODING 34
SWIDTH 414 0
DWIDTH 27 0
BBX 17 16 5 27
BITMAP
700F00
F81F80
F81F80
F81F80
F81F80
F81F80
F81F80
F81F80
F80F00
F80F00
F80F00
F80F00
700F00
700F00
700F00
700600
ENDCHAR
STARTCHAR numbersign
ENCODING 35
SWIDTH 674 0
DWIDTH 43 0
BBX 37 46 3 -1
BITMAP
0001E00780
0001E00F80
0003E00F00
0003C00F00
0003C00F00
0003C01F00
0007C01E00
0007801E00
0007801E00
0007803E00
000F803C00
000F003C00
07FFFFFFF8
0FFFFFFFF8
0FFFFFFFF8
0FFFFFFFF8
001E007800
001E00F800
003E00F000
003C00F000
003C00F000
003C00F000
007C01F000
007801E000
007801E000
007801E000
007803E000
00F803C000
00F003C000
00F003C000
FFFFFFFF80
FFFFFFFF80
FFFFFFFF80
FFFFFFFF00
01E00F8000
03E00F0000
03C00F0000
03C00F0000
03C01F0000
07C01E0000
07801E0000
07801E0000
07803E0000
0F803C0000
0F003C0000
0F003C0000
ENDCHAR
STARTCHAR dollar
ENCODING 36
SWIDTH 613 0
DWIDTH 39 0
BBX 33 54 3 -5
BITMAP
0003E00000
0003E00000
0003E00000
0003E00000
001FFC0000
007FFF8000
01FFFFC000
03FFFFF000
07FFFFFC00
0FE3E7FE00
1FC3E1FE00
1F83E07E00
3F03E01C00
3E03E00800
3E03E00000
7E03E00000
7E03E00000
7E03E00000
3E03E00000
3F03E00000
3F03E00000
3FC3E00000
1FF3E00000
0FFFE00000
07FFE00000
03FFFC0000
00FFFF8000
003FFFE000
0007FFF800
0003FFFC00
0003EFFE00
0003E1FE00
0003E07F00
0003E03F00
0003E01F00
0003E01F80
0003E00F80
0003E00F80
0003E00F80
1003E01F80
3803E01F00
7C03E01F00
FE03E03F00
FF83E07E00
3FE3E1FE00
1FFFFFFC00
0FFFFFF800
03FFFFE000
00FFFF8000
001FFC0000
0003E00000
0003E00000
0003E00000
0003E00000
ENDCHAR
STARTCHAR percent
ENCODING 37
SWIDTH 796 0
DWIDTH 51 0
BBX 45 46 3 -1
BITMAP
01F800001E00
07FE00003E00
0FFF80003C00
1FFFC0007800
3E07C0007800
7C03E000F000
7801F001E000
F800F001E000
F000F003C000
F000F0078000
F000F0078000
F000F00F0000
F000F01F0000
F000F01E0000
F800F03C0000
7801F07C0000
7C01E0780000
3C03E0F00000
3F07C1F00000
1FFF81E00000
0FFF03C00000
03FE07C00000
000007800000
00000F000000
00001F03FE00
00001E07FF80
00003C0FFFC0
00007C1F07E0
0000783E03E0
0000F03C01F0
0001F07800F0
0001E07800F0
0003C0780078
0003C0F80078
000780F00078
000F00F00078
000F00780078
001E007800F8
003E007800F0
003C007C00F0
0078003C01F0
00F8003E03E0
00F0001FDFC0
01E0000FFF80
03E00007FF00
03C00001FC00
ENDCHAR
STARTCHAR ampersand
ENCODING 38
SWIDTH 670 0
DWIDTH 43 0
BBX 37 46 3 -1
BITMAP
0007F00000
001FFE0000
003FFF0000
007FFF8000
00FE1FC000
01F80FC000
01F007E000
03E003E000
03E003E000
03E001E000
03E001F000
03E001E000
03E003E000
03E003E000
01F007E000
01F00FC000
01F83F8000
00F87F0000
00FFFE0000
007FF80000
007FE00000
01FF800000
03FF800000
0FFFC00080
1FC7E001F0
3F83F001F0
3F01F803E0
7E01FC03E0
FC00FE07C0
F8007F07C0
F8003F8F80
F8001FCF80
F0000FFF00
F00007FF00
F00003FE00
F80001FC00
F80000FC00
F80001FE00
7C0003FF00
7E000FFF80
3F801FDFC0
3FE0FF8FE0
1FFFFF07F0
07FFFC03F8
03FFF801E0
007FC000C0
ENDCHAR
STARTCHAR quotesingle
ENCODING 39
SWIDTH 234 0
DWIDTH 15 0
BBX 5 16 5 27
BITMAP
70
F8
F8
F8
F8
F8
F8
F8
F8
F8
F8
F8
70
70
70
70
ENDCHAR
STARTCHAR parenleft
ENCODING 40
SWIDTH 357 0
DWIDTH 23 0
BBX 16 56 4 -11
BITMAP
0004
000C
001E
003E
007E
00FC
01F8
01F0
03E0
07E0
07C0
0F80
0F80
1F00
1F00
3E00
3E00
3E00
7C00
7C00
7C00
7C00
F800
F800
F800
F800
F800
F800
F800
F800
F800
F800
F800
F800
FC00
7C00
7C00
7C00
7E00
3E00
3E00
1F00
1F00
1F80
0F80
0FC0
07C0
03E0
03F0
01F0
00F8
007C
003E
001F
000E
0004
ENDCHAR
STARTCHAR parenright
ENCODING 41
SWIDTH 357 0
DWIDTH 23 0
BBX 16 56 3 -11
BITMAP
2000
7000
F800
FC00
7E00
3F00
1F80
0F80
07C0
07E0
03E0
03F0
01F0
00F8
00F8
00FC
007C
007C
007E
003E
003E
003E
003E
003F
001F
001F
001F
001F
001F
001F
001F
001F
003F
003E
003E
003E
003E
003E
007C
007C
007C
00F8
00F8
01F0
01F0
03E0
07E0
07C0
0F80
1F80
3F00
3E00
7C00
F800
7000
2000
ENDCHAR
STARTCHAR asterisk
ENCODING 42
SWIDTH 409 0
DWIDTH 26 0
BBX 18 20 4 24
BITMAP
00E000
01E000
00E000
00C000
E0C1C0
F0C3C0
F8C7C0
3EDF00
0FFC00
01E000
03E000
0FFC00
3ECF80
F8C7C0
F0C3C0
E0C1C0
00C000
01E000
01E000
00E000
ENDCHAR
STARTCHAR plus
ENCODING 43
SWIDTH 593 0
DWIDTH 38 0
BBX 30 29 4 7
BITMAP
00078000
00078000
00078000
00078000
00078000
00078000
00078000
00078000
00078000
00078000
00078000
00078000
FFFFFFFC
FFFFFFFC
FFFFFFFC
FFFFFFFC
FFFFFFFC
00078000
00078000
00078000
00078000
00078000
00078000
00078000
00078000
00078000
00078000
00078000
00078000
ENDCHAR
STARTCHAR comma
ENCODING 44
SWIDTH 264 0
DWIDTH 17 0
BBX 7 15 5 -9
BITMAP
38
7C
FE
FE
FE
7E
3E
1E
1E
3C
3C
78
F0
60
20
ENDCHAR
STARTCHAR hyphen
ENCODING 45
SWIDTH 371 0
DWIDTH 24 0
BBX 16 5 4 15
BITMAP
FFFF
FFFF
FFFF
FFFF
FFFF
ENDCHAR
STARTCHAR period
ENCODING 46
SWIDTH 253 0
DWIDTH 16 0
BBX 7 7 5 -1
BITMAP
78
FC
FC
FE
FC
FC
78
ENDCHAR
STARTCHAR slash
ENCODING 47
SWIDTH 415 0
DWIDTH 27 0
BBX 28 52 -1 -5
BITMAP
000003F0
000003E0
000007E0
000007C0
00000FC0
00000F80
00000F80
00001F80
00001F00
00003F00
00003E00
00007E00
00007C00
00007C00
0000FC00
0000F800
0001F800
0001F000
0003F000
0003E000
0007E000
0007E000
0007C000
000FC000
000F8000
001F8000
001F0000
003F0000
003F0000
003E0000
007E0000
007C0000
00FC0000
00F80000
01F80000
01F80000
01F00000
03F00000
03E00000
07E00000
07C00000
0FC00000
0F800000
0F800000
1F800000
1F000000
3F000000
3E000000
7E000000
7C000000
7C000000
FC000000
ENDCHAR
STARTCHAR zero
ENCODING 48
SWIDTH 689 0
DWIDTH 44 0
BBX 36 46 4 -1
BITMAP
0003FC0000
001FFF8000
007FFFE000
00FFFFF000
01FFFFF800
03FC03FC00
07F000FE00
0FE0007F00
1FC0003F80
1F80001F80
3F00000FC0
3E000007C0
7E000007E0
7E000003E0
7C000003E0
7C000003E0
FC000001F0
F8000001F0
F8000001F0
F8000001F0
F8000001F0
F8000001F0
F8000001F0
F8000001F0
F8000001F0
F8000001F0
F8000001F0
F8000001F0
F8000001F0
FC000003F0
7C000003E0
7C000003E0
7C000003E0
7E000007E0
3E000007C0
3F00000FC0
1F80001F80
1FC0003F80
0FE0007F00
07F000FE00
03FC03FC00
01FFFFF800
00FFFFF000
007FFFE000
001FFF8000
0003FC0000
ENDCHAR
STARTCHAR one
ENCODING 49
SWIDTH 353 0
DWIDTH 23 0
BBX 15 46 2 -1
BITMAP
003E
00FE
01FE
03FE
0FFE
1FFE
7FBE
FF3E
FC3E
783E
603E
003E
003E
003E
003E
003E
003E
003E
003E
003E
003E
003E
003E
003E
003E
003E
003E
003E
003E
003E
003E
003E
003E
003E
003E
003E
003E
003E
003E
003E
003E
003E
003E
003E
003E
003E
ENDCHAR
STARTCHAR two
ENCODING 50
SWIDTH 589 0
DWIDTH 38 0
BBX 30 46 3 -1
BITMAP
001FF000
007FFE00
01FFFF80
07FFFFC0
0FFEFFE0
1FE00FF0
3F8003F0
7F0001F8
7E0000F8
3C0000F8
1800007C
0000007C
0000007C
0000007C
0000007C
0000007C
000000FC
000000F8
000000F8
000001F8
000001F0
000003F0
000007E0
00000FE0
00001FC0
00003F80
00007F00
0000FE00
0001FC00
0003F800
0007F000
000FE000
001FC000
003F8000
00FF0000
01FE0000
03F80000
07F00000
0FE00000
1FC00000
3F800000
FFFFFFFC
FFFFFFFC
FFFFFFFC
FFFFFFFC
FFFFFFFC
ENDCHAR
STARTCHAR three
ENCODING 51
SWIDTH 586 0
DWIDTH 38 0
BBX 31 46 3 -1
BITMAP
001FF000
00FFFE00
03FFFF80
0FFFFFC0
1FFFFFE0
3FC00FF0
7F0003F0
7E0001F8
7C0000F8
380000FC
1000007C
0000007C
0000007C
0000007C
0000007C
000000F8
000000F8
000001F0
000003F0
00000FE0
003FFF80
003FFF00
003FFC00
003FFF00
003FFFC0
00001FF0
000003F0
000001F8
000000FC
0000007C
0000007C
0000003E
0000003E
0000003E
0000003E
0000007E
3000007C
F80000FC
FC0000FC
FF0003F8
7FC007F0
3FFFFFF0
0FFFFFE0
07FFFF80
00FFFE00
001FF000
ENDCHAR
STARTCHAR four
ENCODING 52
SWIDTH 623 0
DWIDTH 40 0
BBX 34 46 3 -1
BITMAP
000007E000
00000FE000
00000FE000
00001FE000
00003FE000
00007FE000
00007FE000
0000FBE000
0001F3E000
0001F3E000
0003E3E000
0007C3E000
000FC3E000
000F83E000
001F03E000
003E03E000
003E03E000
007C03E000
00F803E000
01F803E000
01F003E000
03E003E000
07E003E000
0FC003E000
0F8003E000
1F0003E000
3F0003E000
3E0003E000
7C0003E000
FC0003E000
FFFFFFFFC0
FFFFFFFFC0
FFFFFFFFC0
FFFFFFFFC0
FFFFFFFFC0
000003E000
000003E000
000003E000
000003E000
000003E000
000003E000
000003E000
000003E000
000003E000
000003E000
000003E000
ENDCHAR
STARTCHAR five
ENCODING 53
SWIDTH 599 0
DWIDTH 38 0
BBX 31 46 4 -1
BITMAP
3FFFFFF0
3FFFFFF0
3FFFFFF0
3FFFFFF0
3FFFFFF0
3E000000
3E000000
3E000000
3E000000
3E000000
3E000000
3E000000
3E000000
3E000000
3E000000
3E000000
3E000000
3E0FF000
3E7FFE00
3FFFFF80
3FFFFFC0
3FFC7FE0
3FC00FF0
3F0003F8
0C0001F8
000000FC
000000FC
0000007C
0000007C
0000007E
0000003E
0000003E
0000003E
0000007E
0000007C
2000007C
300000FC
780000F8
FE0001F8
FF0003F0
7FC00FF0
3FFCFFE0
0FFFFFC0
07FFFF00
01FFFC00
003FF000
ENDCHAR
STARTCHAR six
ENCODING 54
SWIDTH 623 0
DWIDTH 40 0
BBX 32 46 4 -1
BITMAP
0003FC00
001FFF80
007FFFE0
00FFFFF0
01FFFFF8
03FC03FC
07F000F8
07E00078
0FC00010
1F800000
1F000000
3F000000
3E000000
7E000000
7C000000
7C000000
7C000000
FC000000
F80FFC00
F83FFF80
F87FFFE0
F9FFFFF0
FBF80FF8
FBE003FC
FF8000FC
FF00007E
FE00007E
FC00003E
FC00003F
FC00001F
FC00001F
7C00001F
7C00001F
7C00001F
7E00001F
3E00003E
3F00003E
3F00007E
1F8000FC
0FC001FC
0FF003F8
07FC1FF0
03FFFFE0
00FFFFC0
007FFF00
000FF800
ENDCHAR
STARTCHAR seven
ENCODING 55
SWIDTH 600 0
DWIDTH 38 0
BBX 30 46 4 -1
BITMAP
FFFFFFFC
FFFFFFFC
FFFFFFFC
FFFFFFFC
FFFFFFF8
000001F8
000001F0
000003F0
000003E0
000007E0
000007E0
000007C0
00000FC0
00000F80
00001F80
00001F00
00003F00
00003E00
00007E00
00007C00
0000FC00
0000FC00
0000F800
0001F800
0001F000
0003F000
0003E000
0007E000
0007C000
000FC000
000FC000
001F8000
001F8000
001F0000
003F0000
003E0000
007E0000
007C0000
00FC0000
00FC0000
01F80000
01F80000
03F00000
03F00000
03E00000
07E00000
ENDCHAR
STARTCHAR eight
ENCODING 56
SWIDTH 606 0
DWIDTH 39 0
BBX 32 46 3 -1
BITMAP
000FF800
007FFF00
01FFFFC0
07FFFFE0
0FFFFFF0
1FF007F8
1FC001FC
3F8000FC
3F00007E
3E00003E
3E00003E
7E00003E
7E00003E
3E00003E
3E00003E
3E00007E
1F0000FC
1F8001F8
0FE003F8
03F81FE0
01FFFFC0
007FFF00
007FFF00
01FFFFC0
07FE3FF0
0FE007F8
1FC001FC
3F00007E
3E00003E
7C00003F
7C00001F
FC00001F
F800001F
F800001F
F800001F
FC00001F
7C00001F
7E00003F
7F00007E
3F8000FE
1FE003FC
0FFFFFF8
07FFFFF0
03FFFFE0
00FFFF80
000FF800
ENDCHAR
STARTCHAR nine
ENCODING 57
SWIDTH 623 0
DWIDTH 40 0
BBX 32 46 4 -1
BITMAP
001FF000
00FFFE00
03FFFF00
07FFFFC0
0FF83FE0
1FC00FE0
3F8003F0
3F0001F8
7E0001F8
7C0000FC
FC00007C
F800007E
F800003E
F800003E
F800003E
F800003E
F800003F
F800003F
FC00007F
7C00007F
7E0000FF
3F0001FF
3F8007DF
1FF01FDF
0FFFFF9F
07FFFE1F
01FFFC1F
007FF03F
0000003E
0000003E
0000003E
0000007E
0000007C
0000007C
000000FC
000001F8
000001F8
080003F0
1C0007E0
1F000FE0
3FC03FC0
1FFFFF80
0FFFFF00
07FFFC00
01FFF800
003FC000
ENDCHAR
STARTCHAR colon
ENCODING 58
SWIDTH 253 0
DWIDTH 16 0
BBX 7 34 5 -1
BITMAP
78
FC
FC
FE
FC
FC
78
00
00
00
00
00
00
00
00
00
00
00
00
00
00
00
00
00
00
00
00
78
FC
FC
FE
FC
FC
78
ENDCHAR
STARTCHAR semicolon
ENCODING 59
SWIDTH 264 0
DWIDTH 17 0
BBX 7 42 5 -9
BITMAP
38
7C
FE
FE
FE
7C
38
00
00
00
00
00
00
00
00
00
00
00
00
00
00
00
00
00
00
00
00
38
7C
FE
FE
FE
7E
3E
1E
1E
3C
3C
78
F0
60
20
ENDCHAR
STARTCHAR less
ENCODING 60
SWIDTH 586 0
DWIDTH 38 0
BBX 29 33 4 5
BITMAP
00000008
00000038
000000F8
000003F8
00000FF8
00003FE0
0000FF80
0003FC00
001FF000
007FC000
01FF0000
07FC0000
1FF00000
7FC00000
FF000000
FC000000
F8000000
FE000000
FF800000
3FE00000
0FF80000
03FE0000
00FF8000
003FE000
000FF800
0003FE00
0000FF80
00003FE0
00000FF8
000003F8
000000F8
00000038
00000008
ENDCHAR
STARTCHAR equal
ENCODING 61
SWIDTH 593 0
DWIDTH 38 0
BBX 30 19 4 12
BITMAP
FFFFFFFC
FFFFFFFC
FFFFFFFC
FFFFFFFC
FFFFFFFC
00000000
00000000
00000000
00000000
00000000
00000000
00000000
00000000
00000000
FFFFFFFC
FFFFFFFC
FFFFFFFC
FFFFFFFC
FFFFFFFC
ENDCHAR
STARTCHAR greater
ENCODING 62
SWIDTH 586 0
DWIDTH 38 0
BBX 29 32 5 6
BITMAP
80000000
E0000000
F8000000
FE000000
FF800000
3FE00000
0FF80000
03FE0000
00FF8000
003FE000
000FF800
0003FE00
0000FF80
00003FE0
00000FF8
000001F8
000000F8
000003F8
00000FF0
00003FC0
0000FF00
0003FC00
000FF000
007FC000
01FF0000
07FC0000
1FF00000
7FC00000
FF000000
FC000000
F0000000
C0000000
ENDCHAR
STARTCHAR question
ENCODING 63
SWIDTH 507 0
DWIDTH 32 0
BBX 28 46 2 -1
BITMAP
003FC000
01FFF800
07FFFE00
0FFFFF00
3FFFFF80
7F803FC0
FF000FC0
FC0007E0
780007E0
300003E0
000003F0
000003F0
000001F0
000003F0
000003E0
000003E0
000007E0
00000FC0
00003F80
0000FF80
0007FF00
003FFC00
003FF800
003FE000
003F0000
003E0000
003E0000
003E0000
003E0000
003E0000
003E0000
003E0000
003E0000
00000000
00000000
00000000
00000000
00000000
00000000
001C0000
007E0000
007F0000
007F0000
007F0000
007E0000
001C0000
ENDCHAR
STARTCHAR at
ENCODING 64
SWIDTH 881 0
DWIDTH 56 0
BBX 51 50 3 -7
BITMAP
00000FFF800000
00007FFFF00000
0001FC01FC0000
0007C0003F0000
001F0000078000
003C000003C000
0078000000E000
00E00000007000
01C00000003800
03800000001C00
07000000000E00
0E0003F8000600
0E000FFE1E0700
1C003FFF1E0380
18007FFF9E0380
3801FE03FE0180
3001F801FE01C0
7003E000FC01C0
7007C000FC00C0
600FC0007C00C0
E00F80007C00C0
E00F00007C00E0
E01F00007800E0
C01F00007800E0
C01F00007800E0
C01E0000F800C0
C01E0000F800C0
C01E0000F800C0
C01E0001F001C0
C01F0001F001C0
E01F0003F00180
E01F8007F00380
600FC00FF00700
6007E03EF80E00
7007FFFCFC1E00
3003FFF87FFC00
3800FFE03FF000
18003F800FC000
1C000000000000
0E000000000000
07000000000000
07800000000000
03C00000000000
01E00000000000
00F00000000000
003C00000E0000
001F00007C0000
0007F003F80000
0001FFFFC00000
00003FFE000000
ENDCHAR
STARTCHAR A
ENCODING 65
SWIDTH 755 0
DWIDTH 48 0
BBX 44 46 2 -1
BITMAP
00001F800000
00001FC00000
00003FC00000
00003FC00000
00003FE00000
00007FE00000
00007FF00000
0000FDF00000
0000F9F00000
0001F8F80000
0001F0F80000
0001F0FC0000
0003E07C0000
0003E07E0000
0007E03E0000
0007C03E0000
000FC01F0000
000F801F0000
000F801F8000
001F800F8000
001F000FC000
003F0007C000
003E0007C000
003E0007E000
007C0003E000
007C0003F000
00FC0001F000
00F80001F000
01F80000F800
01F00000F800
01FFFFFFFC00
03FFFFFFFC00
03FFFFFFFE00
07FFFFFFFE00
07FFFFFFFE00
0FC000001F00
0F8000001F00
0F8000001F80
1F0000000F80
1F0000000FC0
3F00000007C0
3E00000007C0
3E00000007E0
7C00000003E0
7C00000003F0
FC00000001F0
ENDCHAR
STARTCHAR B
ENCODING 66
SWIDTH 682 0
DWIDTH 44 0
BBX 34 46 6 -1
BITMAP
FFFFFF0000
FFFFFFE000
FFFFFFF000
FFFFFFF800
FFFFFFFC00
F80001FE00
F800007E00
F800003F00
F800003F00
F800001F00
F800001F00
F800001F00
F800001F00
F800001F00
F800001F00
F800003F00
F800003E00
F800007E00
F80001FC00
FFFFFFF800
FFFFFFE000
FFFFFFC000
FFFFFFF000
FFFFFFF800
F80001FC00
F800007E00
F800003F00
F800001F00
F800000F80
F800000F80
F8000007C0
F8000007C0
F8000007C0
F8000007C0
F8000007C0
F800000FC0
F800000FC0
F800000F80
F800001F80
F800003F80
F80000FF00
FFFFFFFE00
FFFFFFFC00
FFFFFFF800
FFFFFFF000
FFFFFF8000
ENDCHAR
STARTCHAR C
ENCODING 67
SWIDTH 680 0
DWIDTH 44 0
BBX 38 46 3 -1
BITMAP
00003FE000
0001FFFE00
0007FFFF80
001FFFFFE0
003FFFFFF0
00FFC00FF8
01FE0003FC
03FC0000FC
07F0000078
07E0000010
0FC0000000
1F80000000
1F80000000
3F00000000
3E00000000
3E00000000
7E00000000
7C00000000
7C00000000
7C00000000
FC00000000
F800000000
F800000000
F800000000
F800000000
FC00000000
7C00000000
7C00000000
7C00000000
7E00000000
3E00000000
3E00000000
3F00000000
1F80000000
1F80000000
0FC0000000
07E0000030
03F0000078
03FC0000FC
01FE0003FC
00FF800FF8
003FFFFFF0
001FFFFFE0
0007FFFF80
0001FFFE00
00003FF000
ENDCHAR
STARTCHAR D
ENCODING 68
SWIDTH 762 0
DWIDTH 49 0
BBX 39 46 6 -1
BITMAP
FFFFF00000
FFFFFF0000
FFFFFFC000
FFFFFFF000
FFFFFFFC00
F80007FE00
F80000FF00
F800007F80
F800001FC0
F800000FE0
F8000007E0
F8000003F0
F8000001F0
F8000001F8
F8000000F8
F8000000FC
F80000007C
F80000007C
F80000007C
F80000007C
F80000007E
F80000003E
F80000003E
F80000003E
F80000003E
F80000007E
F80000007C
F80000007C
F80000007C
F80000007C
F8000000FC
F8000000F8
F8000001F8
F8000001F0
F8000003F0
F8000007E0
F800000FE0
F800001FC0
F800003F80
F80000FF00
F80007FE00
FFFFFFFC00
FFFFFFF000
FFFFFFC000
FFFFFF0000
FFFFF00000
ENDCHAR
STARTCHAR E
ENCODING 69
SWIDTH 627 0
DWIDTH 40 0
BBX 32 46 5 -1
BITMAP
FFFFFFFF
FFFFFFFF
FFFFFFFF
FFFFFFFF
FFFFFFFF
F8000000
F8000000
F8000000
F8000000
F8000000
F8000000
F8000000
F8000000
F8000000
F8000000
F8000000
F8000000
F8000000
F8000000
F8000000
FFFFFFF8
FFFFFFF8
FFFFFFF8
FFFFFFF8
FFFFFFF8
F8000000
F8000000
F8000000
F8000000
F8000000
F8000000
F8000000
F8000000
F8000000
F8000000
F8000000
F8000000
F8000000
F8000000
F8000000
F8000000
FFFFFFFF
FFFFFFFF
FFFFFFFF
FFFFFFFF
FFFFFFFF
ENDCHAR
STARTCHAR F
ENCODING 70
SWIDTH 609 0
DWIDTH 39 0
BBX 32 46 5 -1
BITMAP
FFFFFFFF
FFFFFFFF
FFFFFFFF
FFFFFFFF
FFFFFFFF
F8000000
F8000000
F8000000
F8000000
F8000000
F8000000
F8000000
F8000000
F8000000
F8000000
F8000000
F8000000
F8000000
F8000000
F8000000
FFFFFFF8
FFFFFFF8
FFFFFFF8
FFFFFFF8
FFFFFFF8
F8000000
F8000000
F8000000
F8000000
F8000000
F8000000
F8000000
F8000000
F8000000
F8000000
F8000000
F8000000
F8000000
F8000000
F8000000
F8000000
F8000000
F8000000
F8000000
F8000000
F8000000
ENDCHAR
STARTCHAR G
ENCODING 71
SWIDTH 745 0
DWIDTH 48 0
BBX 40 46 3 -1
BITMAP
00003FF000
0001FFFE00
0007FFFFC0
001FFFFFF0
003FFFFFF8
00FFC00FFC
01FE0001FF
03FC00007E
07F000001C
07E0000008
0FC0000000
1F80000000
1F80000000
3F00000000
3E00000000
3E00000000
7E00000000
7C00000000
7C00000000
7C00000000
FC00000000
F800000000
F80003FFFF
F80003FFFF
F80003FFFF
FC0003FFFF
7C0003FFFF
7C0000001F
7C0000001F
7C0000001F
3E0000001F
3E0000001F
3F0000001F
1F8000001F
1F8000001F
0FC000001F
07E000001F
07F000001F
03F800007F
01FE0001FF
00FFC00FFE
003FFFFFF8
001FFFFFF0
0007FFFFC0
0001FFFE00
00003FF000
ENDCHAR
STARTCHAR H
ENCODING 72
SWIDTH 719 0
DWIDTH 46 0
BBX 36 46 5 -1
BITMAP
F8000001F0
F8000001F0
F8000001F0
F8000001F0
F8000001F0
F8000001F0
F8000001F0
F8000001F0
F8000001F0
F8000001F0
F8000001F0
F8000001F0
F8000001F0
F8000001F0
F8000001F0
F8000001F0
F8000001F0
F8000001F0
F8000001F0
F8000001F0
FFFFFFFFF0
FFFFFFFFF0
FFFFFFFFF0
FFFFFFFFF0
FFFFFFFFF0
F8000001F0
F8000001F0
F8000001F0
F8000001F0
F8000001F0
F8000001F0
F8000001F0
F8000001F0
F8000001F0
F8000001F0
F8000001F0
F8000001F0
F8000001F0
F8000001F0
F8000001F0
F8000001F0
F8000001F0
F8000001F0
F8000001F0
F8000001F0
F8000001F0
ENDCHAR
STARTCHAR I
ENCODING 73
SWIDTH 236 0
DWIDTH 15 0
BBX 5 46 5 -1
BITMAP
F8
F8
F8
F8
F8
F8
F8
F8
F8
F8
F8
F8
F8
F8
F8
F8
F8
F8
F8
F8
F8
F8
F8
F8
F8
F8
F8
F8
F8
F8
F8
F8
F8
F8
F8
F8
F8
F8
F8
F8
F8
F8
F8
F8
F8
F8
ENDCHAR
STARTCHAR J
ENCODING 74
SWIDTH 540 0
DWIDTH 35 0
BBX 27 46 2 -1
BITMAP
000003E0
000003E0
000003E0
000003E0
000003E0
000003E0
000003E0
000003E0
000003E0
000003E0
000003E0
000003E0
000003E0
000003E0
000003E0
000003E0
000003E0
000003E0
000003E0
000003E0
000003E0
000003E0
000003E0
000003E0
000003E0
000003E0
000003E0
000003E0
000003E0
000003E0
000003E0
000003E0
000003E0
000003E0
000007E0
100007C0
300007C0
78000FC0
FC001F80
FE003F80
7F807F00
3FFFFE00
1FFFFC00
07FFF800
03FFF000
007F8000
ENDCHAR
STARTCHAR K
ENCODING 75
SWIDTH 660 0
DWIDTH 42 0
BBX 35 46 6 -1
BITMAP
F800001F80
F800003F00
F800007F00
F80000FE00
F80001FC00
F80003F800
F80007F000
F80007E000
F8000FC000
F8001F8000
F8003F8000
F8007F0000
F800FE0000
F801FC0000
F803F80000
F803F00000
F807E00000
F80FC00000
F81F800000
F83F800000
F87F000000
F8FF000000
F9FF000000
F9FF800000
FBFFC00000
FFEFE00000
FFC7F00000
FF83F00000
FF01F80000
FE00FC0000
FC00FE0000
FC007F0000
F8003F0000
F8001F8000
F8000FC000
F8000FE000
F80007E000
F80003F000
F80001F800
F80001FC00
F80000FE00
F800007E00
F800003F00
F800001F80
F800001FC0
F800000FE0
ENDCHAR
STARTCHAR L
ENCODING 76
SWIDTH 555 0
DWIDTH 36 0
BBX 29 46 4 -1
BITMAP
F8000000
F8000000
F8000000
F8000000
F8000000
F8000000
F8000000
F8000000
F8000000
F8000000
F8000000
F8000000
F8000000
F8000000
F8000000
F8000000
F8000000
F8000000
F8000000
F8000000
F8000000
F8000000
F8000000
F8000000
F8000000
F8000000
F8000000
F8000000
F8000000
F8000000
F8000000
F8000000
F8000000
F8000000
F8000000
F8000000
F8000000
F8000000
F8000000
F8000000
F8000000
FFFFFFF8
FFFFFFF8
FFFFFFF8
FFFFFFF8
FFFFFFF8
ENDCHAR
STARTCHAR M
ENCODING 77
SWIDTH 854 0
DWIDTH 55 0
BBX 43 46 6 -1
BITMAP
F800000007E0
FC00000007E0
FC0000000FE0
FE0000000FE0
FE0000001FE0
FF0000001FE0
FF0000003FE0
FF8000003FE0
FF8000007FE0
FFC000007FE0
FFC00000FFE0
FFE00000FFE0
FBE00001FBE0
FBF00001FBE0
F9F00003F3E0
F9F80003E3E0
F8F80007E3E0
F8FC0007C3E0
F87C000FC3E0
F87E000F83E0
F83E001F83E0
F83F001F03E0
F81F003F03E0
F81F803E03E0
F80F807E03E0
F80FC07C03E0
F807C0FC03E0
F807E0F803E0
F803F1F803E0
F803F1F003E0
F801FBF003E0
F801FBE003E0
F800FFE003E0
F800FFC003E0
F8007FC003E0
F8007F8003E0
F8003F8003E0
F8003F0003E0
F8001F0003E0
F8001E0003E0
F8000E0003E0
F8000C0003E0
F800040003E0
F800000003E0
F800000003E0
F800000003E0
ENDCHAR
STARTCHAR N
ENCODING 78
SWIDTH 770 0
DWIDTH 49 0
BBX 37 46 6 -1
BITMAP
F8000000F8
FC000000F8
FE000000F8
FF000000F8
FF000000F8
FF800000F8
FFC00000F8
FFC00000F8
FFE00000F8
FBF00000F8
FBF80000F8
F9F80000F8
F8FC0000F8
F87E0000F8
F87F0000F8
F83F0000F8
F81F8000F8
F81FC000F8
F80FC000F8
F807E000F8
F803F000F8
F803F800F8
F801F800F8
F800FC00F8
F8007E00F8
F8007F00F8
F8003F00F8
F8001F80F8
F8001FC0F8
F8000FE0F8
F80007E0F8
F80003F0F8
F80003F8F8
F80001F8F8
F80000FCF8
F800007EF8
F800007FF8
F800003FF8
F800001FF8
F800000FF8
F800000FF8
F8000007F8
F8000003F8
F8000003F8
F8000001F8
F8000000F8
ENDCHAR
STARTCHAR O
ENCODING 79
SWIDTH 807 0
DWIDTH 52 0
BBX 45 46 3 -1
BITMAP
00003FE00000
0001FFFE0000
0007FFFF8000
001FFFFFE000
003FFFFFF000
00FFC00FF800
01FE0003FC00
03FC0000FE00
07F000007F00
07E000001F80
0FC000001FC0
1F8000000FC0
1F80000007E0
3F00000003E0
3E00000003F0
3E00000001F0
7E00000001F0
7C00000001F8
7C00000000F8
7C00000000F8
FC00000000F8
F800000000F8
F800000000F8
F800000000F8
F800000000F8
FC00000000F8
7C00000000F8
7C00000000F8
7C00000001F8
7E00000001F0
3E00000001F0
3E00000003F0
3F00000003E0
1F80000007E0
1F8000000FC0
0FC000001FC0
07E000003F80
03F000007F00
03FC0000FE00
01FE0003FC00
00FF800FF800
003FFFFFF000
001FFFFFE000
0007FFFF8000
0001FFFE0000
00003FE00000
ENDCHAR
STARTCHAR P
ENCODING 80
SWIDTH 644 0
DWIDTH 41 0
BBX 34 46 5 -1
BITMAP
FFFFFC0000
FFFFFF8000
FFFFFFE000
FFFFFFF800
FFFFFFFC00
F80003FE00
F800007F00
F800003F00
F800001F80
F800000F80
F800000FC0
F8000007C0
F8000007C0
F8000007C0
F8000007C0
F8000007C0
F8000007C0
F8000007C0
F800000FC0
F800000F80
F800001F80
F800003F00
F80000FF00
F80003FE00
FFFFFFFC00
FFFFFFF800
FFFFFFE000
FFFFFF8000
FFFFFC0000
F800000000
F800000000
F800000000
F800000000
F800000000
F800000000
F800000000
F800000000
F800000000
F800000000
F800000000
F800000000
F800000000
F800000000
F800000000
F800000000
F800000000
ENDCHAR
STARTCHAR Q
ENCODING 81
SWIDTH 807 0
DWIDTH 52 0
BBX 45 46 3 -1
BITMAP
00003FE00000
0001FFFE0000
0007FFFF8000
001FFFFFE000
003FFFFFF000
00FFC00FF800
01FE0003FC00
03FC0000FE00
07F000007F00
07E000003F80
0FC000001FC0
1F8000000FC0
1F80000007E0
3F00000003E0
3F00000003F0
3E00000001F0
7E00000001F0
7C00000001F8
7C00000000F8
7C00000000F8
FC00000000F8
F800000000F8
F800000000F8
F800000000F8
F800000000F8
F800000000F8
7C00000000F8
7C00000000F8
7C00000401F8
7C00000601F0
3E00000F01F0
3E00001F83F0
3F00001FE3E0
1F00000FF7E0
1F800007FFC0
0FC00003FFC0
07E00001FF80
03F000007F80
03F800007F80
01FC0001FFC0
00FF0003FFE0
003FE01FF3F8
001FFFFFE1F8
0007FFFF80F0
0001FFFE0060
00003FF00020
ENDCHAR
STARTCHAR R
ENCODING 82
SWIDTH 650 0
DWIDTH 42 0
BBX 34 46 5 -1
BITMAP
FFFFFC0000
FFFFFF8000
FFFFFFE000
FFFFFFF800
FFFFFFFC00
F80003FE00
F800007F00
F800003F00
F800001F80
F800000F80
F800000FC0
F8000007C0
F8000007C0
F8000007C0
F8000007C0
F8000007C0
F8000007C0
F8000007C0
F800000FC0
F800000F80
F800001F80
F800003F00
F80000FF00
F80003FE00
FFFFFFFC00
FFFFFFF800
FFFFFFE000
FFFFFFC000
FFFFFE0000
F8007E0000
F8003E0000
F8003F0000
F8001F8000
F8000F8000
F8000FC000
F80007E000
F80003E000
F80003F000
F80001F800
F80000F800
F80000FC00
F800007E00
F800003E00
F800003F00
F800001F80
F800001F80
ENDCHAR
STARTCHAR S
ENCODING 83
SWIDTH 613 0
DWIDTH 39 0
BBX 33 46 3 -1
BITMAP
0001800000
003FFE0000
00FFFF8000
03FFFFE000
07FFFFF800
0FF80FFC00
1FC001FE00
1F80007E00
3F00003C00
3E00001800
3E00000800
3E00000000
7E00000000
7E00000000
3E00000000
3E00000000
3F00000000
3F80000000
1FE0000000
1FFC000000
0FFFC00000
03FFFC0000
01FFFF8000
007FFFE000
000FFFF000
0000FFFC00
00000FFE00
000001FE00
0000007F00
0000003F00
0000001F00
0000001F80
0000000F80
0000000F80
0000000F80
0000001F80
3800001F00
7C00001F00
FE00003F00
FF80007E00
3FE001FE00
1FFFFFFC00
0FFFFFF800
03FFFFE000
007FFF8000
000FFC0000
ENDCHAR
STARTCHAR T
ENCODING 84
SWIDTH 630 0
DWIDTH 40 0
BBX 34 46 3 -1
BITMAP
FFFFFFFFC0
FFFFFFFFC0
FFFFFFFFC0
FFFFFFFFC0
FFFFFFFFC0
0001F00000
0001F00000
0001F00000
0001F00000
0001F00000
0001F00000
0001F00000
0001F00000
0001F00000
0001F00000
0001F00000
0001F00000
0001F00000
0001F00000
0001F00000
0001F00000
0001F00000
0001F00000
0001F00000
0001F00000
0001F00000
0001F00000
0001F00000
0001F00000
0001F00000
0001F00000
0001F00000
0001F00000
0001F00000
0001F00000
0001F00000
0001F00000
0001F00000
0001F00000
0001F00000
0001F00000
0001F00000
0001F00000
0001F00000
0001F00000
0001F00000
ENDCHAR
STARTCHAR U
ENCODING 85
SWIDTH 746 0
DWIDTH 48 0
BBX 37 46 5 -1
BITMAP
F8000000F8
F8000000F8
F8000000F8
F8000000F8
F8000000F8
F8000000F8
F8000000F8
F8000000F8
F8000000F8
F8000000F8
F8000000F8
F8000000F8
F8000000F8
F8000000F8
F8000000F8
F8000000F8
F8000000F8
F8000000F8
F8000000F8
F8000000F8
F8000000F8
F8000000F8
F8000000F8
F8000000F8
F8000000F8
F8000000F8
F8000000F8
78000000F8
7C000000F8
7C000000F8
7C000000F8
7C000000F8
7C000001F0
3E000001F0
3E000003F0
3F000003E0
1F800007E0
1F80000FC0
0FE0001FC0
07F0003F80
03FC00FF00
01FFFFFE00
00FFFFFC00
007FFFF000
001FFFE000
0003FE0000
ENDCHAR
STARTCHAR V
ENCODING 86
SWIDTH 755 0
DWIDTH 48 0
BBX 44 46 2 -1
BITMAP
FC00000001F0
7C00000003F0
7E00000003E0
3E00000007E0
3E00000007C0
3F00000007C0
1F0000000FC0
1F8000000F80
0F8000001F80
0F8000001F00
0FC000003F00
07C000003E00
07E000003E00
03E000007E00
03F000007C00
01F00000FC00
01F00000F800
01F80000F800
00F80001F000
00FC0001F000
007C0003F000
007E0003E000
003E0007E000
003E0007C000
003F0007C000
001F000FC000
001F800F8000
000F801F8000
000F801F0000
000FC01F0000
0007C03E0000
0007E03E0000
0003E07E0000
0003F07C0000
0001F0FC0000
0001F0F80000
0001F8F80000
0000F9F00000
0000FDF00000
00007FF00000
00007FE00000
00003FE00000
00003FC00000
00003FC00000
00001FC00000
00001F800000
ENDCHAR
STARTCHAR W
ENCODING 87
SWIDTH 1081 0
DWIDTH 69 0
BBX 64 46 3 -1
BITMAP
F8000007E000003F
F800000FE000003E
FC00000FE000007E
FC00000FE000007E
7C00001FF000007C
7E00001FF00000FC
7E00001FF00000FC
3E00003EF80000F8
3F00003EF80001F8
3F00003E780001F8
1F00003C7C0001F0
1F80007C7C0003F0
1F80007C7C0003F0
0F8000783E0003E0
0FC000F83E0007E0
0FC000F83E0007E0
07C000F81E0007C0
07E001F01F0007C0
07E001F01F000FC0
03E001F00F000F80
03F003E00F800F80
03F003E00F801F80
01F003E007801F00
01F803C007C01F00
01F807C007C03F00
00F807C007C03E00
00FC078003E03E00
00FC0F8003E07E00
007C0F8003E07C00
007E0F0001F07C00
007E1F0001F0FC00
003E1F0001F0FC00
003F1F0000F0F800
003F3E0000F9F800
001F3E0000F9F800
001F3E000079F000
001FFC00007FF000
000FFC00007FF000
000FFC00003FE000
000FF800003FE000
0007F800003FE000
0007F800003FC000
0007F000001FC000
0003F000001FC000
0003F000001F8000
0003E000000F8000
ENDCHAR
STARTCHAR X
ENCODING 88
SWIDTH 697 0
DWIDTH 45 0
BBX 39 46 3 -1
BITMAP
FC0000007E
7E000000FC
7E000001F8
3F000001F8
1F800003F0
1FC00007E0
0FC0000FC0
07E0000FC0
03F0001F80
03F8003F00
01F8007E00
00FC007E00
007E00FC00
007E01F800
003F03F800
001F83F000
001FC7E000
000FCFC000
0007EFC000
0003FF8000
0003FF0000
0001FE0000
0000FE0000
0000FE0000
0001FE0000
0003FF0000
0003FF8000
0007FFC000
000FCFC000
000FC7E000
001F83F000
003F03F800
007E01F800
007E00FC00
00FC007E00
01F8007F00
03F0003F00
03F0001F80
07E0000FC0
0FC0000FC0
1FC00007E0
1F800003F0
3F000003F8
7E000001F8
7E000000FC
FC0000007E
ENDCHAR
STARTCHAR Y
ENCODING 89
SWIDTH 671 0
DWIDTH 43 0
BBX 40 46 1 -1
BITMAP
FE0000003F
7E0000003F
3F0000007E
3F8000007E
1F800000FC
0FC00001F8
0FC00001F8
07E00003F0
03F00007E0
03F00007E0
01F8000FC0
00FC001F80
00FC001F80
007E003F00
003F007E00
003F007E00
001F80FC00
000F80F800
000FC1F800
0007E3F000
0007E3F000
0003F7E000
0001FFC000
0001FFC000
0000FF8000
00007F0000
00007F0000
00003E0000
00003E0000
00003E0000
00003E0000
00003E0000
00003E0000
00003E0000
00003E0000
00003E0000
00003E0000
00003E0000
00003E0000
00003E0000
00003E0000
00003E0000
00003E0000
00003E0000
00003E0000
00003E0000
ENDCHAR
STARTCHAR Z
ENCODING 90
SWIDTH 639 0
DWIDTH 41 0
BBX 33 46 4 -1
BITMAP
FFFFFFFF80
FFFFFFFF80
FFFFFFFF80
FFFFFFFF80
FFFFFFFF80
0000003F00
0000007E00
000000FE00
000000FC00
000001F800
000003F000
000007F000
000007E000
00000FC000
00001FC000
00001F8000
00003F0000
00007E0000
0000FE0000
0000FC0000
0001F80000
0003F80000
0003F00000
0007E00000
000FC00000
001FC00000
001F800000
003F000000
007F000000
007E000000
00FC000000
01F8000000
03F8000000
03F0000000
07E0000000
0FE0000000
0FC0000000
1F80000000
3F00000000
3F00000000
7E00000000
FFFFFFFF80
FFFFFFFF80
FFFFFFFF80
FFFFFFFF80
FFFFFFFF80
ENDCHAR
STARTCHAR bracketleft
ENCODING 91
SWIDTH 366 0
DWIDTH 23 0
BBX 15 55 5 -8
BITMAP
FFFE
FFFE
FFFE
FFFE
F000
F000
F000
F000
F000
F000
F000
F000
F000
F000
F000
F000
F000
F000
F000
F000
F000
F000
F000
F000
F000
F000
F000
F000
F000
F000
F000
F000
F000
F000
F000
F000
F000
F000
F000
F000
F000
F000
F000
F000
F000
F000
F000
F000
F000
F000
F000
FFFE
FFFE
FFFE
FFFE
ENDCHAR
STARTCHAR backslash
ENCODING 92
SWIDTH 415 0
DWIDTH 27 0
BBX 27 52 0 -5
BITMAP
F8000000
FC000000
7C000000
7E000000
3E000000
3F000000
1F000000
1F000000
1F800000
0F800000
0FC00000
07C00000
07E00000
03E00000
03E00000
03F00000
01F00000
01F80000
00F80000
00FC0000
007C0000
007C0000
007E0000
003E0000
003F0000
001F0000
001F8000
000F8000
000F8000
000FC000
0007C000
0007E000
0003E000
0003F000
0001F000
0001F800
0001F800
0000F800
0000FC00
00007C00
00007E00
00003E00
00003F00
00003F00
00001F00
00001F80
00000F80
00000FC0
000007C0
000007E0
000007E0
000003E0
ENDCHAR
STARTCHAR bracketright
ENCODING 93
SWIDTH 366 0
DWIDTH 23 0
BBX 15 55 3 -8
BITMAP
FFFE
FFFE
FFFE
FFFE
001E
001E
001E
001E
001E
001E
001E
001E
001E
001E
001E
001E
001E
001E
001E
001E
001E
001E
001E
001E
001E
001E
001E
001E
001E
001E
001E
001E
001E
001E
001E
001E
001E
001E
001E
001E
001E
001E
001E
001E
001E
001E
001E
001E
001E
001E
001E
FFFE
FFFE
FFFE
FFFE
ENDCHAR
STARTCHAR asciicircum
ENCODING 94
SWIDTH 490 0
DWIDTH 31 0
BBX 25 18 3 27
BITMAP
001E0000
003E0000
007F0000
007F8000
00F78000
00F3C000
01E3C000
03C1E000
03C0F000
0780F000
07807800
0F007800
1E003C00
1E003E00
3C001E00
3C000F00
78000F00
F8000780
ENDCHAR
STARTCHAR underscore
ENCODING 95
SWIDTH 592 0
DWIDTH 38 0
BBX 38 4 0 -9
BITMAP
FFFFFFFFFC
FFFFFFFFFC
FFFFFFFFFC
FFFFFFFFFC
ENDCHAR
STARTCHAR grave
ENCODING 96
SWIDTH 326 0
DWIDTH 21 0
BBX 12 9 4 37
BITMAP
1C00
FC00
3E00
1F00
0F80
07C0
03E0
01E0
00F0
ENDCHAR
STARTCHAR a
ENCODING 97
SWIDTH 573 0
DWIDTH 37 0
BBX 29 35 3 -1
BITMAP
001FE000
01FFFC00
07FFFF00
0FFFFF80
0FF03FC0
07800FE0
060007E0
000003F0
000001F0
000001F0
000000F0
000000F8
000000F8
007FE0F8
03FFFEF8
07FFFFF8
1FFFFFF8
1FE00FF8
3F0000F8
7E0000F8
7C0000F8
FC0000F8
F80000F8
F80000F8
F80000F8
F80001F8
F80001F8
7C0003F8
7C0007F8
7E000FF8
3F807EF8
1FFFFCF8
0FFFF8F8
03FFE0F8
00FF00F8
ENDCHAR
STARTCHAR b
ENCODING 98
SWIDTH 638 0
DWIDTH 41 0
BBX 32 46 5 -1
BITMAP
F8000000
F8000000
F8000000
F8000000
F8000000
F8000000
F8000000
F8000000
F8000000
F8000000
F8000000
F807F800
F81FFF00
F87FFF80
F8FFFFE0
F9FC3FF0
FBE007F0
FFC001F8
FF8000FC
FF00007C
FE00007E
FE00003E
FC00003F
FC00001F
FC00001F
F800001F
F800001F
F800001F
F800001F
F800001F
F800001F
F800001F
FC00001F
FC00001F
FC00003F
FE00003E
FE00007E
FF00007C
FF8000FC
FFC001F8
FBE007F8
F9FC3FF0
F8FFFFE0
F87FFF80
F81FFF00
F807F800
ENDCHAR
STARTCHAR c
ENCODING 99
SWIDTH 542 0
DWIDTH 35 0
BBX 29 35 3 -1
BITMAP
0007F800
003FFF00
00FFFFC0
01FFFFE0
03FE1FF8
07F003F0
0FE000E0
1F800040
1F000000
3F000000
3E000000
7C000000
7C000000
FC000000
F8000000
F8000000
F8000000
F8000000
F8000000
F8000000
F8000000
7C000000
7C000000
7C000000
3E000000
3F000000
1F000000
1F800060
0FE000F0
07F003F8
03FE1FF8
01FFFFE0
007FFFC0
003FFF00
0007F800
ENDCHAR
STARTCHAR d
ENCODING 100
SWIDTH 638 0
DWIDTH 41 0
BBX 33 46 3 -1
BITMAP
0000000F80
0000000F80
0000000F80
0000000F80
0000000F80
0000000F80
0000000F80
0000000F80
0000000F80
0000000F80
0000000F80
000FE00F80
007FFC0F80
01FFFF0F80
03FFFF8F80
07FE3FCF80
0FF003EF80
0FC001EF80
1F8000FF80
3F00007F80
3F00003F80
3E00003F80
7E00001F80
7C00001F80
7C00001F80
7C00001F80
7C00000F80
FC00000F80
FC00000F80
FC00000F80
7C00000F80
7C00001F80
7C00001F80
7C00001F80
7E00001F80
3E00003F80
3F00003F80
3F00007F80
1F8000FF80
0FC001EF80
0FF007EF80
07FC1FCF80
03FFFF8F80
00FFFF0F80
007FFC0F80
000FF00F80
ENDCHAR
STARTCHAR e
ENCODING 101
SWIDTH 595 0
DWIDTH 38 0
BBX 32 35 3 -1
BITMAP
000FF800
003FFE00
00FFFF80
03FFFFC0
07FC1FE0
0FE003F0
0FC001F8
1F8000F8
3F00007C
3E00003C
7C00003E
7C00001E
7C00001E
F800001F
F800001F
FFFFFFFF
FFFFFFFF
FFFFFFFF
FFFFFFFF
F8000000
F8000000
F8000000
7C000000
7C000000
7C000000
3E000000
3F000000
1F800030
0FC00078
07F001FC
03FC1FFC
01FFFFF0
00FFFFE0
003FFF00
0007F800
ENDCHAR
STARTCHAR f
ENCODING 102
SWIDTH 351 0
DWIDTH 22 0
BBX 19 48 2 -1
BITMAP
001F80
007FE0
00FFE0
01FFE0
03F9C0
03E000
03E000
03C000
03C000
03C000
03C000
03C000
03C000
FFFFC0
FFFFC0
FFFFC0
FFFFC0
03C000
03C000
03C000
03C000
03C000
03C000
03C000
03C000
03C000
03C000
03C000
03C000
03C000
03C000
03C000
03C000
03C000
03C000
03C000
03C000
03C000
03C000
03C000
03C000
03C000
03C000
03C000
03C000
03C000
03C000
03C000
ENDCHAR
STARTCHAR g
ENCODING 103
SWIDTH 636 0
DWIDTH 41 0
BBX 32 45 3 -11
BITMAP
001FE00F
007FFC0F
01FFFF0F
07FFFF8F
0FFC3FCF
0FE003EF
1FC001FF
3F0000FF
3F00007F
7E00003F
7C00001F
7C00001F
7C00001F
F800001F
F800000F
F800000F
F800000F
FC00001F
7C00001F
7C00001F
7C00001F
7E00003F
3E00007F
3F00007F
1F8000FF
1FE003EF
0FF80FCF
07FFFF8F
03FFFF0F
00FFFE0F
003FF80F
0000001F
0000001F
0000001F
0000001F
0000003E
0000003E
0C00007E
0E0000FC
1F8003F8
1FF83FF0
0FFFFFE0
03FFFFC0
00FFFF00
001FF800
ENDCHAR
STARTCHAR h
ENCODING 104
SWIDTH 592 0
DWIDTH 38 0
BBX 28 46 5 -1
BITMAP
F8000000
F8000000
F8000000
F8000000
F8000000
F8000000
F8000000
F8000000
F8000000
F8000000
F8000000
F80FE000
F87FFC00
F8FFFE00
F9FFFF00
FBF87F80
FFC01FC0
FF000FE0
FE0007E0
FC0003E0
FC0003F0
F80001F0
F80001F0
F80001F0
F80001F0
F80001F0
F80001F0
F80001F0
F80001F0
F80001F0
F80001F0
F80001F0
F80001F0
F80001F0
F80001F0
F80001F0
F80001F0
F80001F0
F80001F0
F80001F0
F80001F0
F80001F0
F80001F0
F80001F0
F80001F0
F80001F0
ENDCHAR
STARTCHAR i
ENCODING 105
SWIDTH 225 0
DWIDTH 14 0
BBX 6 47 4 -1
BITMAP
78
FC
FC
FC
7C
38
00
00
00
00
00
00
7C
7C
7C
7C
7C
7C
7C
7C
7C
7C
7C
7C
7C
7C
7C
7C
7C
7C
7C
7C
7C
7C
7C
7C
7C
7C
7C
7C
7C
7C
7C
7C
7C
7C
7C
ENDCHAR
STARTCHAR j
ENCODING 106
SWIDTH 225 0
DWIDTH 14 0
BBX 14 57 -4 -11
BITMAP
0078
00FC
00FC
00FC
007C
0038
0000
0000
0000
0000
0000
0000
007C
007C
007C
007C
007C
007C
007C
007C
007C
007C
007C
007C
007C
007C
007C
007C
007C
007C
007C
007C
007C
007C
007C
007C
007C
007C
007C
007C
007C
007C
007C
007C
007C
007C
007C
007C
007C
007C
00F8
00F8
41F8
7FF0
7FF0
FFE0
7F80
ENDCHAR
STARTCHAR k
ENCODING 107
SWIDTH 543 0
DWIDTH 35 0
BBX 28 46 5 -1
BITMAP
F8000000
F8000000
F8000000
F8000000
F8000000
F8000000
F8000000
F8000000
F8000000
F8000000
F8000000
F80003F0
F80007E0
F8000FE0
F8001FC0
F8003F80
F8003F00
F8007E00
F800FC00
F801F800
F803F000
F807E000
F80FC000
F81F8000
F83F0000
F87E0000
F8FC0000
F9FC0000
FBFE0000
FFFF0000
FFFF8000
FFDF8000
FF8FC000
FF07E000
FE07E000
FC03F000
F801F800
F800FC00
F800FC00
F8007E00
F8003F00
F8001F80
F8001F80
F8000FC0
F80007E0
F80003F0
ENDCHAR
STARTCHAR l
ENCODING 108
SWIDTH 227 0
DWIDTH 15 0
BBX 5 46 5 -1
BITMAP
F8
F8
F8
F8
F8
F8
F8
F8
F8
F8
F8
F8
F8
F8
F8
F8
F8
F8
F8
F8
F8
F8
F8
F8
F8
F8
F8
F8
F8
F8
F8
F8
F8
F8
F8
F8
F8
F8
F8
F8
F8
F8
F8
F8
F8
F8
ENDCHAR
STARTCHAR m
ENCODING 109
SWIDTH 895 0
DWIDTH 57 0
BBX 47 35 5 -1
BITMAP
F81FC000FE00
F8FFF003FF80
F9FFFC0FFFE0
FBFFFE1FFFF0
FFF1FE3F87F8
FF803F3C01F8
FE001FF800FC
FC001FF0007C
FC000FE0007E
F8000FE0003E
F80007C0003E
F80007C0003E
F80007C0001E
F80007C0001E
F80007C0001E
F80007C0001E
F80007C0001E
F80007C0001E
F80007C0001E
F80007C0001E
F80007C0001E
F80007C0001E
F80007C0001E
F80007C0001E
F80007C0001E
F80007C0001E
F80007C0001E
F80007C0001E
F80007C0001E
F80007C0001E
F80007C0001E
F80007C0001E
F80007C0001E
F80007C0001E
F80007C0001E
ENDCHAR
STARTCHAR n
ENCODING 110
SWIDTH 592 0
DWIDTH 38 0
BBX 28 35 5 -1
BITMAP
F80FE000
F87FFC00
F8FFFE00
F9FFFF00
FBF87F80
FFC01FC0
FF000FE0
FE0007E0
FC0003E0
FC0003F0
F80001F0
F80001F0
F80001F0
F80001F0
F80001F0
F80001F0
F80001F0
F80001F0
F80001F0
F80001F0
F80001F0
F80001F0
F80001F0
F80001F0
F80001F0
F80001F0
F80001F0
F80001F0
F80001F0
F80001F0
F80001F0
F80001F0
F80001F0
F80001F0
F80001F0
ENDCHAR
STARTCHAR o
ENCODING 111
SWIDTH 631 0
DWIDTH 40 0
BBX 34 35 3 -1
BITMAP
0007F80000
003FFF0000
00FFFFC000
01FFFFE000
03FE1FF800
07F003FC00
0FE000FC00
1F80007E00
1F00003F00
3F00001F00
3E00001F80
7C00000F80
7C00000FC0
FC000007C0
F8000007C0
F8000007C0
F8000007C0
F8000007C0
F8000007C0
F8000007C0
F8000007C0
7C000007C0
7C00000FC0
7C00000F80
3E00001F80
3F00001F00
1F00003F00
1F80007E00
0FE000FC00
07F003FC00
03FE1FF800
01FFFFE000
007FFFC000
003FFF0000
0007F80000
ENDCHAR
STARTCHAR p
ENCODING 112
SWIDTH 638 0
DWIDTH 41 0
BBX 32 46 5 -11
BITMAP
00007000
F807FE00
F81FFF80
F87FFFC0
F8FFFFE0
F9F00FF0
FBC003F8
FF8001FC
FF0000FC
FE00007E
FE00003E
FC00003E
FC00003F
FC00001F
F800001F
F800001F
F800001F
F800001F
F800001F
F800001F
F800001F
F800001F
FC00001F
FC00003F
FC00003E
FE00003E
FE00007E
FF0000FC
FF8000FC
FFC001F8
FBE007F0
F9FC3FF0
F8FFFFE0
F87FFF80
F81FFF00
F807F800
F8000000
F8000000
F8000000
F8000000
F8000000
F8000000
F8000000
F8000000
F8000000
F8000000
ENDCHAR
STARTCHAR q
ENCODING 113
SWIDTH 638 0
DWIDTH 41 0
BBX 33 45 3 -11
BITMAP
000FE00F80
007FFC0F80
01FFFF0F80
03FFFF8F80
07FE3FCF80
0FF003EF80
0FC001FF80
1F8000FF80
3F00007F80
3E00003F80
3E00003F80
7E00001F80
7C00001F80
7C00001F80
7C00001F80
7C00000F80
FC00000F80
FC00000F80
FC00000F80
7C00000F80
7C00001F80
7C00001F80
7C00001F80
7E00001F80
3E00003F80
3F00003F80
3F00007F80
1F8000FF80
0FC001EF80
0FF007EF80
07FC1FCF80
03FFFF8F80
00FFFF0F80
007FFC0F80
000FF00F80
0000000F80
0000000F80
0000000F80
0000000F80
0000000F80
0000000F80
0000000F80
0000000F80
0000000F80
0000000F80
ENDCHAR
STARTCHAR r
ENCODING 114
SWIDTH 386 0
DWIDTH 25 0
BBX 18 35 5 -1
BITMAP
F803C0
F81FC0
F87FC0
F8FFC0
F9FE00
FBF000
FFC000
FF8000
FF0000
FE0000
FC0000
FC0000
FC0000
F80000
F80000
F80000
F80000
F80000
F80000
F80000
F80000
F80000
F80000
F80000
F80000
F80000
F80000
F80000
F80000
F80000
F80000
F80000
F80000
F80000
F80000
ENDCHAR
STARTCHAR s
ENCODING 115
SWIDTH 496 0
DWIDTH 32 0
BBX 26 35 3 -1
BITMAP
007F8000
03FFF800
07FFFE00
0FFFFF80
1FE1FF00
3F001F00
3E000600
3E000000
3C000000
7C000000
7C000000
3E000000
3F000000
3FC00000
1FF80000
0FFF0000
07FFE000
01FFF800
003FFE00
0007FF00
0000FF00
00003F80
00000F80
00000FC0
000007C0
000007C0
000007C0
30000F80
7C000F80
FF003F80
FFE0FF00
3FFFFE00
1FFFFC00
03FFF000
007FC000
ENDCHAR
STARTCHAR t
ENCODING 116
SWIDTH 370 0
DWIDTH 24 0
BBX 20 44 2 -1
BITMAP
03C000
03C000
03C000
03C000
03C000
03C000
03C000
03C000
03C000
FFFFC0
FFFFC0
FFFFC0
FFFFC0
03C000
03C000
03C000
03C000
03C000
03C000
03C000
03C000
03C000
03C000
03C000
03C000
03C000
03C000
03C000
03C000
03C000
03C000
03C000
03C000
03C000
03C000
03C000
03C000
03E000
03E040
03F9C0
01FFE0
00FFF0
007FE0
001F80
ENDCHAR
STARTCHAR u
ENCODING 117
SWIDTH 592 0
DWIDTH 38 0
BBX 28 35 5 -1
BITMAP
F80001F0
F80001F0
F80001F0
F80001F0
F80001F0
F80001F0
F80001F0
F80001F0
F80001F0
F80001F0
F80001F0
F80001F0
F80001F0
F80001F0
F80001F0
F80001F0
F80001F0
F80001F0
F80001F0
F80001F0
F80001F0
F80001F0
F80001F0
F80001F0
F80001F0
F80003F0
7C0003F0
7C0007F0
7E000FF0
3F803FF0
1FE1FDF0
1FFFF9F0
07FFF1F0
03FFC1F0
007F01F0
ENDCHAR
STARTCHAR v
ENCODING 118
SWIDTH 563 0
DWIDTH 36 0
BBX 32 35 2 -1
BITMAP
F800001F
FC00003F
7C00003E
7C00003E
3E00007E
3E00007C
3F00007C
1F0000F8
1F0000F8
0F8001F8
0F8001F0
0F8001F0
07C003E0
07C003E0
03E003E0
03E007C0
03E007C0
01F00F80
01F00F80
00F00F80
00F81F00
00F81F00
007C1E00
007C3E00
003C3E00
003E3C00
003E7C00
001E7800
001FF800
000FF800
000FF000
000FF000
0007E000
0007E000
0003E000
ENDCHAR
STARTCHAR w
ENCODING 119
SWIDTH 833 0
DWIDTH 53 0
BBX 49 35 2 -1
BITMAP
FC0003E0000F80
7C0003E0000F80
7C0003F0001F00
7C0003F0001F00
3E0007F0001F00
3E0007F8003E00
3E0007F8003E00
1F000F78003E00
1F000F78003C00
1F000F3C007C00
0F001F3C007C00
0F801E3C007C00
0F801E1E00F800
0F803E1E00F800
07C03C1E00F800
07C03C1F00F000
07C07C0F01F000
03C0780F01F000
03E0780F81E000
03E0F80783E000
01E0F00783E000
01F0F007C3C000
01F0F003C3C000
00F1E003C7C000
00F1E003E78000
00F9E001E78000
007BE001EF8000
007BC001EF0000
007FC001FF0000
003FC000FF0000
003F8000FE0000
003F8000FE0000
003F80007E0000
001F00007E0000
001F00007C0000
ENDCHAR
STARTCHAR x
ENCODING 120
SWIDTH 551 0
DWIDTH 35 0
BBX 31 35 2 -1
BITMAP
7E00007C
3E0000FC
3F0001F8
1F8001F0
0F8003E0
0FC007E0
07E00FC0
03F00F80
01F01F80
01F83F00
00FC3E00
007C7E00
007EFC00
003FF800
001FF000
000FF000
000FE000
0007E000
000FE000
001FF000
003FF800
003EFC00
007E7C00
00FC7E00
00F83F00
01F01F00
03F00F80
07E00FC0
07C007E0
0FC003E0
1F8003F0
1F0001F8
3E0000F8
7E0000FC
FC00007E
ENDCHAR
STARTCHAR y
ENCODING 121
SWIDTH 593 0
DWIDTH 38 0
BBX 33 45 2 -11
BITMAP
F800000F80
7C00001F00
7C00001F00
7E00003F00
3E00003E00
3F00003E00
1F00007C00
1F00007C00
0F8000FC00
0F8000F800
0FC000F800
07C001F000
07C001F000
03E003F000
03E003E000
03F003E000
01F007C000
01F007C000
00F8078000
00F80F8000
007C0F8000
007C1F0000
007E1F0000
003E1E0000
003E3E0000
001F3E0000
001F7C0000
000FFC0000
000FF80000
000FF80000
0007F80000
0007F00000
0003F00000
0003E00000
0003E00000
0003E00000
0007C00000
0007C00000
000F800000
001F800000
083F000000
1FFF000000
1FFE000000
1FFC000000
1FF0000000
ENDCHAR
STARTCHAR z
ENCODING 122
SWIDTH 514 0
DWIDTH 33 0
BBX 27 35 3 -1
BITMAP
7FFFFFC0
7FFFFFC0
7FFFFFC0
7FFFFFC0
7FFFFFC0
00001F80
00001F00
00003F00
00007E00
0000FC00
0000FC00
0001F800
0003F000
0007E000
0007E000
000FC000
001F8000
003F0000
003F0000
007E0000
00FC0000
00F80000
01F80000
03F00000
07E00000
07E00000
0FC00000
1F800000
3F000000
3F000000
7FFFFFE0
FFFFFFE0
FFFFFFE0
FFFFFFE0
FFFFFFE0
ENDCHAR
STARTCHAR braceleft
ENCODING 123
SWIDTH 394 0
DWIDTH 25 0
BBX 19 55 3 -10
BITMAP
0001E0
000FE0
003FE0
007FE0
00FC00
01F000
01E000
03E000
03C000
03C000
03C000
03C000
03C000
03C000
03C000
03C000
03C000
03C000
03C000
03C000
03C000
03C000
03C000
07C000
078000
1F8000
FF0000
FC0000
FE0000
FF0000
0F8000
07C000
03C000
03C000
03C000
03C000
03C000
03C000
03C000
03C000
03C000
03C000
03C000
03C000
03C000
03C000
03C000
03E000
01E000
01F000
01F800
00FF80
007FE0
001FE0
0003E0
ENDCHAR
STARTCHAR bar
ENCODING 124
SWIDTH 278 0
DWIDTH 18 0
BBX 4 52 7 -5
BITMAP
F0
F0
F0
F0
F0
F0
F0
F0
F0
F0
F0
F0
F0
F0
F0
F0
F0
F0
F0
F0
F0
F0
F0
F0
F0
F0
F0
F0
F0
F0
F0
F0
F0
F0
F0
F0
F0
F0
F0
F0
F0
F0
F0
F0
F0
F0
F0
F0
F0
F0
F0
F0
ENDCHAR
STARTCHAR braceright
ENCODING 125
SWIDTH 394 0
DWIDTH 25 0
BBX 19 55 3 -10
BITMAP
F00000
FE0000
FF8000
FFE000
07E000
01F000
00F800
007800
007800
007800
007800
007800
007800
007800
007800
007800
007800
007800
007800
007800
007800
007800
007C00
007C00
003E00
003F00
001FE0
0007E0
000FE0
001FE0
003E00
007C00
007C00
007800
007800
007800
007800
007800
007800
007800
007800
007800
007800
007800
007800
007800
007800
007800
00F800
01F000
03F000
1FE000
FFC000
FF0000
F80000
ENDCHAR
STARTCHAR asciitilde
ENCODING 126
SWIDTH 445 0
DWIDTH 28 0
BBX 20 8 4 19
BITMAP
0F0070
3FC070
3FE070
7FF0F0
70FFE0
F07FE0
E01FC0
E00F80
ENDCHAR
STARTCHAR exclamdown
ENCODING 161
SWIDTH 273 0
DWIDTH 17 0
BBX 7 45 5 -11
BITMAP
38
7C
FE
FE
FE
7C
38
00
00
00
00
00
00
38
38
38
38
38
3C
3C
3C
3C
3C
7C
7C
7C
7C
7C
7C
7C
7C
7C
7C
7C
7C
7C
7C
7C
7C
7C
7C
7C
7C
7C
7E
ENDCHAR
STARTCHAR cent
ENCODING 162
SWIDTH 542 0
DWIDTH 35 0
BBX 29 43 3 -5
BITMAP
0003E000
0003E000
0003E000
0003E000
000FF800
003FFF00
00FFFFC0
01FFFFE0
03FFE7F8
07F3E1F0
0FE3E0E0
1F83E040
3F83E000
3F03E000
7E03E000
7E03E000
7C03E000
FC03E000
F803E000
F803E000
F803E000
F803E000
F803E000
F803E000
F803E000
FC03E000
7C03E000
7C03E000
7E03E000
3F03E000
1F03E000
1F83E060
0FC3E0F0
07F3E3F8
03FFFFF8
01FFFFE0
00FFFFC0
003FFF00
000FFC00
0003E000
0003E000
0003E000
0003E000
ENDCHAR
STARTCHAR sterling
ENCODING 163
SWIDTH 619 0
DWIDTH 40 0
BBX 33 46 4 -1
BITMAP
0003FC0000
001FFF8000
003FFFE000
00FFFFF000
01FFFFF800
01FC03FC00
03F000FE00
07E0007E00
07E0003C00
07C0001800
0FC0001000
0F80000000
0F80000000
0F80000000
0F80000000
0F80000000
0F80000000
0F80000000
0F80000000
0F80000000
0F80000000
0F80000000
0F80000000
0F80000000
0F80000000
FFFFFC0000
FFFFFC0000
FFFFFC0000
FFFFFC0000
0F80000000
0F80000000
0F80000000
0F80000000
0F80000000
0F80000000
0F80000000
0F80000000
0F80000000
0F80000000
0F80000000
0F80000000
1FFFFFFF80
7FFFFFFF80
FFFFFFFF80
FFFFFFFF80
FFFFFFFF80
ENDCHAR
STARTCHAR yen
ENCODING 165
SWIDTH 671 0
DWIDTH 43 0
BBX 40 46 1 -1
BITMAP
FE0000003F
7E0000003F
3F0000007E
3F8000007E
1F800000FC
0FC00001F8
0FC00001F8
07E00003F0
07F00007E0
03F00007E0
01F8000FC0
01F8000FC0
00FC001F80
007E003F00
007E003F00
003F007E00
001F807C00
001F80FC00
000FC1F800
000FC1F800
0007E3F000
0003F7E000
0003F7E000
0001FFC000
0000FF8000
07FFFFFFF0
07FFFFFFF0
07FFFFFFF0
07FFFFFFF0
00003E0000
00003E0000
00003E0000
00003E0000
00003E0000
07FFFFFFF0
07FFFFFFF0
07FFFFFFF0
07FFFFFFF0
00003E0000
00003E0000
00003E0000
00003E0000
00003E0000
00003E0000
00003E0000
00003E0000
ENDCHAR
STARTCHAR dieresis
ENCODING 168
SWIDTH 410 0
DWIDTH 26 0
BBX 18 6 4 39
BITMAP
780380
FC07C0
FC0FC0
FC0FC0
F807C0
300380
ENDCHAR
STARTCHAR macron
ENCODING 175
SWIDTH 436 0
DWIDTH 28 0
BBX 20 4 4 38
BITMAP
FFFFF0
FFFFF0
FFFFF0
FFFFF0
ENDCHAR
STARTCHAR acute
ENCODING 180
SWIDTH 326 0
DWIDTH 21 0
BBX 11 9 5 37
BITMAP
0380
07E0
07C0
0F80
1F00
3E00
7C00
F800
F000
ENDCHAR
STARTCHAR cedilla
ENCODING 184
SWIDTH 312 0
DWIDTH 20 0
BBX 12 13 4 -12
BITMAP
0700
0700
0E00
0E00
1FC0
1FE0
00F0
0070
00F0
61F0
FFE0
FFC0
3F80
ENDCHAR
STARTCHAR questiondown
ENCODING 191
SWIDTH 507 0
DWIDTH 32 0
BBX 27 46 3 -12
BITMAP
00078000
000FC000
000FC000
000FE000
000FC000
000FC000
00078000
00000000
00000000
00000000
00000000
00000000
00000000
0007C000
0007C000
0007C000
0007C000
0007C000
0007C000
0007C000
0007C000
000FC000
007FC000
01FFC000
07FFC000
0FFE0000
1FE00000
3F800000
7F000000
7E000000
FC000000
F8000000
F8000000
F8000000
F8000000
F8000080
FC0001C0
FC0003E0
7E0007E0
7F001FE0
3FC07FC0
1FFFFF80
0FFFFE00
07FFFC00
01FFE000
000E0000
ENDCHAR
STARTCHAR Agrave
ENCODING 192
SWIDTH 755 0
DWIDTH 48 0
BBX 44 59 2 -1
BITMAP
000380000000
000FC0000000
0007C0000000
0003E0000000
0001F0000000
0000F8000000
00007C000000
00003E000000
00000F000000
000000000000
000000000000
000000000000
000000000000
00001F800000
00001FC00000
00003FC00000
00003FC00000
00003FE00000
00007FE00000
00007FF00000
0000FDF00000
0000F9F00000
0001F8F80000
0001F0F80000
0001F0FC0000
0003E07C0000
0003E07E0000
0007E03E0000
0007C03E0000
000FC01F0000
000F801F0000
000F801F8000
001F800F8000
001F000FC000
003F0007C000
003E0007C000
003E0007E000
007C0003E000
007C0003F000
00FC0001F000
00F80001F000
01F80000F800
01F00000F800
01FFFFFFFC00
03FFFFFFFC00
03FFFFFFFE00
07FFFFFFFE00
07FFFFFFFE00
0FC000001F00
0F8000001F00
0F8000001F80
1F0000000F80
1F0000000FC0
3F00000007C0
3E00000007C0
3E00000007E0
7C00000003E0
7C00000003F0
FC00000001F0
ENDCHAR
STARTCHAR Aacute
ENCODING 193
SWIDTH 755 0
DWIDTH 48 0
BBX 44 59 2 -1
BITMAP
0000000C0000
0000001F8000
0000003F0000
0000007C0000
000000F80000
000001F00000
000003E00000
000003C00000
000007800000
000000000000
000000000000
000000000000
000000000000
00001F800000
00001FC00000
00003FC00000
00003FC00000
00003FE00000
00007FE00000
00007FF00000
0000FDF00000
0000F9F00000
0001F8F80000
0001F0F80000
0001F0FC0000
0003E07C0000
0003E07E0000
0007E03E0000
0007C03E0000
000FC01F0000
000F801F0000
000F801F8000
001F800F8000
001F000FC000
003F0007C000
003E0007C000
003E0007E000
007C0003E000
007C0003F000
00FC0001F000
00F80001F000
01F80000F800
01F00000F800
01FFFFFFFC00
03FFFFFFFC00
03FFFFFFFE00
07FFFFFFFE00
07FFFFFFFE00
0FC000001F00
0F8000001F00
0F8000001F80
1F0000000F80
1F0000000FC0
3F00000007C0
3E00000007C0
3E00000007E0
7C00000003E0
7C00000003F0
FC00000001F0
ENDCHAR
STARTCHAR Acircumflex
ENCODING 194
SWIDTH 755 0
DWIDTH 48 0
BBX 44 59 2 -1
BITMAP
00000F800000
00001F800000
00003FC00000
00007FE00000
000079F00000
0000F0F00000
0001E0780000
0001E03C0000
0003C01E0000
000000000000
000000000000
000000000000
000000000000
00001F800000
00001FC00000
00003FC00000
00003FC00000
00003FE00000
00007FE00000
00007FF00000
0000FDF00000
0000F9F00000
0001F8F80000
0001F0F80000
0001F0FC0000
0003E07C0000
0003E07E0000
0007E03E0000
0007C03E0000
000FC01F0000
000F801F0000
000F801F8000
001F800F8000
001F000FC000
003F0007C000
003E0007C000
003E0007E000
007C0003E000
007C0003F000
00FC0001F000
00F80001F000
01F80000F800
01F00000F800
01FFFFFFFC00
03FFFFFFFC00
03FFFFFFFE00
07FFFFFFFE00
07FFFFFFFE00
0FC000001F00
0F8000001F00
0F8000001F80
1F0000000F80
1F0000000FC0
3F00000007C0
3E00000007C0
3E00000007E0
7C00000003E0
7C00000003F0
FC00000001F0
ENDCHAR
STARTCHAR Atilde
ENCODING 195
SWIDTH 755 0
DWIDTH 48 0
BBX 44 57 2 -1
BITMAP
0001F8070000
0003FC070000
0007FE0F0000
00079F8F0000
000F07FE0000
000E03FE0000
000E01FC0000
000E00700000
000000000000
000000000000
000000000000
00001F800000
00001FC00000
00003FC00000
00003FC00000
00003FE00000
00007FE00000
00007FF00000
0000FDF00000
0000F9F00000
0001F8F80000
0001F0F80000
0001F0FC0000
0003E07C0000
0003E07E0000
0007E03E0000
0007C03E0000
000FC01F0000
000F801F0000
000F801F8000
001F800F8000
001F000FC000
003F0007C000
003E0007C000
003E0007E000
007C0003E000
007C0003F000
00FC0001F000
00F80001F000
01F80000F800
01F00000F800
01FFFFFFFC00
03FFFFFFFC00
03FFFFFFFE00
07FFFFFFFE00
07FFFFFFFE00
0FC000001F00
0F8000001F00
0F8000001F80
1F0000000F80
1F0000000FC0
3F00000007C0
3E00000007C0
3E00000007E0
7C00000003E0
7C00000003F0
FC00000001F0
ENDCHAR
STARTCHAR Adieresis
ENCODING 196
SWIDTH 755 0
DWIDTH 48 0
BBX 44 57 2 -1
BITMAP
0003C01C0000
0007C03E0000
0007E07E0000
0007E07E0000
0007C03E0000
0001801C0000
000000000000
000000000000
000000000000
000000000000
000000000000
00001F800000
00001FC00000
00003FC00000
00003FC00000
00003FE00000
00007FE00000
00007FF00000
0000FDF00000
0000F9F00000
0001F8F80000
0001F0F80000
0001F0FC0000
0003E07C0000
0003E07E0000
0007E03E0000
0007C03E0000
000FC01F0000
000F801F0000
000F801F8000
001F800F8000
001F000FC000
003F0007C000
003E0007C000
003E0007E000
007C0003E000
007C0003F000
00FC0001F000
00F80001F000
01F80000F800
01F00000F800
01FFFFFFFC00
03FFFFFFFC00
03FFFFFFFE00
07FFFFFFFE00
07FFFFFFFE00
0FC000001F00
0F8000001F00
0F8000001F80
1F0000000F80
1F0000000FC0
3F00000007C0
3E00000007C0
3E00000007E0
7C00000003E0
7C00000003F0
FC00000001F0
ENDCHAR
STARTCHAR Aring
ENCODING 197
SWIDTH 755 0
DWIDTH 48 0
BBX 44 63 2 -1
BITMAP
00000F800000
00003FC00000
00007FE00000
0000F0F00000
0000E0700000
0000C0380000
0000C0380000
0000E0380000
0000E0700000
0000F0F00000
00007FE00000
00003FC00000
00000F000000
000000000000
000000000000
000000000000
000000000000
00001F800000
00001FC00000
00003FC00000
00003FC00000
00003FE00000
00007FE00000
00007FF00000
0000FDF00000
0000F9F00000
0001F8F80000
0001F0F80000
0001F0FC0000
0003E07C0000
0003E07E0000
0007E03E0000
0007C03E0000
000FC01F0000
000F801F0000
000F801F8000
001F800F8000
001F000FC000
003F0007C000
003E0007C000
003E0007E000
007C0003E000
007C0003F000
00FC0001F000
00F80001F000
01F80000F800
01F00000F800
01FFFFFFFC00
03FFFFFFFC00
03FFFFFFFE00
07FFFFFFFE00
07FFFFFFFE00
0FC000001F00
0F8000001F00
0F8000001F80
1F0000000F80
1F0000000FC0
3F00000007C0
3E00000007C0
3E00000007E0
7C00000003E0
7C00000003F0
FC00000001F0
ENDCHAR
STARTCHAR AE
ENCODING 198
SWIDTH 1024 0
DWIDTH 66 0
BBX 60 46 2 -1
BITMAP
0000007FFFFFFFF0
0000007FFFFFFFF0
000000FFFFFFFFF0
000001FFFFFFFFF0
000001FFFFFFFFF0
000003FFC0000000
000003FFC0000000
000007EFC0000000
000007CFC0000000
00000FCFC0000000
00000F8FC0000000
00001F8FC0000000
00003F0FC0000000
00003F0FC0000000
00007E0FC0000000
00007E0FC0000000
0000FC0FC0000000
0000FC0FC0000000
0001F80FC0000000
0001F80FC0000000
0003F00FFFFFFF80
0003E00FFFFFFF80
0007E00FFFFFFF80
000FC00FFFFFFF80
000FC00FFFFFFF80
001F800FC0000000
001F800FC0000000
003F000FC0000000
003F000FC0000000
007E000FC0000000
007E000FC0000000
00FFFFFFC0000000
01FFFFFFC0000000
01FFFFFFC0000000
03FFFFFFC0000000
03FFFFFFC0000000
07E0000FC0000000
07E0000FC0000000
0FC0000FC0000000
0F80000FC0000000
1F80000FC0000000
1F00000FFFFFFFF0
3F00000FFFFFFFF0
7E00000FFFFFFFF0
7E00000FFFFFFFF0
FC00000FFFFFFFF0
ENDCHAR
STARTCHAR Ccedilla
ENCODING 199
SWIDTH 680 0
DWIDTH 44 0
BBX 39 58 3 -13
BITMAP
00003FE000
0001FFFE00
0007FFFF80
001FFFFFE0
003FFFFFF0
00FFC00FF8
01FE0003FC
03FC0000FC
07F0000078
07E0000010
0FC0000000
1F80000000
1F80000000
3F00000000
3E00000000
3E00000000
7E00000000
7C00000000
7C00000000
7C00000000
FC00000000
F800000000
F800000000
F800000000
F800000000
FC00000000
7C00000000
7C00000000
7C00000000
7C00000000
3E00000000
3E00000000
3F00000000
1F80000000
1F80000000
0FC0000000
07E0000010
07F0000078
03F80000FC
01FE0001FE
00FF800FF8
003FFCFFF0
001FFFFFE0
0007FFFF80
0001FFFE00
00003FF000
00000F0000
00000E0000
00000F8000
00001FE000
000008F000
0000007000
0000007000
0000407000
000060F000
00007FE000
00007FC000
00001F8000
ENDCHAR
STARTCHAR Egrave
ENCODING 200
SWIDTH 627 0
DWIDTH 40 0
BBX 32 59 5 -1
BITMAP
00380000
00FC0000
007E0000
003F0000
001F0000
000F8000
0003C000
0001E000
0000F000
00000000
00000000
00000000
00000000
FFFFFFFF
FFFFFFFF
FFFFFFFF
FFFFFFFF
FFFFFFFF
F8000000
F8000000
F8000000
F8000000
F8000000
F8000000
F8000000
F8000000
F8000000
F8000000
F8000000
F8000000
F8000000
F8000000
F8000000
FFFFFFF8
FFFFFFF8
FFFFFFF8
FFFFFFF8
FFFFFFF8
F8000000
F8000000
F8000000
F8000000
F8000000
F8000000
F8000000
F8000000
F8000000
F8000000
F8000000
F8000000
F8000000
F8000000
F8000000
F8000000
FFFFFFFF
FFFFFFFF
FFFFFFFF
FFFFFFFF
FFFFFFFF
ENDCHAR
STARTCHAR Eacute
ENCODING 201
SWIDTH 627 0
DWIDTH 40 0
BBX 32 59 5 -1
BITMAP
00003800
00007E00
0000FC00
0000F800
0001F000
0003E000
0007C000
000F0000
001E0000
00000000
00000000
00000000
00000000
FFFFFFFF
FFFFFFFF
FFFFFFFF
FFFFFFFF
FFFFFFFF
F8000000
F8000000
F8000000
F8000000
F8000000
F8000000
F8000000
F8000000
F8000000
F8000000
F8000000
F8000000
F8000000
F8000000
F8000000
FFFFFFF8
FFFFFFF8
FFFFFFF8
FFFFFFF8
FFFFFFF8
F8000000
F8000000
F8000000
F8000000
F8000000
F8000000
F8000000
F8000000
F8000000
F8000000
F8000000
F8000000
F8000000
F8000000
F8000000
F8000000
FFFFFFFF
FFFFFFFF
FFFFFFFF
FFFFFFFF
FFFFFFFF
ENDCHAR
STARTCHAR Ecircumflex
ENCODING 202
SWIDTH 627 0
DWIDTH 40 0
BBX 32 59 5 -1
BITMAP
0007C000
0007E000
000FF000
001FF800
003E7800
003C3C00
00781E00
00F00F00
00E00F00
00000000
00000000
00000000
00000000
FFFFFFFF
FFFFFFFF
FFFFFFFF
FFFFFFFF
FFFFFFFF
F8000000
F8000000
F8000000
F8000000
F8000000
F8000000
F8000000
F8000000
F8000000
F8000000
F8000000
F8000000
F8000000
F8000000
F8000000
FFFFFFF8
FFFFFFF8
FFFFFFF8
FFFFFFF8
FFFFFFF8
F8000000
F8000000
F8000000
F8000000
F8000000
F8000000
F8000000
F8000000
F8000000
F8000000
F8000000
F8000000
F8000000
F8000000
F8000000
F8000000
FFFFFFFF
FFFFFFFF
FFFFFFFF
FFFFFFFF
FFFFFFFF
ENDCHAR
STARTCHAR Edieresis
ENCODING 203
SWIDTH 627 0
DWIDTH 40 0
BBX 32 57 5 -1
BITMAP
00E00F00
01F01F00
01F81F80
01F81F80
01F01F00
00E00600
00000000
00000000
00000000
00000000
00000000
FFFFFFFF
FFFFFFFF
FFFFFFFF
FFFFFFFF
FFFFFFFF
F8000000
F8000000
F8000000
F8000000
F8000000
F8000000
F8000000
F8000000
F8000000
F8000000
F8000000
F8000000
F8000000
F8000000
F8000000
FFFFFFF8
FFFFFFF8
FFFFFFF8
FFFFFFF8
FFFFFFF8
F8000000
F8000000
F8000000
F8000000
F8000000
F8000000
F8000000
F8000000
F8000000
F8000000
F8000000
F8000000
F8000000
F8000000
F8000000
F8000000
FFFFFFFF
FFFFFFFF
FFFFFFFF
FFFFFFFF
FFFFFFFF
ENDCHAR
STARTCHAR Igrave
ENCODING 204
SWIDTH 236 0
DWIDTH 15 0
BBX 13 59 -3 -1
BITMAP
1800
FC00
7E00
3F00
1F80
0780
03C0
01E0
00F0
0000
0000
0000
0000
00F8
00F8
00F8
00F8
00F8
00F8
00F8
00F8
00F8
00F8
00F8
00F8
00F8
00F8
00F8
00F8
00F8
00F8
00F8
00F8
00F8
00F8
00F8
00F8
00F8
00F8
00F8
00F8
00F8
00F8
00F8
00F8
00F8
00F8
00F8
00F8
00F8
00F8
00F8
00F8
00F8
00F8
00F8
00F8
00F8
00F8
ENDCHAR
STARTCHAR Iacute
ENCODING 205
SWIDTH 236 0
DWIDTH 15 0
BBX 13 59 5 -1
BITMAP
00E0
01F8
03F0
07E0
07C0
0F80
1E00
3C00
7800
0000
0000
0000
0000
F800
F800
F800
F800
F800
F800
F800
F800
F800
F800
F800
F800
F800
F800
F800
F800
F800
F800
F800
F800
F800
F800
F800
F800
F800
F800
F800
F800
F800
F800
F800
F800
F800
F800
F800
F800
F800
F800
F800
F800
F800
F800
F800
F800
F800
F800
ENDCHAR
STARTCHAR Icircumflex
ENCODING 206
SWIDTH 236 0
DWIDTH 15 0
BBX 17 59 -1 -1
BITMAP
03E000
07F000
07F000
0FF800
1F7C00
3E3E00
3C1E00
780F00
F00780
000000
000000
000000
000000
03E000
03E000
03E000
03E000
03E000
03E000
03E000
03E000
03E000
03E000
03E000
03E000
03E000
03E000
03E000
03E000
03E000
03E000
03E000
03E000
03E000
03E000
03E000
03E000
03E000
03E000
03E000
03E000
03E000
03E000
03E000
03E000
03E000
03E000
03E000
03E000
03E000
03E000
03E000
03E000
03E000
03E000
03E000
03E000
03E000
03E000
ENDCHAR
STARTCHAR Idieresis
ENCODING 207
SWIDTH 236 0
DWIDTH 15 0
BBX 19 57 -2 -1
BITMAP
380380
7C07C0
FC07E0
FC07E0
7C07C0
380380
000000
000000
000000
000000
000000
01F000
01F000
01F000
01F000
01F000
01F000
01F000
01F000
01F000
01F000
01F000
01F000
01F000
01F000
01F000
01F000
01F000
01F000
01F000
01F000
01F000
01F000
01F000
01F000
01F000
01F000
01F000
01F000
01F000
01F000
01F000
01F000
01F000
01F000
01F000
01F000
01F000
01F000
01F000
01F000
01F000
01F000
01F000
01F000
01F000
01F000
ENDCHAR
STARTCHAR Eth
ENCODING 208
SWIDTH 779 0
DWIDTH 50 0
BBX 43 46 3 -1
BITMAP
0FFFFF000000
0FFFFFF00000
0FFFFFFC0000
0FFFFFFF0000
0FFFFFFFC000
0F80007FE000
0F80000FF000
0F800003F800
0F800001FC00
0F800000FE00
0F8000007E00
0F8000003F00
0F8000001F00
0F8000001F80
0F8000000F80
0F8000000FC0
0F80000007C0
0F80000007C0
0F80000007C0
0F80000007C0
FFFFFC0003E0
FFFFFC0003E0
FFFFFC0003E0
FFFFFC0003E0
FFFFFC0003E0
0F80000003E0
0F80000007E0
0F80000007C0
0F80000007C0
0F80000007C0
0F8000000FC0
0F8000000F80
0F8000001F80
0F8000001F00
0F8000003F00
0F8000007E00
0F800000FE00
0F800001FC00
0F800003F800
0F80000FF000
0F80007FE000
0FFFFFFFC000
0FFFFFFF0000
0FFFFFFC0000
0FFFFFF00000
0FFFFF000000
ENDCHAR
STARTCHAR Ntilde
ENCODING 209
SWIDTH 770 0
DWIDTH 49 0
BBX 37 58 6 -1
BITMAP
0007003000
001FC03800
003FE07800
003FF07000
0078F8F000
00707FF000
00703FE000
00F01FC000
0060070000
0000000000
0000000000
0000000000
F8000000F8
FC000000F8
FE000000F8
FF000000F8
FF000000F8
FF800000F8
FFC00000F8
FFC00000F8
FFE00000F8
FBF00000F8
FBF80000F8
F9F80000F8
F8FC0000F8
F87E0000F8
F87F0000F8
F83F0000F8
F81F8000F8
F81FC000F8
F80FC000F8
F807E000F8
F803F000F8
F803F800F8
F801F800F8
F800FC00F8
F8007E00F8
F8007F00F8
F8003F00F8
F8001F80F8
F8001FC0F8
F8000FE0F8
F80007E0F8
F80003F0F8
F80003F8F8
F80001F8F8
F80000FCF8
F800007EF8
F800007FF8
F800003FF8
F800001FF8
F800000FF8
F800000FF8
F8000007F8
F8000003F8
F8000003F8
F8000001F8
F8000000F8
ENDCHAR
STARTCHAR Ograve
ENCODING 210
SWIDTH 807 0
DWIDTH 52 0
BBX 45 58 3 -1
BITMAP
0003C0000000
0007E0000000
0003E0000000
0001F0000000
0000F8000000
00007C000000
00003E000000
00001F000000
000007000000
000000000000
000000000000
000000000000
00003FE00000
0001FFFE0000
0007FFFF8000
001FFFFFE000
003FFFFFF000
00FFC00FF800
01FE0003FC00
03FC0000FE00
07F000007F00
07E000001F80
0FC000001FC0
1F8000000FC0
1F80000007E0
3F00000003E0
3E00000003F0
3E00000001F0
7E00000001F0
7C00000001F8
7C00000000F8
7C00000000F8
FC00000000F8
F800000000F8
F800000000F8
F800000000F8
F800000000F8
FC00000000F8
7C00000000F8
7C00000000F8
7C00000001F8
7E00000001F0
3E00000001F0
3E00000003F0
3F00000003E0
1F80000007E0
1F8000000FC0
0FC000001FC0
07E000003F80
03F000007F00
03FC0000FE00
01FE0003FC00
00FF800FF800
003FFFFFF000
001FFFFFE000
0007FFFF8000
0001FFFE0000
00003FE00000
ENDCHAR
STARTCHAR Oacute
ENCODING 211
SWIDTH 807 0
DWIDTH 52 0
BBX 45 58 3 -1
BITMAP
0000000F0000
0000001F8000
0000003F0000
0000003E0000
0000007C0000
000000F80000
000001E00000
000003C00000
000007800000
000000000000
000000000000
000000000000
00003FE00000
0001FFFE0000
0007FFFF8000
001FFFFFE000
003FFFFFF000
00FFC00FF800
01FE0003FC00
03FC0000FE00
07F000007F00
07E000001F80
0FC000001FC0
1F8000000FC0
1F80000007E0
3F00000003E0
3E00000003F0
3E00000001F0
7E00000001F0
7C00000001F8
7C00000000F8
7C00000000F8
FC00000000F8
F800000000F8
F800000000F8
F800000000F8
F800000000F8
FC00000000F8
7C00000000F8
7C00000000F8
7C00000001F8
7E00000001F0
3E00000001F0
3E00000003F0
3F00000003E0
1F80000007E0
1F8000000FC0
0FC000001FC0
07E000003F80
03F000007F00
03FC0000FE00
01FE0003FC00
00FF800FF800
003FFFFFF000
001FFFFFE000
0007FFFF8000
0001FFFE0000
00003FE00000
ENDCHAR
STARTCHAR Ocircumflex
ENCODING 212
SWIDTH 807 0
DWIDTH 52 0
BBX 45 58 3 -1
BITMAP
00000F800000
00000FC00000
00001FE00000
00003FF00000
00007CF00000
000078780000
0000F03C0000
0001E01E0000
0001C01E0000
000000000000
000000000000
000000000000
00003FE00000
0001FFFE0000
0007FFFF8000
001FFFFFE000
003FFFFFF000
00FFC00FF800
01FE0003FC00
03FC0000FE00
07F000007F00
07E000001F80
0FC000001FC0
1F8000000FC0
1F80000007E0
3F00000003E0
3E00000003F0
3E00000001F0
7E00000001F0
7C00000001F8
7C00000000F8
7C00000000F8
FC00000000F8
F800000000F8
F800000000F8
F800000000F8
F800000000F8
FC00000000F8
7C00000000F8
7C00000000F8
7C00000001F8
7E00000001F0
3E00000001F0
3E00000003F0
3F00000003E0
1F80000007E0
1F8000000FC0
0FC000001FC0
07E000003F80
03F000007F00
03FC0000FE00
01FE0003FC00
00FF800FF800
003FFFFFF000
001FFFFFE000
0007FFFF8000
0001FFFE0000
00003FE00000
ENDCHAR
STARTCHAR Otilde
ENCODING 213
SWIDTH 807 0
DWIDTH 52 0
BBX 45 58 3 -1
BITMAP
000070030000
0001FC038000
0003FE038000
0003FF078000
00078F8F0000
000787FF0000
000701FE0000
000700FC0000
000700380000
000000000000
000000000000
000000000000
00003FE00000
0001FFFE0000
0007FFFF8000
001FFFFFE000
003FFFFFF000
00FFC00FF800
01FE0003FC00
03FC0000FE00
07F000007F00
07E000001F80
0FC000001FC0
1F8000000FC0
1F80000007E0
3F00000003E0
3E00000003F0
3E00000001F0
7E00000001F0
7C00000001F8
7C00000000F8
7C00000000F8
FC00000000F8
F800000000F8
F800000000F8
F800000000F8
F800000000F8
FC00000000F8
7C00000000F8
7C00000000F8
7C00000001F8
7E00000001F0
3E00000001F0
3E00000003F0
3F00000003E0
1F80000007E0
1F8000000FC0
0FC000001FC0
07E000003F80
03F000007F00
03FC0000FE00
01FE0003FC00
00FF800FF800
003FFFFFF000
001FFFFFE000
0007FFFF8000
0001FFFE0000
00003FE00000
ENDCHAR
STARTCHAR Odieresis
ENCODING 214
SWIDTH 807 0
DWIDTH 52 0
BBX 45 56 3 -1
BITMAP
0001C01E0000
0003E03E0000
0003F03F0000
0003F03F0000
0003E03E0000
0001C00C0000
000000000000
000000000000
000000000000
000000000000
00003FE00000
0001FFFE0000
0007FFFF8000
001FFFFFE000
003FFFFFF000
00FFC00FF800
01FE0003FC00
03FC0000FE00
07F000007F00
07E000001F80
0FC000001FC0
1F8000000FC0
1F80000007E0
3F00000003E0
3E00000003F0
3E00000001F0
7E00000001F0
7C00000001F8
7C00000000F8
7C00000000F8
FC00000000F8
F800000000F8
F800000000F8
F800000000F8
F800000000F8
FC00000000F8
7C00000000F8
7C00000000F8
7C00000001F8
7E00000001F0
3E00000001F0
3E00000003F0
3F00000003E0
1F80000007E0
1F8000000FC0
0FC000001FC0
07E000003F80
03F000007F00
03FC0000FE00
01FE0003FC00
00FF800FF800
003FFFFFF000
001FFFFFE000
0007FFFF8000
0001FFFE0000
00003FE00000
ENDCHAR
STARTCHAR multiply
ENCODING 215
SWIDTH 541 0
DWIDTH 35 0
BBX 24 24 5 10
BITMAP
100004
38000E
7C001E
FE003F
7F007E
3F80FC
1FC1F8
0FE3F0
07F7E0
03FFC0
01FF80
00FF00
007F00
00FF80
01FFC0
03FFE0
07E7F0
0FC3F8
1F81FC
3F00FE
7E007F
7C003F
38001E
10000C
ENDCHAR
STARTCHAR Oslash
ENCODING 216
SWIDTH 807 0
DWIDTH 52 0
BBX 45 46 3 -1
BITMAP
00003FE001F0
0001FFFE03F0
0007FFFF83E0
001FFFFFE7C0
003FFFFFFF80
00FFC00FFF80
01FE0003FF00
03FC0000FE00
03F000007F00
07E00000FF80
0FC00001FFC0
1F800003EFC0
1F800007E7E0
3F00000FC3E0
3E00001F83F0
3E00001F01F0
7E00003E01F0
7C00007C01F8
7C0000F800F8
7C0001F800F8
FC0003F000F8
F80007E000F8
F80007C000F8
F8000F8000F8
F8001F0000F8
FC003E0000F8
7C007E0000F8
7C00FC0000F8
7C01F80001F8
7E01F00001F0
7E03E00001F0
3E07C00003F0
3F0F800003E0
1F9F800007E0
1FBF00000FC0
0FFE00001FC0
0FFC00003F80
07F800007F00
03FC0000FE00
03FE0003FC00
03FFC00FF800
07FFFFFFF000
0F9FFFFFE000
1F07FFFF8000
3E01FFFE0000
7E003FE00000
ENDCHAR
STARTCHAR Ugrave
ENCODING 217
SWIDTH 746 0
DWIDTH 48 0
BBX 37 59 5 -1
BITMAP
0007000000
001F800000
000FC00000
0007E00000
0003E00000
0001F00000
0000780000
00003C0000
00001E0000
0000000000
0000000000
0000000000
0000000000
F8000000F8
F8000000F8
F8000000F8
F8000000F8
F8000000F8
F8000000F8
F8000000F8
F8000000F8
F8000000F8
F8000000F8
F8000000F8
F8000000F8
F8000000F8
F8000000F8
F8000000F8
F8000000F8
F8000000F8
F8000000F8
F8000000F8
F8000000F8
F8000000F8
F8000000F8
F8000000F8
F8000000F8
F8000000F8
F8000000F8
F8000000F8
78000000F8
7C000000F8
7C000000F8
7C000000F8
7C000000F8
7C000001F0
3E000001F0
3E000003F0
3F000003E0
1F800007E0
1F80000FC0
0FE0001FC0
07F0003F80
03FC00FF00
01FFFFFE00
00FFFFFC00
007FFFF000
001FFFE000
0003FE0000
ENDCHAR
STARTCHAR Uacute
ENCODING 218
SWIDTH 746 0
DWIDTH 48 0
BBX 37 59 5 -1
BITMAP
0000070000
00000FC000
00001F8000
00001F0000
00003E0000
00007C0000
0000F80000
0001E00000
0003C00000
0000000000
0000000000
0000000000
0000000000
F8000000F8
F8000000F8
F8000000F8
F8000000F8
F8000000F8
F8000000F8
F8000000F8
F8000000F8
F8000000F8
F8000000F8
F8000000F8
F8000000F8
F8000000F8
F8000000F8
F8000000F8
F8000000F8
F8000000F8
F8000000F8
F8000000F8
F8000000F8
F8000000F8
F8000000F8
F8000000F8
F8000000F8
F8000000F8
F8000000F8
F8000000F8
78000000F8
7C000000F8
7C000000F8
7C000000F8
7C000000F8
7C000001F0
3E000001F0
3E000003F0
3F000003E0
1F800007E0
1F80000FC0
0FE0001FC0
07F0003F80
03FC00FF00
01FFFFFE00
00FFFFFC00
007FFFF000
001FFFE000
0003FE0000
ENDCHAR
STARTCHAR Ucircumflex
ENCODING 219
SWIDTH 746 0
DWIDTH 48 0
BBX 37 59 5 -1
BITMAP
0000F80000
0000FC0000
0001FE0000
0003FF0000
0007CF0000
0007878000
000F03C000
001E01E000
001C01E000
0000000000
0000000000
0000000000
0000000000
F8000000F8
F8000000F8
F8000000F8
F8000000F8
F8000000F8
F8000000F8
F8000000F8
F8000000F8
F8000000F8
F8000000F8
F8000000F8
F8000000F8
F8000000F8
F8000000F8
F8000000F8
F8000000F8
F8000000F8
F8000000F8
F8000000F8
F8000000F8
F8000000F8
F8000000F8
F8000000F8
F8000000F8
F8000000F8
F8000000F8
F8000000F8
78000000F8
7C000000F8
7C000000F8
7C000000F8
7C000000F8
7C000001F0
3E000001F0
3E000003F0
3F000003E0
1F800007E0
1F80000FC0
0FE0001FC0
07F0003F80
03FC00FF00
01FFFFFE00
00FFFFFC00
007FFFF000
001FFFE000
0003FE0000
ENDCHAR
STARTCHAR Udieresis
ENCODING 220
SWIDTH 746 0
DWIDTH 48 0
BBX 37 57 5 -1
BITMAP
001C01E000
003E03F000
003F03F000
003F03F000
003E01F000
001C01C000
0000000000
0000000000
0000000000
0000000000
0000000000
F8000000F8
F8000000F8
F8000000F8
F8000000F8
F8000000F8
F8000000F8
F8000000F8
F8000000F8
F8000000F8
F8000000F8
F8000000F8
F8000000F8
F8000000F8
F8000000F8
F8000000F8
F8000000F8
F8000000F8
F8000000F8
F8000000F8
F8000000F8
F8000000F8
F8000000F8
F8000000F8
F8000000F8
F8000000F8
F8000000F8
F8000000F8
78000000F8
7C000000F8
7C000000F8
7C000000F8
7C000000F8
7C000001F0
3E000001F0
3E000003F0
3F000003E0
1F800007E0
1F80000FC0
0FE0001FC0
07F0003F80
03FC00FF00
01FFFFFE00
00FFFFFC00
007FFFF000
001FFFE000
0003FE0000
ENDCHAR
STARTCHAR Yacute
ENCODING 221
SWIDTH 671 0
DWIDTH 43 0
BBX 40 59 1 -1
BITMAP
0000018000
000003F000
000007E000
00000FC000
00001F0000
00001E0000
00003C0000
0000780000
0000F00000
0000000000
0000000000
0000000000
0000000000
FE0000003F
7E0000003F
3F0000007E
3F8000007E
1F800000FC
0FC00001F8
0FC00001F8
07E00003F0
03F00007E0
03F00007E0
01F8000FC0
00FC001F80
00FC001F80
007E003F00
003F007E00
003F007E00
001F80FC00
000F80F800
000FC1F800
0007E3F000
0007E3F000
0003F7E000
0001FFC000
0001FFC000
0000FF8000
00007F0000
00007F0000
00003E0000
00003E0000
00003E0000
00003E0000
00003E0000
00003E0000
00003E0000
00003E0000
00003E0000
00003E0000
00003E0000
00003E0000
00003E0000
00003E0000
00003E0000
00003E0000
00003E0000
00003E0000
00003E0000
ENDCHAR
STARTCHAR Thorn
ENCODING 222
SWIDTH 644 0
DWIDTH 41 0
BBX 34 46 5 -1
BITMAP
F800000000
F800000000
F800000000
F800000000
F800000000
F800000000
F800000000
F800000000
FFFFFC0000
FFFFFF8000
FFFFFFE000
FFFFFFF800
FFFFFFFC00
F80003FE00
F80000FE00
F800003F00
F800001F80
F800000F80
F800000F80
F800000FC0
F8000007C0
F8000007C0
F8000007C0
F8000007C0
F8000007C0
F8000007C0
F800000FC0
F800000F80
F800001F80
F800001F80
F800003F00
F80000FF00
F80003FE00
FFFFFFFC00
FFFFFFF800
FFFFFFE000
FFFFFF8000
FFFFFC0000
F800000000
F800000000
F800000000
F800000000
F800000000
F800000000
F800000000
F800000000
ENDCHAR
STARTCHAR germandbls
ENCODING 223
SWIDTH 576 0
DWIDTH 37 0
BBX 29 45 5 -1
BITMAP
007FC000
01FFF800
07FFFC00
0FFFFF00
1FFFFF80
3F803F80
7F001FC0
7E000FC0
7C0007E0
FC0003E0
FC0003E0
F80003E0
F80003E0
F80003E0
F80007E0
F80007C0
F8000FC0
F8001F80
F8003F00
F83FFF00
F83FFC00
F83FF800
F83FFE00
F83FFF00
F8003F80
F8000FC0
F80007E0
F80003E0
F80001F0
F80001F0
F80000F8
F80000F8
F80000F8
F80000F8
F80001F8
F80001F8
F80003F0
F80003F0
F80007E0
F8001FE0
F83FFFC0
F83FFF80
F83FFF00
F83FFC00
F83FF000
ENDCHAR
STARTCHAR agrave
ENCODING 224
SWIDTH 573 0
DWIDTH 37 0
BBX 29 47 3 -1
BITMAP
00780000
00FC0000
007E0000
003F0000
001F0000
00078000
0003C000
0001E000
0000F000
00000000
00000000
00000000
001FE000
01FFFC00
07FFFF00
0FFFFF80
0FF03FC0
07800FE0
060007E0
000003F0
000001F0
000001F0
000000F0
000000F8
000000F8
007FE0F8
03FFFEF8
07FFFFF8
1FFFFFF8
1FE00FF8
3F0000F8
7E0000F8
7C0000F8
FC0000F8
F80000F8
F80000F8
F80000F8
F80001F8
F80001F8
7C0003F8
7C0007F8
7E000FF8
3F807EF8
1FFFFCF8
0FFFF8F8
03FFE0F8
00FF00F8
ENDCHAR
STARTCHAR aacute
ENCODING 225
SWIDTH 573 0
DWIDTH 37 0
BBX 29 47 3 -1
BITMAP
00003C00
00007E00
0000FC00
0001F800
0003E000
0003C000
00078000
000F0000
001E0000
00000000
00000000
00000000
001FE000
01FFFC00
07FFFF00
0FFFFF80
0FF03FC0
07800FE0
060007E0
000003F0
000001F0
000001F0
000000F0
000000F8
000000F8
007FE0F8
03FFFEF8
07FFFFF8
1FFFFFF8
1FE00FF8
3F0000F8
7E0000F8
7C0000F8
FC0000F8
F80000F8
F80000F8
F80000F8
F80001F8
F80001F8
7C0003F8
7C0007F8
7E000FF8
3F807EF8
1FFFFCF8
0FFFF8F8
03FFE0F8
00FF00F8
ENDCHAR
STARTCHAR acircumflex
ENCODING 226
SWIDTH 573 0
DWIDTH 37 0
BBX 29 47 3 -1
BITMAP
0007C000
0007E000
000FF000
001FF000
003E7800
003C3C00
00783E00
00F01E00
01E00F00
00000000
00000000
00000000
001FE000
01FFFC00
07FFFF00
0FFFFF80
0FF03FC0
07800FE0
060007E0
000003F0
000001F0
000001F0
000000F0
000000F8
000000F8
007FE0F8
03FFFEF8
07FFFFF8
1FFFFFF8
1FE00FF8
3F0000F8
7E0000F8
7C0000F8
FC0000F8
F80000F8
F80000F8
F80000F8
F80001F8
F80001F8
7C0003F8
7C0007F8
7E000FF8
3F807EF8
1FFFFCF8
0FFFF8F8
03FFE0F8
00FF00F8
ENDCHAR
STARTCHAR atilde
ENCODING 227
SWIDTH 573 0
DWIDTH 37 0
BBX 29 46 3 -1
BITMAP
007C01C0
00FF01C0
01FF83C0
03FFC380
03C3FF80
0381FF00
0380FF00
07803C00
00000000
00000000
00000000
001FE000
01FFFC00
07FFFF00
0FFFFF80
0FF03FC0
07800FE0
060007E0
000003F0
000001F0
000001F0
000000F0
000000F8
000000F8
007FE0F8
03FFFEF8
07FFFFF8
1FFFFFF8
1FE00FF8
3F0000F8
7E0000F8
7C0000F8
FC0000F8
F80000F8
F80000F8
F80000F8
F80001F8
F80001F8
7C0003F8
7C0007F8
7E000FF8
3F807EF8
1FFFFCF8
0FFFF8F8
03FFE0F8
00FF00F8
ENDCHAR
STARTCHAR adieresis
ENCODING 228
SWIDTH 573 0
DWIDTH 37 0
BBX 29 46 3 -1
BITMAP
00E00E00
01F01F00
01F01F80
01F01F80
01F01F00
00E00E00
00000000
00000000
00000000
00000000
00000000
001FE000
01FFFC00
07FFFF00
0FFFFF80
0FF03FC0
07800FE0
060007E0
000003F0
000001F0
000001F0
000000F0
000000F8
000000F8
007FE0F8
03FFFEF8
07FFFFF8
1FFFFFF8
1FE00FF8
3F0000F8
7E0000F8
7C0000F8
FC0000F8
F80000F8
F80000F8
F80000F8
F80001F8
F80001F8
7C0003F8
7C0007F8
7E000FF8
3F807EF8
1FFFFCF8
0FFFF8F8
03FFE0F8
00FF00F8
ENDCHAR
STARTCHAR aring
ENCODING 229
SWIDTH 573 0
DWIDTH 37 0
BBX 29 53 3 -1
BITMAP
0007C000
000FF000
001FF800
003C3800
00381C00
00701C00
00701C00
00701C00
00701C00
00381C00
003C7800
001FF800
000FF000
0003C000
00000000
00000000
00000000
00000000
001FE000
01FFFC00
07FFFF00
0FFFFF80
0FF03FC0
07800FE0
060007E0
000003F0
000001F0
000001F0
000000F0
000000F8
000000F8
007FE0F8
03FFFEF8
07FFFFF8
1FFFFFF8
1FE00FF8
3F0000F8
7E0000F8
7C0000F8
FC0000F8
F80000F8
F80000F8
F80000F8
F80001F8
F80001F8
7C0003F8
7C0007F8
7E000FF8
3F807EF8
1FFFFCF8
0FFFF8F8
03FFE0F8
00FF00F8
ENDCHAR
STARTCHAR ae
ENCODING 230
SWIDTH 968 0
DWIDTH 62 0
BBX 56 35 3 -1
BITMAP
001FF0000FF000
01FFFC007FFE00
07FFFF00FFFF80
0FFFFF83FFFFC0
0FF03FC7FC3FE0
07800FEFE003F0
060007FFC001F8
000003FF0000F8
000001FF00007C
000001FE00003C
000000FC00003E
000000FC00003E
000000F800001E
007FE0F800001E
03FFFEF800001F
07FFFFFFFFFFFF
1FFFFFFFFFFFFF
1FE01FFFFFFFFF
3F0000FFFFFFFF
7E0000F8000000
7C0000F8000000
F80000F8000000
F80000FC000000
F80000FC000000
F80001FC000000
F80001FE000000
F80003FF000000
7C0007FF800030
7E000FCFC00078
7F001F8FE001FC
3FE0FF07FC1FF8
1FFFFE01FFFFF0
0FFFFC00FFFFE0
07FFF0003FFF00
00FF800007F800
ENDCHAR
STARTCHAR ccedilla
ENCODING 231
SWIDTH 542 0
DWIDTH 35 0
BBX 29 47 3 -13
BITMAP
0007F800
003FFF00
00FFFFC0
01FFFFE0
03FE1FF8
07F003F0
0FE000E0
1F800040
1F000000
3F000000
3E000000
7E000000
7C000000
FC000000
F8000000
F8000000
F8000000
F8000000
F8000000
F8000000
F8000000
7C000000
7C000000
7C000000
7E000000
3F000000
1F000000
1F800060
0FC000F0
07F003F8
03FC0FF8
01FFFFF0
00FFFFC0
003FFF00
0007FC00
0001C000
0003C000
0003F000
0003F800
00023C00
00001C00
00001E00
00001C00
001C3C00
001FFC00
001FF800
0007E000
ENDCHAR
STARTCHAR egrave
ENCODING 232
SWIDTH 595 0
DWIDTH 38 0
BBX 32 47 3 -1
BITMAP
003C0000
007E0000
003E0000
001F0000
000F8000
0007C000
0003E000
0001F000
00007000
00000000
00000000
00000000
000FF800
003FFE00
00FFFF80
03FFFFC0
07FC1FE0
0FE003F0
0FC001F8
1F8000F8
3F00007C
3E00003C
7C00003E
7C00001E
7C00001E
F800001F
F800001F
FFFFFFFF
FFFFFFFF
FFFFFFFF
FFFFFFFF
F8000000
F8000000
F8000000
7C000000
7C000000
7C000000
3E000000
3F000000
1F800030
0FC00078
07F001FC
03FC1FFC
01FFFFF0
00FFFFE0
003FFF00
0007F800
ENDCHAR
STARTCHAR eacute
ENCODING 233
SWIDTH 595 0
DWIDTH 38 0
BBX 32 47 3 -1
BITMAP
00003C00
00003F00
00007C00
0000F800
0001F000
0003E000
0007C000
00078000
000F0000
00000000
00000000
00000000
000FF800
003FFE00
00FFFF80
03FFFFC0
07FC1FE0
0FE003F0
0FC001F8
1F8000F8
3F00007C
3E00003C
7C00003E
7C00001E
7C00001E
F800001F
F800001F
FFFFFFFF
FFFFFFFF
FFFFFFFF
FFFFFFFF
F8000000
F8000000
F8000000
7C000000
7C000000
7C000000
3E000000
3F000000
1F800030
0FC00078
07F001FC
03FC1FFC
01FFFFF0
00FFFFE0
003FFF00
0007F800
ENDCHAR
STARTCHAR ecircumflex
ENCODING 234
SWIDTH 595 0
DWIDTH 38 0
BBX 32 47 3 -1
BITMAP
0003E000
0007F000
000FF000
000FF800
001E7C00
003E3E00
003C1E00
00780F00
00F00780
00000000
00000000
00000000
000FF800
003FFE00
00FFFF80
03FFFFC0
07FC1FE0
0FE003F0
0FC001F8
1F8000F8
3F00007C
3E00003C
7C00003E
7C00001E
7C00001E
F800001F
F800001F
FFFFFFFF
FFFFFFFF
FFFFFFFF
FFFFFFFF
F8000000
F8000000
F8000000
7C000000
7C000000
7C000000
3E000000
3F000000
1F800030
0FC00078
07F001FC
03FC1FFC
01FFFFF0
00FFFFE0
003FFF00
0007F800
ENDCHAR
STARTCHAR edieresis
ENCODING 235
SWIDTH 595 0
DWIDTH 38 0
BBX 32 46 3 -1
BITMAP
00700700
00F80F80
01F80F80
01F80F80
00F80F80
00700700
00000000
00000000
00000000
00000000
00000000
000FF800
003FFE00
00FFFF80
03FFFFC0
07FC1FE0
0FE003F0
0FC001F8
1F8000F8
3F00007C
3E00003C
7C00003E
7C00001E
7C00001E
F800001F
F800001F
FFFFFFFF
FFFFFFFF
FFFFFFFF
FFFFFFFF
F8000000
F8000000
F8000000
7C000000
7C000000
7C000000
3E000000
3F000000
1F800030
0FC00078
07F001FC
03FC1FFC
01FFFFF0
00FFFFE0
003FFF00
0007F800
ENDCHAR
STARTCHAR igrave
ENCODING 236
SWIDTH 225 0
DWIDTH 14 0
BBX 13 48 -3 -1
BITMAP
3800
FC00
7E00
3E00
1F00
0F80
07C0
03E0
00F0
0000
0000
0000
0000
00F8
00F8
00F8
00F8
00F8
00F8
00F8
00F8
00F8
00F8
00F8
00F8
00F8
00F8
00F8
00F8
00F8
00F8
00F8
00F8
00F8
00F8
00F8
00F8
00F8
00F8
00F8
00F8
00F8
00F8
00F8
00F8
00F8
00F8
00F8
ENDCHAR
STARTCHAR iacute
ENCODING 237
SWIDTH 225 0
DWIDTH 14 0
BBX 13 48 5 -1
BITMAP
00C0
01F8
03F0
07E0
0F80
1F00
1E00
3C00
7800
0000
0000
0000
0000
F800
F800
F800
F800
F800
F800
F800
F800
F800
F800
F800
F800
F800
F800
F800
F800
F800
F800
F800
F800
F800
F800
F800
F800
F800
F800
F800
F800
F800
F800
F800
F800
F800
F800
F800
ENDCHAR
STARTCHAR icircumflex
ENCODING 238
SWIDTH 225 0
DWIDTH 14 0
BBX 17 48 -1 -1
BITMAP
03E000
07E000
0FF000
0FF800
1E7C00
3C3C00
7C1E00
780F00
F00780
000000
000000
000000
000000
03E000
03E000
03E000
03E000
03E000
03E000
03E000
03E000
03E000
03E000
03E000
03E000
03E000
03E000
03E000
03E000
03E000
03E000
03E000
03E000
03E000
03E000
03E000
03E000
03E000
03E000
03E000
03E000
03E000
03E000
03E000
03E000
03E000
03E000
03E000
ENDCHAR
STARTCHAR idieresis
ENCODING 239
SWIDTH 225 0
DWIDTH 14 0
BBX 18 46 -2 -1
BITMAP
780380
7C07C0
FC0FC0
FC0FC0
7C07C0
380380
000000
000000
000000
000000
000000
01F000
01F000
01F000
01F000
01F000
01F000
01F000
01F000
01F000
01F000
01F000
01F000
01F000
01F000
01F000
01F000
01F000
01F000
01F000
01F000
01F000
01F000
01F000
01F000
01F000
01F000
01F000
01F000
01F000
01F000
01F000
01F000
01F000
01F000
01F000
ENDCHAR
STARTCHAR eth
ENCODING 240
SWIDTH 627 0
DWIDTH 40 0
BBX 32 47 4 -1
BITMAP
00080000
007E0100
00FF0F00
003FBF80
001FFF80
0007FF00
001FFC00
007FF800
01FFFC00
00FE7E00
00F81F00
00600F80
000007C0
000007E0
001FC3F0
00FFF9F0
03FFFEF8
07FFFFFC
0FF81FFC
1FE007FC
3F8001FE
3F0000FE
7E00007E
7E00007F
7C00003F
FC00003F
F800001F
F800001F
F800001F
F800001F
F800001F
F800001F
F800001F
F800001F
F800001F
7C00003E
7C00003E
7E00007E
3E00007C
3F0000FC
1F8001F8
0FE007F0
07FC3FE0
03FFFFC0
01FFFF80
007FFE00
000FF000
ENDCHAR
STARTCHAR ntilde
ENCODING 241
SWIDTH 592 0
DWIDTH 38 0
BBX 28 46 5 -1
BITMAP
00F80380
01FE0380
03FF0780
03FF8780
0787FF00
0703FF00
0701FE00
07007C00
00000000
00000000
00000000
F80FE000
F87FFC00
F8FFFE00
F9FFFF00
FBF87F80
FFC01FC0
FF000FE0
FE0007E0
FC0003E0
FC0003F0
F80001F0
F80001F0
F80001F0
F80001F0
F80001F0
F80001F0
F80001F0
F80001F0
F80001F0
F80001F0
F80001F0
F80001F0
F80001F0
F80001F0
F80001F0
F80001F0
F80001F0
F80001F0
F80001F0
F80001F0
F80001F0
F80001F0
F80001F0
F80001F0
F80001F0
ENDCHAR
STARTCHAR ograve
ENCODING 242
SWIDTH 631 0
DWIDTH 40 0
BBX 34 47 3 -1
BITMAP
001E000000
007E000000
001F000000
000F800000
0007C00000
0003E00000
0001F00000
0000F00000
0000780000
0000000000
0000000000
0000000000
0007F80000
003FFF0000
00FFFFC000
01FFFFE000
03FE1FF800
07F003FC00
0FE000FC00
1F80007E00
1F00003F00
3F00001F00
3E00001F80
7C00000F80
7C00000FC0
FC000007C0
F8000007C0
F8000007C0
F8000007C0
F8000007C0
F8000007C0
F8000007C0
F8000007C0
7C000007C0
7C00000FC0
7C00000F80
3E00001F80
3F00001F00
1F00003F00
1F80007E00
0FE000FC00
07F003FC00
03FE1FF800
01FFFFE000
007FFFC000
003FFF0000
0007F80000
ENDCHAR
STARTCHAR oacute
ENCODING 243
SWIDTH 631 0
DWIDTH 40 0
BBX 34 47 3 -1
BITMAP
00001E0000
00003F0000
00003E0000
00007C0000
0000F80000
0001F00000
0003E00000
0007C00000
0007000000
0000000000
0000000000
0000000000
0007F80000
003FFF0000
00FFFFC000
01FFFFE000
03FE1FF800
07F003FC00
0FE000FC00
1F80007E00
1F00003F00
3F00001F00
3E00001F80
7C00000F80
7C00000FC0
FC000007C0
F8000007C0
F8000007C0
F8000007C0
F8000007C0
F8000007C0
F8000007C0
F8000007C0
7C000007C0
7C00000FC0
7C00000F80
3E00001F80
3F00001F00
1F00003F00
1F80007E00
0FE000FC00
07F003FC00
03FE1FF800
01FFFFE000
007FFFC000
003FFF0000
0007F80000
ENDCHAR
STARTCHAR ocircumflex
ENCODING 244
SWIDTH 631 0
DWIDTH 40 0
BBX 34 47 3 -1
BITMAP
0001F00000
0003F00000
0007F80000
0007FC0000
000F3E0000
001E1E0000
003E0F0000
003C078000
007803C000
0000000000
0000000000
0000000000
0007F80000
003FFF0000
00FFFFC000
01FFFFE000
03FE1FF800
07F003FC00
0FE000FC00
1F80007E00
1F00003F00
3F00001F00
3E00001F80
7C00000F80
7C00000FC0
FC000007C0
F8000007C0
F8000007C0
F8000007C0
F8000007C0
F8000007C0
F8000007C0
F8000007C0
7C000007C0
7C00000FC0
7C00000F80
3E00001F80
3F00001F00
1F00003F00
1F80007E00
0FE000FC00
07F003FC00
03FE1FF800
01FFFFE000
007FFFC000
003FFF0000
0007F80000
ENDCHAR
STARTCHAR otilde
ENCODING 245
SWIDTH 631 0
DWIDTH 40 0
BBX 34 46 3 -1
BITMAP
003F00E000
007F80E000
00FFC0E000
00FFE1E000
00E1FFC000
01E0FFC000
01C03F8000
01C01F0000
0000000000
0000000000
0000000000
0007F80000
003FFF0000
00FFFFC000
01FFFFE000
03FE1FF800
07F003FC00
0FE000FC00
1F80007E00
1F00003F00
3F00001F00
3E00001F80
7C00000F80
7C00000FC0
FC000007C0
F8000007C0
F8000007C0
F8000007C0
F8000007C0
F8000007C0
F8000007C0
F8000007C0
7C000007C0
7C00000FC0
7C00000F80
3E00001F80
3F00001F00
1F00003F00
1F80007E00
0FE000FC00
07F003FC00
03FE1FF800
01FFFFE000
007FFFC000
003FFF0000
0007F80000
ENDCHAR
STARTCHAR odieresis
ENCODING 246
SWIDTH 631 0
DWIDTH 40 0
BBX 34 46 3 -1
BITMAP
0078038000
007C07C000
00FC0FC000
00FC0FC000
007C07C000
0038038000
0000000000
0000000000
0000000000
0000000000
0000000000
0007F80000
003FFF0000
00FFFFC000
01FFFFE000
03FE1FF800
07F003FC00
0FE000FC00
1F80007E00
1F00003F00
3F00001F00
3E00001F80
7C00000F80
7C00000FC0
FC000007C0
F8000007C0
F8000007C0
F8000007C0
F8000007C0
F8000007C0
F8000007C0
F8000007C0
7C000007C0
7C00000FC0
7C00000F80
3E00001F80
3F00001F00
1F00003F00
1F80007E00
0FE000FC00
07F003FC00
03FE1FF800
01FFFFE000
007FFFC000
003FFF0000
0007F80000
ENDCHAR
STARTCHAR divide
ENCODING 247
SWIDTH 593 0
DWIDTH 38 0
BBX 30 27 4 8
BITMAP
00078000
000FC000
000FC000
000FC000
000FC000
000FC000
00078000
00000000
00000000
00000000
00000000
FFFFFFFC
FFFFFFFC
FFFFFFFC
FFFFFFFC
FFFFFFFC
00000000
00000000
00000000
00000000
00078000
000FC000
000FC000
000FC000
000FC000
000FC000
00078000
ENDCHAR
STARTCHAR oslash
ENCODING 248
SWIDTH 631 0
DWIDTH 40 0
BBX 34 35 3 -1
BITMAP
0007F80FC0
003FFF0F80
00FFFFDF00
01FFFFFE00
03FE1FFC00
07F003FC00
0FE000FC00
1F8001FE00
1F0003FF00
3F0007FF00
3E000FDF80
7C000F8F80
7C001F0FC0
7C003E07C0
F8007E07C0
F800FC07C0
F801F807C0
F801F007C0
F803E007C0
F807C007C0
F80F8007C0
FC1F8007C0
7C3F000FC0
7C7E000F80
7E7C001F80
3FF8001F00
3FF0003F00
1FF0007E00
1FE000FC00
0FF003FC00
0FFE1FF800
1FFFFFE000
1EFFFFC000
3E3FFF0000
7C07F80000
ENDCHAR
STARTCHAR ugrave
ENCODING 249
SWIDTH 592 0
DWIDTH 38 0
BBX 28 48 5 -1
BITMAP
00E00000
03F00000
01F80000
00FC0000
007C0000
003E0000
000F0000
00078000
0003C000
00000000
00000000
00000000
00000000
F80001F0
F80001F0
F80001F0
F80001F0
F80001F0
F80001F0
F80001F0
F80001F0
F80001F0
F80001F0
F80001F0
F80001F0
F80001F0
F80001F0
F80001F0
F80001F0
F80001F0
F80001F0
F80001F0
F80001F0
F80001F0
F80001F0
F80001F0
F80001F0
F80001F0
F80003F0
7C0003F0
7C0007F0
7E000FF0
3F803FF0
1FE1FDF0
1FFFF9F0
07FFF1F0
03FFC1F0
007F01F0
ENDCHAR
STARTCHAR uacute
ENCODING 250
SWIDTH 592 0
DWIDTH 38 0
BBX 28 48 5 -1
BITMAP
0000E000
0001F800
0003F000
0003E000
0007C000
000F8000
001F0000
003C0000
00780000
00000000
00000000
00000000
00000000
F80001F0
F80001F0
F80001F0
F80001F0
F80001F0
F80001F0
F80001F0
F80001F0
F80001F0
F80001F0
F80001F0
F80001F0
F80001F0
F80001F0
F80001F0
F80001F0
F80001F0
F80001F0
F80001F0
F80001F0
F80001F0
F80001F0
F80001F0
F80001F0
F80001F0
F80003F0
7C0003F0
7C0007F0
7E000FF0
3F803FF0
1FE1FDF0
1FFFF9F0
07FFF1F0
03FFC1F0
007F01F0
ENDCHAR
STARTCHAR ucircumflex
ENCODING 251
SWIDTH 592 0
DWIDTH 38 0
BBX 28 48 5 -1
BITMAP
001F0000
001F8000
003FC000
007FE000
0079E000
00F0F000
01E07800
03C03C00
03803C00
00000000
00000000
00000000
00000000
F80001F0
F80001F0
F80001F0
F80001F0
F80001F0
F80001F0
F80001F0
F80001F0
F80001F0
F80001F0
F80001F0
F80001F0
F80001F0
F80001F0
F80001F0
F80001F0
F80001F0
F80001F0
F80001F0
F80001F0
F80001F0
F80001F0
F80001F0
F80001F0
F80001F0
F80003F0
7C0003F0
7C0007F0
7E000FF0
3F803FF0
1FE1FDF0
1FFFF9F0
07FFF1F0
03FFC1F0
007F01F0
ENDCHAR
STARTCHAR udieresis
ENCODING 252
SWIDTH 592 0
DWIDTH 38 0
BBX 28 46 5 -1
BITMAP
03803C00
07C07E00
07E07E00
07E07E00
07C07E00
03801800
00000000
00000000
00000000
00000000
00000000
F80001F0
F80001F0
F80001F0
F80001F0
F80001F0
F80001F0
F80001F0
F80001F0
F80001F0
F80001F0
F80001F0
F80001F0
F80001F0
F80001F0
F80001F0
F80001F0
F80001F0
F80001F0
F80001F0
F80001F0
F80001F0
F80001F0
F80001F0
F80001F0
F80001F0
F80003F0
7C0003F0
7C0007F0
7E000FF0
3F803FF0
1FE1FDF0
1FFFF9F0
07FFF1F0
03FFC1F0
007F01F0
ENDCHAR
STARTCHAR yacute
ENCODING 253
SWIDTH 593 0
DWIDTH 38 0
BBX 33 58 2 -11
BITMAP
00001C0000
00003F0000
00007E0000
0000FC0000
0000F80000
0001F00000
0003E00000
0007800000
000F000000
0000000000
0000000000
0000000000
0000000000
F800000F80
7C00001F00
7C00001F00
7E00003F00
3E00003E00
3F00003E00
1F00007C00
1F00007C00
0F8000FC00
0F8000F800
0FC000F800
07C001F000
07C001F000
03E003F000
03E003E000
03F003E000
01F007C000
01F007C000
00F8078000
00F80F8000
007C0F8000
007C1F0000
007E1F0000
003E1E0000
003E3E0000
001F3E0000
001F7C0000
000FFC0000
000FF80000
000FF80000
0007F80000
0007F00000
0003F00000
0003E00000
0003E00000
0003E00000
0007C00000
0007C00000
000F800000
001F800000
083F000000
1FFF000000
1FFE000000
1FFC000000
1FF0000000
ENDCHAR
STARTCHAR thorn
ENCODING 254
SWIDTH 638 0
DWIDTH 41 0
BBX 32 56 5 -11
BITMAP
F8000000
F8000000
F8000000
F8000000
F8000000
F8000000
F8000000
F8000000
F8000000
F8000000
F8000000
F807F800
F81FFF00
F87FFF80
F8FFFFE0
F9FC3FF0
FBE007F0
FFC001F8
FF8000FC
FF00007C
FE00007E
FE00003E
FC00003F
FC00001F
FC00001F
F800001F
F800001F
F800001F
F800001F
F800001F
F800001F
F800001F
FC00001F
FC00001F
FC00003F
FE00003E
FE00007E
FF00007C
FF8000FC
FFC001F8
FBE007F8
F9FC3FF0
F8FFFFE0
F87FFF80
F81FFF00
F807F800
F8000000
F8000000
F8000000
F8000000
F8000000
F8000000
F8000000
F8000000
F8000000
F8000000
ENDCHAR
STARTCHAR ydieresis
ENCODING 255
SWIDTH 593 0
DWIDTH 38 0
BBX 33 56 2 -11
BITMAP
0070070000
00F80F8000
00FC0FC000
00FC0FC000
00F80F8000
0070070000
0000000000
0000000000
0000000000
0000000000
0000000000
F800000F80
7C00001F00
7C00001F00
7E00003F00
3E00003E00
3F00003E00
1F00007C00
1F00007C00
0F8000FC00
0F8000F800
0FC000F800
07C001F000
07C001F000
03E003F000
03E003E000
03F003E000
01F007C000
01F007C000
00F8078000
00F80F8000
007C0F8000
007C1F0000
007E1F0000
003E1E0000
003E3E0000
001F3E0000
001F7C0000
000FFC0000
000FF80000
000FF80000
0007F80000
0007F00000
0003F00000
0003E00000
0003E00000
0003E00000
0007C00000
0007C00000
000F800000
001F800000
083F000000
1FFF000000
1FFE000000
1FFC000000
1FF0000000
ENDCHAR
STARTCHAR Amacron
ENCODING 256
SWIDTH 755 0
DWIDTH 48 0
BBX 44 55 2 -1
BITMAP
000FFFFF0000
000FFFFF0000
000FFFFF0000
000FFFFF0000
000000000000
000000000000
000000000000
000000000000
000000000000
00001F800000
00001FC00000
00003FC00000
00003FC00000
00003FE00000
00007FE00000
00007FF00000
0000FDF00000
0000F9F00000
0001F8F80000
0001F0F80000
0001F0FC0000
0003E07C0000
0003E07E0000
0007E03E0000
0007C03E0000
000FC01F0000
000F801F0000
000F801F8000
001F800F8000
001F000FC000
003F0007C000
003E0007C000
003E0007E000
007C0003E000
007C0003F000
00FC0001F000
00F80001F000
01F80000F800
01F00000F800
01FFFFFFFC00
03FFFFFFFC00
03FFFFFFFE00
07FFFFFFFE00
07FFFFFFFE00
0FC000001F00
0F8000001F00
0F8000001F80
1F0000000F80
1F0000000FC0
3F00000007C0
3E00000007C0
3E00000007E0
7C00000003E0
7C00000003F0
FC00000001F0
ENDCHAR
STARTCHAR amacron
ENCODING 257
SWIDTH 573 0
DWIDTH 37 0
BBX 29 43 3 -1
BITMAP
03FFFFC0
03FFFFC0
03FFFFC0
03FFFFC0
00000000
00000000
00000000
00000000
001FE000
01FFFC00
07FFFF00
0FFFFF80
0FF03FC0
07800FE0
060007E0
000003F0
000001F0
000001F0
000000F0
000000F8
000000F8
007FE0F8
03FFFEF8
07FFFFF8
1FFFFFF8
1FE00FF8
3F0000F8
7E0000F8
7C0000F8
FC0000F8
F80000F8
F80000F8
F80000F8
F80001F8
F80001F8
7C0003F8
7C0007F8
7E000FF8
3F807EF8
1FFFFCF8
0FFFF8F8
03FFE0F8
00FF00F8
ENDCHAR
STARTCHAR Abreve
ENCODING 258
SWIDTH 755 0
DWIDTH 48 0
BBX 44 58 2 -1
BITMAP
000000080000
0001801C0000
0003E07E0000
0007FFFE0000
0003FFFC0000
0000FFF80000
00003FC00000
000000000000
000000000000
000000000000
000000000000
000000000000
00001F800000
00001FC00000
00003FC00000
00003FC00000
00003FE00000
00007FE00000
00007FF00000
0000FDF00000
0000F9F00000
0001F8F80000
0001F0F80000
0001F0FC0000
0003E07C0000
0003E07E0000
0007E03E0000
0007C03E0000
000FC01F0000
000F801F0000
000F801F8000
001F800F8000
001F000FC000
003F0007C000
003E0007C000
003E0007E000
007C0003E000
007C0003F000
00FC0001F000
00F80001F000
01F80000F800
01F00000F800
01FFFFFFFC00
03FFFFFFFC00
03FFFFFFFE00
07FFFFFFFE00
07FFFFFFFE00
0FC000001F00
0F8000001F00
0F8000001F80
1F0000000F80
1F0000000FC0
3F00000007C0
3E00000007C0
3E00000007E0
7C00000003E0
7C00000003F0
FC00000001F0
ENDCHAR
STARTCHAR abreve
ENCODING 259
SWIDTH 573 0
DWIDTH 37 0
BBX 29 46 3 -1
BITMAP
00400200
00E00F00
01FC3F00
01FFFF80
00FFFF00
007FFC00
000FE000
00000000
00000000
00000000
00000000
001FE000
01FFFC00
07FFFF00
0FFFFF80
0FF03FC0
07800FE0
060007E0
000003F0
000001F0
000001F0
000000F0
000000F8
000000F8
007FE0F8
03FFFEF8
07FFFFF8
1FFFFFF8
1FE00FF8
3F0000F8
7E0000F8
7C0000F8
FC0000F8
F80000F8
F80000F8
F80000F8
F80001F8
F80001F8
7C0003F8
7C0007F8
7E000FF8
3F807EF8
1FFFFCF8
0FFFF8F8
03FFE0F8
00FF00F8
ENDCHAR
STARTCHAR Aogonek
ENCODING 260
SWIDTH 755 0
DWIDTH 48 0
BBX 49 57 2 -12
BITMAP
00001F80000000
00001FC0000000
00003FC0000000
00003FC0000000
00003FE0000000
00007FE0000000
00007FF0000000
0000FDF0000000
0000F9F0000000
0001F8F8000000
0001F0F8000000
0001F0FC000000
0003E07C000000
0003E07E000000
0007E03E000000
0007C03E000000
000FC01F000000
000F801F000000
000F801F800000
001F800F800000
001F000FC00000
003F0007C00000
003E0007C00000
003E0007E00000
007C0003E00000
007C0003F00000
00FC0001F00000
00F80001F00000
01F80000F80000
01F00000F80000
01FFFFFFFC0000
03FFFFFFFC0000
03FFFFFFFE0000
07FFFFFFFE0000
07FFFFFFFE0000
0FC000001F0000
0F8000001F0000
0F8000001F8000
1F0000000F8000
1F0000000FC000
3F00000007C000
3E00000007C000
3E00000007E000
7C00000003E000
7C00000003F000
FC00000001F000
0000000003C000
00000000038000
00000000078000
00000000078000
00000000078000
00000000078000
0000000007C100
0000000003FF00
0000000003FF80
0000000001FF80
00000000007E00
ENDCHAR
STARTCHAR aogonek
ENCODING 261
SWIDTH 573 0
DWIDTH 37 0
BBX 33 45 3 -11
BITMAP
001FE00000
01FFFC0000
07FFFF0000
0FFFFF8000
0FF03FC000
07800FE000
060007E000
000003F000
000001F000
000001F000
000000F000
000000F800
000000F800
007FE0F800
03FFFEF800
07FFFFF800
0FFFFFF800
1FE01FF800
3F0000F800
7E0000F800
7C0000F800
780000F800
F80000F800
F80000F800
F80000F800
F80001F800
F80003F800
7C0003F800
7E000FF800
7F001FF800
3FE0FEF800
1FFFFCF800
0FFFF8F800
03FFE0F800
00FF01F800
000003E000
0000038000
0000078000
0000078000
0000038000
000003C100
000003FF80
000001FF80
000000FF80
0000003E00
ENDCHAR
STARTCHAR Cacute
ENCODING 262
SWIDTH 680 0
DWIDTH 44 0
BBX 38 58 3 -1
BITMAP
000000E000
000001F800
000003F000
000007C000
00000F8000
00001F0000
00001E0000
00003C0000
0000780000
0000000000
0000000000
0000000000
00003FE000
0001FFFE00
0007FFFF80
001FFFFFE0
003FFFFFF0
00FFC00FF8
01FE0003FC
03FC0000FC
07F0000078
07E0000010
0FC0000000
1F80000000
1F80000000
3F00000000
3E00000000
3E00000000
7E00000000
7C00000000
7C00000000
7C00000000
FC00000000
F800000000
F800000000
F800000000
F800000000
FC00000000
7C00000000
7C00000000
7C00000000
7E00000000
3E00000000
3E00000000
3F00000000
1F80000000
1F80000000
0FC0000000
07E0000030
03F0000078
03FC0000FC
01FE0003FC
00FF800FF8
003FFFFFF0
001FFFFFE0
0007FFFF80
0001FFFE00
00003FF000
ENDCHAR
STARTCHAR cacute
ENCODING 263
SWIDTH 542 0
DWIDTH 35 0
BBX 29 47 3 -1
BITMAP
00003C00
00007E00
0000FC00
0001F800
0001F000
0003C000
00078000
000F0000
001E0000
00000000
00000000
00000000
0007F800
003FFF00
00FFFFC0
01FFFFE0
03FE1FF8
07F003F0
0FE000E0
1F800040
1F000000
3F000000
3E000000
7C000000
7C000000
FC000000
F8000000
F8000000
F8000000
F8000000
F8000000
F8000000
F8000000
7C000000
7C000000
7C000000
3E000000
3F000000
1F000000
1F800060
0FE000F0
07F003F8
03FE1FF8
01FFFFE0
007FFFC0
003FFF00
0007F800
ENDCHAR
STARTCHAR Ccaron
ENCODING 268
SWIDTH 680 0
DWIDTH 44 0
BBX 38 59 3 -1
BITMAP
0007803C00
0003C03800
0001E07800
0001E0F000
0000F1E000
00007BE000
00007FC000
00003F8000
00001F0000
0000000000
0000000000
0000000000
0000000000
00003FE000
0001FFFE00
0007FFFF80
001FFFFFE0
003FFFFFF0
00FFC00FF8
01FE0003FC
03FC0000FC
07F0000078
07E0000010
0FC0000000
1F80000000
1F80000000
3F00000000
3E00000000
3E00000000
7E00000000
7C00000000
7C00000000
7C00000000
FC00000000
F800000000
F800000000
F800000000
F800000000
FC00000000
7C00000000
7C00000000
7C00000000
7E00000000
3E00000000
3E00000000
3F00000000
1F80000000
1F80000000
0FC0000000
07E0000030
03F0000078
03FC0000FC
01FE0003FC
00FF800FF8
003FFFFFF0
001FFFFFE0
0007FFFF80
0001FFFE00
00003FF000
ENDCHAR
STARTCHAR ccaron
ENCODING 269
SWIDTH 542 0
DWIDTH 35 0
BBX 29 47 3 -1
BITMAP
01E00780
00F00F00
00781E00
003C3C00
003E7C00
001FF800
000FF000
0007E000
0007E000
00000000
00000000
00000000
0007F800
003FFF00
00FFFFC0
01FFFFE0
03FE1FF8
07F003F0
0FE000E0
1F800040
1F000000
3F000000
3E000000
7C000000
7C000000
FC000000
F8000000
F8000000
F8000000
F8000000
F8000000
F8000000
F8000000
7C000000
7C000000
7C000000
3E000000
3F000000
1F000000
1F800060
0FE000F0
07F003F8
03FE1FF8
01FFFFE0
007FFFC0
003FFF00
0007F800
ENDCHAR
STARTCHAR Dcaron
ENCODING 270
SWIDTH 762 0
DWIDTH 49 0
BBX 39 59 6 -1
BITMAP
03C00E0000
01E01E0000
00F03C0000
0078780000
007CF80000
003DF00000
001FE00000
001FC00000
000FC00000
0000000000
0000000000
0000000000
0000000000
FFFFF00000
FFFFFF0000
FFFFFFC000
FFFFFFF000
FFFFFFFC00
F80007FE00
F80000FF00
F800007F80
F800001FC0
F800000FE0
F8000007E0
F8000003F0
F8000001F0
F8000001F8
F8000000F8
F8000000FC
F80000007C
F80000007C
F80000007C
F80000007C
F80000007E
F80000003E
F80000003E
F80000003E
F80000003E
F80000007E
F80000007C
F80000007C
F80000007C
F80000007C
F8000000FC
F8000000F8
F8000001F8
F8000001F0
F8000003F0
F8000007E0
F800000FE0
F800001FC0
F800003F80
F80000FF00
F80007FE00
FFFFFFFC00
FFFFFFF000
FFFFFFC000
FFFFFF0000
FFFFF00000
ENDCHAR
STARTCHAR dcaron
ENCODING 271
SWIDTH 638 0
DWIDTH 41 0
BBX 44 46 3 -1
BITMAP
0000000F81C0
0000000F83E0
0000000F87E0
0000000F87F0
0000000F83F0
0000000F81E0
0000000F80E0
0000000F80E0
0000000F81C0
0000000F83C0
0000000F8380
000FE00F8300
007FFC0F8000
01FFFF0F8000
03FFFF8F8000
07FE3FCF8000
0FF003EF8000
0FC001EF8000
1F8000FF8000
3F00007F8000
3F00003F8000
3E00003F8000
7E00001F8000
7C00001F8000
7C00001F8000
7C00001F8000
7C00000F8000
FC00000F8000
FC00000F8000
FC00000F8000
7C00000F8000
7C00001F8000
7C00001F8000
7C00001F8000
7E00001F8000
3E00003F8000
3F00003F8000
3F00007F8000
1F8000FF8000
0FC001EF8000
0FF007EF8000
07FC1FCF8000
03FFFF8F8000
00FFFF0F8000
007FFC0F8000
000FF00F8000
ENDCHAR
STARTCHAR Dcroat
ENCODING 272
SWIDTH 779 0
DWIDTH 50 0
BBX 43 46 3 -1
BITMAP
0FFFFF000000
0FFFFFF00000
0FFFFFFC0000
0FFFFFFF0000
0FFFFFFFC000
0F80007FE000
0F80000FF000
0F800003F800
0F800001FC00
0F800000FE00
0F8000007E00
0F8000003F00
0F8000001F00
0F8000001F80
0F8000000F80
0F8000000FC0
0F80000007C0
0F80000007C0
0F80000007C0
0F80000007C0
FFFFFC0003E0
FFFFFC0003E0
FFFFFC0003E0
FFFFFC0003E0
FFFFFC0003E0
0F80000003E0
0F80000007E0
0F80000007C0
0F80000007C0
0F80000007C0
0F8000000FC0
0F8000000F80
0F8000001F80
0F8000001F00
0F8000003F00
0F8000007E00
0F800000FE00
0F800001FC00
0F800003F800
0F80000FF000
0F80007FE000
0FFFFFFFC000
0FFFFFFF0000
0FFFFFFC0000
0FFFFFF00000
0FFFFF000000
ENDCHAR
STARTCHAR dcroat
ENCODING 273
SWIDTH 657 0
DWIDTH 42 0
BBX 37 46 3 -1
BITMAP
0000000F80
0000000F80
0000000F80
0000000F80
00007FFFF8
00007FFFF8
00007FFFF8
0000000F80
0000000F80
0000000F80
0000000F80
000FE00F80
007FFC0F80
01FFFF0F80
03FFFF8F80
07FE3FCF80
0FF003EF80
0FC001EF80
1F8000FF80
3F00007F80
3F00003F80
3E00003F80
7E00001F80
7C00001F80
7C00001F80
7C00001F80
7C00000F80
FC00000F80
FC00000F80
FC00000F80
7C00000F80
7C00001F80
7C00001F80
7C00001F80
7E00001F80
3E00003F80
3F00003F80
3F00007F80
1F8000FF80
0FC001EF80
0FF007EF80
07FC1FCF80
03FFFF8F80
00FFFF0F80
007FFC0F80
000FF00F80
ENDCHAR
STARTCHAR Emacron
ENCODING 274
SWIDTH 627 0
DWIDTH 40 0
BBX 32 55 5 -1
BITMAP
03FFFFC0
03FFFFC0
03FFFFC0
03FFFFC0
00000000
00000000
00000000
00000000
00000000
FFFFFFFF
FFFFFFFF
FFFFFFFF
FFFFFFFF
FFFFFFFF
F8000000
F8000000
F8000000
F8000000
F8000000
F8000000
F8000000
F8000000
F8000000
F8000000
F8000000
F8000000
F8000000
F8000000
F8000000
FFFFFFF8
FFFFFFF8
FFFFFFF8
FFFFFFF8
FFFFFFF8
F8000000
F8000000
F8000000
F8000000
F8000000
F8000000
F8000000
F8000000
F8000000
F8000000
F8000000
F8000000
F8000000
F8000000
F8000000
F8000000
FFFFFFFF
FFFFFFFF
FFFFFFFF
FFFFFFFF
FFFFFFFF
ENDCHAR
STARTCHAR emacron
ENCODING 275
SWIDTH 595 0
DWIDTH 38 0
BBX 32 43 3 -1
BITMAP
03FFFFC0
03FFFFC0
03FFFFC0
03FFFFC0
00000000
00000000
00000000
00000000
000FF800
003FFE00
00FFFF80
03FFFFC0
07FC1FE0
0FE003F0
0FC001F8
1F8000F8
3F00007C
3E00003C
7C00003E
7C00001E
7C00001E
F800001F
F800001F
FFFFFFFF
FFFFFFFF
FFFFFFFF
FFFFFFFF
F8000000
F8000000
F8000000
7C000000
7C000000
7C000000
3E000000
3F000000
1F800030
0FC00078
07F001FC
03FC1FFC
01FFFFF0
00FFFFE0
003FFF00
0007F800
ENDCHAR
STARTCHAR Edotaccent
ENCODING 278
SWIDTH 627 0
DWIDTH 40 0
BBX 32 57 5 -1
BITMAP
00038000
0007C000
0007E000
0007E000
0007C000
00038000
00000000
00000000
00000000
00000000
00000000
FFFFFFFF
FFFFFFFF
FFFFFFFF
FFFFFFFF
FFFFFFFF
F8000000
F8000000
F8000000
F8000000
F8000000
F8000000
F8000000
F8000000
F8000000
F8000000
F8000000
F8000000
F8000000
F8000000
F8000000
FFFFFFF8
FFFFFFF8
FFFFFFF8
FFFFFFF8
FFFFFFF8
F8000000
F8000000
F8000000
F8000000
F8000000
F8000000
F8000000
F8000000
F8000000
F8000000
F8000000
F8000000
F8000000
F8000000
F8000000
F8000000
FFFFFFFF
FFFFFFFF
FFFFFFFF
FFFFFFFF
FFFFFFFF
ENDCHAR
STARTCHAR edotaccent
ENCODING 279
SWIDTH 595 0
DWIDTH 38 0
BBX 32 46 3 -1
BITMAP
0001C000
0003E000
0007E000
0007E000
0003E000
0001C000
00000000
00000000
00000000
00000000
00000000
000FF800
003FFE00
00FFFF80
03FFFFC0
07FC1FE0
0FE003F0
0FC001F8
1F8000F8
3F00007C
3E00003C
7C00003E
7C00001E
7C00001E
F800001F
F800001F
FFFFFFFF
FFFFFFFF
FFFFFFFF
FFFFFFFF
F8000000
F8000000
F8000000
7C000000
7C000000
7C000000
3E000000
3F000000
1F800030
0FC00078
07F001FC
03FC1FFC
01FFFFF0
00FFFFE0
003FFF00
0007F800
ENDCHAR
STARTCHAR Eogonek
ENCODING 280
SWIDTH 627 0
DWIDTH 40 0
BBX 32 57 5 -12
BITMAP
FFFFFFFF
FFFFFFFF
FFFFFFFF
FFFFFFFF
FFFFFFFF
F8000000
F8000000
F8000000
F8000000
F8000000
F8000000
F8000000
F8000000
F8000000
F8000000
F8000000
F8000000
F8000000
F8000000
F8000000
FFFFFFF8
FFFFFFF8
FFFFFFF8
FFFFFFF8
FFFFFFF8
F8000000
F8000000
F8000000
F8000000
F8000000
F8000000
F8000000
F8000000
F8000000
F8000000
F8000000
F8000000
F8000000
F8000000
F8000000
F8000000
FFFFFFFF
FFFFFFFF
FFFFFFFF
FFFFFFFF
FFFFFFFF
00000F80
00000E00
00001E00
00001E00
00001E00
00001E00
00000F04
00000FFE
000007FE
000003FE
000001F8
ENDCHAR
STARTCHAR eogonek
ENCODING 281
SWIDTH 595 0
DWIDTH 38 0
BBX 32 44 3 -10
BITMAP
000FF800
003FFE00
00FFFF80
03FFFFC0
07FC1FE0
0FE003F0
0FC001F8
1F8000F8
3F00007C
3E00003C
7C00003E
7C00001E
7C00001E
F800001F
F800001F
FFFFFFFF
FFFFFFFF
FFFFFFFF
FFFFFFFF
F8000000
F8000000
F8000000
7C000000
7C000000
7C000000
3E000000
3F000000
1F800030
0FC00078
07F001FC
03FC1FFC
01FFFFF0
00FFFFE0
003FFF80
0007FC00
00003C00
00003800
00003800
00003C00
00003E00
00003FF8
00001FFC
00000FFC
000003F0
ENDCHAR
STARTCHAR Ecaron
ENCODING 282
SWIDTH 627 0
DWIDTH 40 0
BBX 32 59 5 -1
BITMAP
01E00700
00F00F00
00781E00
003C3C00
003E7C00
001EF800
000FF000
000FE000
0007E000
00000000
00000000
00000000
00000000
FFFFFFFF
FFFFFFFF
FFFFFFFF
FFFFFFFF
FFFFFFFF
F8000000
F8000000
F8000000
F8000000
F8000000
F8000000
F8000000
F8000000
F8000000
F8000000
F8000000
F8000000
F8000000
F8000000
F8000000
FFFFFFF8
FFFFFFF8
FFFFFFF8
FFFFFFF8
FFFFFFF8
F8000000
F8000000
F8000000
F8000000
F8000000
F8000000
F8000000
F8000000
F8000000
F8000000
F8000000
F8000000
F8000000
F8000000
F8000000
F8000000
FFFFFFFF
FFFFFFFF
FFFFFFFF
FFFFFFFF
FFFFFFFF
ENDCHAR
STARTCHAR ecaron
ENCODING 283
SWIDTH 595 0
DWIDTH 38 0
BBX 32 47 3 -1
BITMAP
00F00780
00780F00
00781E00
003C3E00
001E3C00
000F7800
000FF000
0007F000
0003E000
00000000
00000000
00000000
000FF800
003FFE00
00FFFF80
03FFFFC0
07FC1FE0
0FE003F0
0FC001F8
1F8000F8
3F00007C
3E00003C
7C00003E
7C00001E
7C00001E
F800001F
F800001F
FFFFFFFF
FFFFFFFF
FFFFFFFF
FFFFFFFF
F8000000
F8000000
F8000000
7C000000
7C000000
7C000000
3E000000
3F000000
1F800030
0FC00078
07F001FC
03FC1FFC
01FFFFF0
00FFFFE0
003FFF00
0007F800
ENDCHAR
STARTCHAR Gbreve
ENCODING 286
SWIDTH 745 0
DWIDTH 48 0
BBX 40 57 3 -1
BITMAP
0000800000
0001C00C00
0003F03E00
0003FFFF00
0001FFFE00
0000FFF800
00001FE000
0000000000
0000000000
0000000000
0000000000
00003FF000
0001FFFE00
0007FFFFC0
001FFFFFF0
003FFFFFF8
00FFC00FFC
01FE0001FF
03FC00007E
07F000001C
07E0000008
0FC0000000
1F80000000
1F80000000
3F00000000
3E00000000
3E00000000
7E00000000
7C00000000
7C00000000
7C00000000
FC00000000
F800000000
F80003FFFF
F80003FFFF
F80003FFFF
FC0003FFFF
7C0003FFFF
7C0000001F
7C0000001F
7C0000001F
3E0000001F
3E0000001F
3F0000001F
1F8000001F
1F8000001F
0FC000001F
07E000001F
07F000001F
03F800007F
01FE0001FF
00FFC00FFE
003FFFFFF8
001FFFFFF0
0007FFFFC0
0001FFFE00
00003FF000
ENDCHAR
STARTCHAR gbreve
ENCODING 287
SWIDTH 636 0
DWIDTH 41 0
BBX 32 56 3 -11
BITMAP
00100080
003803C0
007E0FE0
007FFFE0
003FFFC0
000FFF00
0003FC00
00000000
00000000
00000000
00000000
001FE00F
007FFC0F
01FFFF0F
07FFFF8F
0FFC3FCF
0FE003EF
1FC001FF
3F0000FF
3F00007F
7E00003F
7C00001F
7C00001F
7C00001F
F800001F
F800000F
F800000F
F800000F
FC00001F
7C00001F
7C00001F
7C00001F
7E00003F
3E00007F
3F00007F
1F8000FF
1FE003EF
0FF80FCF
07FFFF8F
03FFFF0F
00FFFE0F
003FF80F
0000001F
0000001F
0000001F
0000001F
0000003E
0000003E
0C00007E
0E0000FC
1F8003F8
1FF83FF0
0FFFFFE0
03FFFFC0
00FFFF00
001FF800
ENDCHAR
STARTCHAR Gcommaaccent
ENCODING 290
SWIDTH 745 0
DWIDTH 48 0
BBX 40 62 3 -17
BITMAP
00003FF000
0001FFFE00
0007FFFFC0
001FFFFFF0
003FFFFFF8
00FFC00FFC
01FE0001FF
03FC00007E
07F000001C
07E0000008
0FC0000000
1F80000000
1F80000000
3F00000000
3E00000000
3E00000000
7E00000000
7C00000000
7C00000000
7C00000000
FC00000000
F800000000
F80003FFFF
F80003FFFF
F80003FFFF
FC0003FFFF
7C0003FFFF
7C0000001F
7C0000001F
7C0000001F
3E0000001F
3E0000001F
3F0000001F
1F8000001F
1F8000001F
0FC000001F
07E000001F
07F000001F
03F800007F
01FE0001FF
00FFC00FFE
003FFFFFF8
001FFFFFF0
0007FFFFC0
0001FFFE00
00003FF000
0000000000
0000000000
0000000000
0000000000
0000070000
00000F8000
00000FC000
00000FC000
00000FC000
000007C000
000003C000
0000038000
0000038000
0000070000
00000E0000
00000E0000
ENDCHAR
STARTCHAR gcommaaccent
ENCODING 291
SWIDTH 636 0
DWIDTH 41 0
BBX 32 62 3 -11
BITMAP
00006000
0000E000
0000E000
0001C000
0003C000
00038000
0003E000
0003E000
0003F000
0003F000
0003E000
0000C000
00000000
00000000
00000000
00000000
00000000
001FE00F
007FFC0F
01FFFF0F
07FFFF8F
0FFC3FCF
0FE003EF
1FC001FF
3F0000FF
3F00007F
7E00003F
7C00001F
7C00001F
7C00001F
F800001F
F800000F
F800000F
F800000F
FC00001F
7C00001F
7C00001F
7C00001F
7E00003F
3E00007F
3F00007F
1F8000FF
1FE003EF
0FF80FCF
07FFFF8F
03FFFF0F
00FFFE0F
003FF80F
0000001F
0000001F
0000001F
0000001F
0000003E
0000003E
0C00007E
0E0000FC
1F8003F8
1FF83FF0
0FFFFFE0
03FFFFC0
00FFFF00
001FF800
ENDCHAR
STARTCHAR Imacron
ENCODING 298
SWIDTH 236 0
DWIDTH 15 0
BBX 19 55 -2 -1
BITMAP
FFFFE0
FFFFE0
FFFFE0
FFFFE0
000000
000000
000000
000000
000000
01F000
01F000
01F000
01F000
01F000
01F000
01F000
01F000
01F000
01F000
01F000
01F000
01F000
01F000
01F000
01F000
01F000
01F000
01F000
01F000
01F000
01F000
01F000
01F000
01F000
01F000
01F000
01F000
01F000
01F000
01F000
01F000
01F000
01F000
01F000
01F000
01F000
01F000
01F000
01F000
01F000
01F000
01F000
01F000
01F000
01F000
ENDCHAR
STARTCHAR imacron
ENCODING 299
SWIDTH 225 0
DWIDTH 14 0
BBX 20 44 -3 -1
BITMAP
FFFFF0
FFFFF0
FFFFF0
FFFFF0
000000
000000
000000
000000
000000
00F800
00F800
00F800
00F800
00F800
00F800
00F800
00F800
00F800
00F800
00F800
00F800
00F800
00F800
00F800
00F800
00F800
00F800
00F800
00F800
00F800
00F800
00F800
00F800
00F800
00F800
00F800
00F800
00F800
00F800
00F800
00F800
00F800
00F800
00F800
ENDCHAR
STARTCHAR Iogonek
ENCODING 302
SWIDTH 236 0
DWIDTH 15 0
BBX 12 57 3 -12
BITMAP
3E00
3E00
3E00
3E00
3E00
3E00
3E00
3E00
3E00
3E00
3E00
3E00
3E00
3E00
3E00
3E00
3E00
3E00
3E00
3E00
3E00
3E00
3E00
3E00
3E00
3E00
3E00
3E00
3E00
3E00
3E00
3E00
3E00
3E00
3E00
3E00
3E00
3E00
3E00
3E00
3E00
3E00
3E00
3E00
3E00
3E00
7800
F000
E000
E000
E000
F000
F840
FFE0
7FF0
3FF0
0FC0
ENDCHAR
STARTCHAR iogonek
ENCODING 303
SWIDTH 225 0
DWIDTH 14 0
BBX 12 57 0 -12
BITMAP
0380
07C0
0FC0
0FC0
07C0
0380
0000
0000
0000
0000
0000
07C0
07C0
07C0
07C0
07C0
07C0
07C0
07C0
07C0
07C0
07C0
07C0
07C0
07C0
07C0
07C0
07C0
07C0
07C0
07C0
07C0
07C0
07C0
07C0
07C0
07C0
07C0
07C0
07C0
07C0
07C0
07C0
07C0
07C0
3FC0
7800
7000
F000
F000
F000
F000
F820
7FE0
7FF0
3FF0
0FC0
ENDCHAR
STARTCHAR Idotaccent
ENCODING 304
SWIDTH 236 0
DWIDTH 15 0
BBX 5 57 5 -1
BITMAP
70
F8
F8
F8
F8
70
00
00
00
00
00
F8
F8
F8
F8
F8
F8
F8
F8
F8
F8
F8
F8
F8
F8
F8
F8
F8
F8
F8
F8
F8
F8
F8
F8
F8
F8
F8
F8
F8
F8
F8
F8
F8
F8
F8
F8
F8
F8
F8
F8
F8
F8
F8
F8
F8
F8
ENDCHAR
STARTCHAR dotlessi
ENCODING 305
SWIDTH 225 0
DWIDTH 14 0
BBX 5 35 5 -1
BITMAP
F8
F8
F8
F8
F8
F8
F8
F8
F8
F8
F8
F8
F8
F8
F8
F8
F8
F8
F8
F8
F8
F8
F8
F8
F8
F8
F8
F8
F8
F8
F8
F8
F8
F8
F8
ENDCHAR
STARTCHAR Kcommaaccent
ENCODING 310
SWIDTH 660 0
DWIDTH 42 0
BBX 35 63 6 -18
BITMAP
F800001F80
F800003F00
F800007F00
F80000FE00
F80001FC00
F80003F800
F80007F000
F80007E000
F8000FC000
F8001F8000
F8003F8000
F8007F0000
F800FE0000
F801FC0000
F803F80000
F803F00000
F807E00000
F80FC00000
F81F800000
F83F800000
F87F000000
F8FF000000
F9FF000000
F9FF800000
FBFFC00000
FFEFE00000
FFC7F00000
FF83F00000
FF01F80000
FE00FC0000
FC00FE0000
FC007F0000
F8003F0000
F8001F8000
F8000FC000
F8000FE000
F80007E000
F80003F000
F80001F800
F80001FC00
F80000FE00
F800007E00
F800003F00
F800001F80
F800001FC0
F800000FE0
0000000000
0000000000
0000000000
0000000000
0000000000
0003800000
0007C00000
0007E00000
0007E00000
0007E00000
0003E00000
0000E00000
0001C00000
0001C00000
0003800000
0007800000
0003000000
ENDCHAR
STARTCHAR kcommaaccent
ENCODING 311
SWIDTH 543 0
DWIDTH 35 0
BBX 28 63 5 -18
BITMAP
F8000000
F8000000
F8000000
F8000000
F8000000
F8000000
F8000000
F8000000
F8000000
F8000000
F8000000
F80003F0
F80007E0
F8000FE0
F8001FC0
F8003F80
F8003F00
F8007E00
F800FC00
F801F800
F803F000
F807E000
F80FC000
F81F8000
F83F0000
F87E0000
F8FC0000
F9FC0000
FBFE0000
FFFF0000
FFFF8000
FFDF8000
FF8FC000
FF07E000
FE07E000
FC03F000
F801F800
F800FC00
F800FC00
F8007E00
F8003F00
F8001F80
F8001F80
F8000FC0
F80007E0
F80003F0
00000000
00000000
00000000
00000000
00000000
001C0000
003E0000
003F0000
003F0000
003F0000
001F0000
000F0000
000E0000
000E0000
001C0000
00380000
00380000
ENDCHAR
STARTCHAR Lacute
ENCODING 313
SWIDTH 555 0
DWIDTH 36 0
BBX 29 59 4 -1
BITMAP
00E00000
01F80000
01F00000
03E00000
07C00000
0F800000
1F000000
3E000000
3C000000
40000000
00000000
00000000
00000000
F8000000
F8000000
F8000000
F8000000
F8000000
F8000000
F8000000
F8000000
F8000000
F8000000
F8000000
F8000000
F8000000
F8000000
F8000000
F8000000
F8000000
F8000000
F8000000
F8000000
F8000000
F8000000
F8000000
F8000000
F8000000
F8000000
F8000000
F8000000
F8000000
F8000000
F8000000
F8000000
F8000000
F8000000
F8000000
F8000000
F8000000
F8000000
F8000000
F8000000
F8000000
FFFFFFF8
FFFFFFF8
FFFFFFF8
FFFFFFF8
FFFFFFF8
ENDCHAR
STARTCHAR lacute
ENCODING 314
SWIDTH 227 0
DWIDTH 15 0
BBX 13 59 5 -1
BITMAP
00C0
01F8
03F0
07E0
0F80
0F00
1E00
3C00
7800
0000
0000
0000
0000
F800
F800
F800
F800
F800
F800
F800
F800
F800
F800
F800
F800
F800
F800
F800
F800
F800
F800
F800
F800
F800
F800
F800
F800
F800
F800
F800
F800
F800
F800
F800
F800
F800
F800
F800
F800
F800
F800
F800
F800
F800
F800
F800
F800
F800
F800
ENDCHAR
STARTCHAR Lcaron
ENCODING 317
SWIDTH 555 0
DWIDTH 36 0
BBX 29 46 4 -1
BITMAP
F81E0000
F83F0000
F83F0000
F83F0000
F81F0000
F80F0000
F8070000
F80F0000
F80E0000
F81C0000
F81C0000
F8180000
F8000000
F8000000
F8000000
F8000000
F8000000
F8000000
F8000000
F8000000
F8000000
F8000000
F8000000
F8000000
F8000000
F8000000
F8000000
F8000000
F8000000
F8000000
F8000000
F8000000
F8000000
F8000000
F8000000
F8000000
F8000000
F8000000
F8000000
F8000000
F8000000
FFFFFFF8
FFFFFFF8
FFFFFFF8
FFFFFFF8
FFFFFFF8
ENDCHAR
STARTCHAR lcaron
ENCODING 318
SWIDTH 227 0
DWIDTH 15 0
BBX 16 46 5 -1
BITMAP
F81C
F83E
F87E
F83F
F83F
F81F
F80E
F80E
F81C
F81C
F838
F830
F800
F800
F800
F800
F800
F800
F800
F800
F800
F800
F800
F800
F800
F800
F800
F800
F800
F800
F800
F800
F800
F800
F800
F800
F800
F800
F800
F800
F800
F800
F800
F800
F800
F800
ENDCHAR
STARTCHAR Lslash
ENCODING 321
SWIDTH 607 0
DWIDTH 39 0
BBX 35 46 2 -1
BITMAP
03E0000000
03E0000000
03E0000000
03E0000000
03E0000000
03E0000000
03E0000000
03E0000000
03E0000000
03E0000000
03E0000000
03E0000000
03E0000000
03E0000000
03E0000000
03E0100000
03E0700000
03E1F00000
03E7F00000
03FFF00000
03FFE00000
03FF800000
03FE000000
0FF8000000
3FE0000000
FFE0000000
FFE0000000
FFE0000000
F3E0000000
C3E0000000
03E0000000
03E0000000
03E0000000
03E0000000
03E0000000
03E0000000
03E0000000
03E0000000
03E0000000
03E0000000
03E0000000
03FFFFFFE0
03FFFFFFE0
03FFFFFFE0
03FFFFFFE0
03FFFFFFE0
ENDCHAR
STARTCHAR lslash
ENCODING 322
SWIDTH 307 0
DWIDTH 20 0
BBX 15 46 2 -1
BITMAP
07C0
07C0
07C0
07C0
07C0
07C0
07C0
07C0
07C0
07C0
07C0
07C0
07C0
07C0
07C0
07C0
07C0
07C0
07C2
07CE
07FE
07FE
07FE
0FFC
1FF0
7FC0
FFC0
FFC0
F7C0
C7C0
87C0
07C0
07C0
07C0
07C0
07C0
07C0
07C0
07C0
07C0
07C0
07C0
07C0
07C0
07C0
07C0
ENDCHAR
STARTCHAR Nacute
ENCODING 323
SWIDTH 770 0
DWIDTH 49 0
BBX 37 59 6 -1
BITMAP
0000060000
00000FC000
00001F8000
00003F0000
00007E0000
0000780000
0000F00000
0001E00000
0003C00000
0000000000
0000000000
0000000000
0000000000
F8000000F8
FC000000F8
FE000000F8
FF000000F8
FF000000F8
FF800000F8
FFC00000F8
FFC00000F8
FFE00000F8
FBF00000F8
FBF80000F8
F9F80000F8
F8FC0000F8
F87E0000F8
F87F0000F8
F83F0000F8
F81F8000F8
F81FC000F8
F80FC000F8
F807E000F8
F803F000F8
F803F800F8
F801F800F8
F800FC00F8
F8007E00F8
F8007F00F8
F8003F00F8
F8001F80F8
F8001FC0F8
F8000FE0F8
F80007E0F8
F80003F0F8
F80003F8F8
F80001F8F8
F80000FCF8
F800007EF8
F800007FF8
F800003FF8
F800001FF8
F800000FF8
F800000FF8
F8000007F8
F8000003F8
F8000003F8
F8000001F8
F8000000F8
ENDCHAR
STARTCHAR nacute
ENCODING 324
SWIDTH 592 0
DWIDTH 38 0
BBX 28 47 5 -1
BITMAP
00007800
0000FC00
0001F800
0001F000
0003E000
0007C000
000F0000
001E0000
003C0000
00000000
00000000
00000000
F80FE000
F87FFC00
F8FFFE00
F9FFFF00
FBF87F80
FFC01FC0
FF000FE0
FE0007E0
FC0003E0
FC0003F0
F80001F0
F80001F0
F80001F0
F80001F0
F80001F0
F80001F0
F80001F0
F80001F0
F80001F0
F80001F0
F80001F0
F80001F0
F80001F0
F80001F0
F80001F0
F80001F0
F80001F0
F80001F0
F80001F0
F80001F0
F80001F0
F80001F0
F80001F0
F80001F0
F80001F0
ENDCHAR
STARTCHAR Ncommaaccent
ENCODING 325
SWIDTH 770 0
DWIDTH 49 0
BBX 37 63 6 -18
BITMAP
F8000000F8
FC000000F8
FE000000F8
FF000000F8
FF000000F8
FF800000F8
FFC00000F8
FFC00000F8
FFE00000F8
FBF00000F8
FBF80000F8
F9F80000F8
F8FC0000F8
F87E0000F8
F87F0000F8
F83F0000F8
F81F8000F8
F81FC000F8
F80FC000F8
F807E000F8
F803F000F8
F803F800F8
F801F800F8
F800FC00F8
F8007E00F8
F8007F00F8
F8003F00F8
F8001F80F8
F8001FC0F8
F8000FE0F8
F80007E0F8
F80003F0F8
F80003F8F8
F80001F8F8
F80000FCF8
F800007EF8
F800007FF8
F800003FF8
F800001FF8
F800000FF8
F800000FF8
F8000007F8
F8000003F8
F8000003F8
F8000001F8
F8000000F8
0000000000
0000000000
0000000000
0000000000
0000000000
0000700000
0000F80000
0000FC0000
0000FC0000
0000FC0000
00007C0000
00003C0000
0000380000
0000380000
0000700000
0000E00000
0000E00000
ENDCHAR
STARTCHAR ncommaaccent
ENCODING 326
SWIDTH 592 0
DWIDTH 38 0
BBX 28 52 5 -18
BITMAP
F80FE000
F87FFC00
F8FFFE00
F9FFFF00
FBF87F80
FFC01FC0
FF000FE0
FE0007E0
FC0003E0
FC0003F0
F80001F0
F80001F0
F80001F0
F80001F0
F80001F0
F80001F0
F80001F0
F80001F0
F80001F0
F80001F0
F80001F0
F80001F0
F80001F0
F80001F0
F80001F0
F80001F0
F80001F0
F80001F0
F80001F0
F80001F0
F80001F0
F80001F0
F80001F0
F80001F0
F80001F0
00000000
00000000
00000000
00000000
00000000
00030000
0007C000
000FC000
000FC000
000FC000
0007C000
0001C000
0003C000
00038000
00070000
00070000
00060000
ENDCHAR
STARTCHAR Ncaron
ENCODING 327
SWIDTH 770 0
DWIDTH 49 0
BBX 37 59 6 -1
BITMAP
003C01E000
001E01C000
000F03C000
000F078000
00078F0000
0003DF0000
0003FE0000
0001FC0000
0000F80000
0000000000
0000000000
0000000000
0000000000
F8000000F8
FC000000F8
FE000000F8
FF000000F8
FF000000F8
FF800000F8
FFC00000F8
FFC00000F8
FFE00000F8
FBF00000F8
FBF80000F8
F9F80000F8
F8FC0000F8
F87E0000F8
F87F0000F8
F83F0000F8
F81F8000F8
F81FC000F8
F80FC000F8
F807E000F8
F803F000F8
F803F800F8
F801F800F8
F800FC00F8
F8007E00F8
F8007F00F8
F8003F00F8
F8001F80F8
F8001FC0F8
F8000FE0F8
F80007E0F8
F80003F0F8
F80003F8F8
F80001F8F8
F80000FCF8
F800007EF8
F800007FF8
F800003FF8
F800001FF8
F800000FF8
F800000FF8
F8000007F8
F8000003F8
F8000003F8
F8000001F8
F8000000F8
ENDCHAR
STARTCHAR ncaron
ENCODING 328
SWIDTH 592 0
DWIDTH 38 0
BBX 28 47 5 -1
BITMAP
01C00F00
01E01E00
00F03C00
00787800
007CF800
003FF000
001FE000
000FC000
000FC000
00000000
00000000
00000000
F80FE000
F87FFC00
F8FFFE00
F9FFFF00
FBF87F80
FFC01FC0
FF000FE0
FE0007E0
FC0003E0
FC0003F0
F80001F0
F80001F0
F80001F0
F80001F0
F80001F0
F80001F0
F80001F0
F80001F0
F80001F0
F80001F0
F80001F0
F80001F0
F80001F0
F80001F0
F80001F0
F80001F0
F80001F0
F80001F0
F80001F0
F80001F0
F80001F0
F80001F0
F80001F0
F80001F0
F80001F0
ENDCHAR
STARTCHAR Omacron
ENCODING 332
SWIDTH 807 0
DWIDTH 52 0
BBX 45 54 3 -1
BITMAP
0007FFFF8000
0007FFFF8000
0007FFFF8000
0007FFFF8000
000000000000
000000000000
000000000000
000000000000
00003FE00000
0001FFFE0000
0007FFFF8000
001FFFFFE000
003FFFFFF000
00FFC00FF800
01FE0003FC00
03FC0000FE00
07F000007F00
07E000001F80
0FC000001FC0
1F8000000FC0
1F80000007E0
3F00000003E0
3E00000003F0
3E00000001F0
7E00000001F0
7C00000001F8
7C00000000F8
7C00000000F8
FC00000000F8
F800000000F8
F800000000F8
F800000000F8
F800000000F8
FC00000000F8
7C00000000F8
7C00000000F8
7C00000001F8
7E00000001F0
3E00000001F0
3E00000003F0
3F00000003E0
1F80000007E0
1F8000000FC0
0FC000001FC0
07E000003F80
03F000007F00
03FC0000FE00
01FE0003FC00
00FF800FF800
003FFFFFF000
001FFFFFE000
0007FFFF8000
0001FFFE0000
00003FE00000
ENDCHAR
STARTCHAR omacron
ENCODING 333
SWIDTH 631 0
DWIDTH 40 0
BBX 34 43 3 -1
BITMAP
01FFFFE000
01FFFFE000
01FFFFE000
01FFFFE000
0000000000
0000000000
0000000000
0000000000
0007F80000
003FFF0000
00FFFFC000
01FFFFE000
03FE1FF800
07F003FC00
0FE000FC00
1F80007E00
1F00003F00
3F00001F00
3E00001F80
7C00000F80
7C00000FC0
FC000007C0
F8000007C0
F8000007C0
F8000007C0
F8000007C0
F8000007C0
F8000007C0
F8000007C0
7C000007C0
7C00000FC0
7C00000F80
3E00001F80
3F00001F00
1F00003F00
1F80007E00
0FE000FC00
07F003FC00
03FE1FF800
01FFFFE000
007FFFC000
003FFF0000
0007F80000
ENDCHAR
STARTCHAR Ohungarumlaut
ENCODING 336
SWIDTH 807 0
DWIDTH 52 0
BBX 45 58 3 -1
BITMAP
000007803800
00000FC07E00
00001F80FC00
00001F01F800
00003E01F000
00007C03C000
0000F0078000
0001E00F0000
0003C01E0000
000000000000
000000000000
000000000000
00003FE00000
0001FFFE0000
0007FFFF8000
001FFFFFE000
003FFFFFF000
00FFC00FF800
01FE0003FC00
03FC0000FE00
07F000007F00
07E000001F80
0FC000001FC0
1F8000000FC0
1F80000007E0
3F00000003E0
3E00000003F0
3E00000001F0
7E00000001F0
7C00000001F8
7C00000000F8
7C00000000F8
FC00000000F8
F800000000F8
F800000000F8
F800000000F8
F800000000F8
FC00000000F8
7C00000000F8
7C00000000F8
7C00000001F8
7E00000001F0
3E00000001F0
3E00000003F0
3F00000003E0
1F80000007E0
1F8000000FC0
0FC000001FC0
07E000003F80
03F000007F00
03FC0000FE00
01FE0003FC00
00FF800FF800
003FFFFFF000
001FFFFFE000
0007FFFF8000
0001FFFE0000
00003FE00000
ENDCHAR
STARTCHAR ohungarumlaut
ENCODING 337
SWIDTH 631 0
DWIDTH 40 0
BBX 34 47 3 -1
BITMAP
0000E00700
0001F80FC0
0003F01F80
0007E03E00
000F807C00
000F00F800
001E00F000
003C01E000
007803C000
0000000000
0000000000
0000000000
0007F80000
003FFF0000
00FFFFC000
01FFFFE000
03FE1FF800
07F003FC00
0FE000FC00
1F80007E00
1F00003F00
3F00001F00
3E00001F80
7C00000F80
7C00000FC0
FC000007C0
F8000007C0
F8000007C0
F8000007C0
F8000007C0
F8000007C0
F8000007C0
F8000007C0
7C000007C0
7C00000FC0
7C00000F80
3E00001F80
3F00001F00
1F00003F00
1F80007E00
0FE000FC00
07F003FC00
03FE1FF800
01FFFFE000
007FFFC000
003FFF0000
0007F80000
ENDCHAR
STARTCHAR OE
ENCODING 338
SWIDTH 1032 0
DWIDTH 66 0
BBX 60 46 3 -1
BITMAP
00003FFFFFFFFFF0
0001FFFFFFFFFFF0
0007FFFFFFFFFFF0
001FFFFFFFFFFFF0
003FFFFFFFFFFFF0
00FFC00F80000000
01FE000F80000000
03FC000F80000000
03F0000F80000000
07E0000F80000000
0FC0000F80000000
0FC0000F80000000
1F80000F80000000
3F00000F80000000
3F00000F80000000
3E00000F80000000
7E00000F80000000
7C00000F80000000
7C00000F80000000
7C00000F80000000
FC00000FFFFFFF80
F800000FFFFFFF80
F800000FFFFFFF80
F800000FFFFFFF80
F800000FFFFFFF80
F800000F80000000
FC00000F80000000
7C00000F80000000
7C00000F80000000
7C00000F80000000
7E00000F80000000
3E00000F80000000
3F00000F80000000
3F00000F80000000
1F80000F80000000
0FC0000F80000000
0FE0000F80000000
07F0000F80000000
03F8000F80000000
01FE000F80000000
00FF800F80000000
007FFFFFFFFFFFF0
003FFFFFFFFFFFF0
000FFFFFFFFFFFF0
0003FFFFFFFFFFF0
00003FFFFFFFFFF0
ENDCHAR
STARTCHAR oe
ENCODING 339
SWIDTH 1052 0
DWIDTH 67 0
BBX 61 35 3 -1
BITMAP
0007F800003FC000
003FFF0001FFF800
00FFFFC007FFFC00
01FFFFE00FFFFE00
03FE1FF81FF0FF80
07F003FC3F801F80
0FE000FC7E000FC0
1F80007EFC0007E0
1F00003FF80003E0
3F00001FF00001F0
3E00001FF00001F0
7C00000FE00000F0
7C00000FE00000F8
FC000007E00000F8
F8000007C00000F8
F8000007FFFFFFF8
F8000007FFFFFFF8
F8000007FFFFFFF8
F8000007FFFFFFF8
F8000007C0000000
F8000007C0000000
7C000007E0000000
7C00000FE0000000
7C00000FE0000000
3E00001FF0000000
3F00001FF0000000
1F00003FF8000000
1F80007EFC000080
0FE000FC7E0003C0
07F003FC3F800FE0
03FE1FF81FF0FFE0
01FFFFE00FFFFFC0
007FFFC007FFFF00
003FFF0001FFFC00
0007F800003FC000
ENDCHAR
STARTCHAR Racute
ENCODING 340
SWIDTH 650 0
DWIDTH 42 0
BBX 34 59 5 -1
BITMAP
0000180000
00003F0000
00007E0000
0000F80000
0001F00000
0003E00000
0003C00000
0007800000
000F000000
0000000000
0000000000
0000000000
0000000000
FFFFFC0000
FFFFFF8000
FFFFFFE000
FFFFFFF800
FFFFFFFC00
F80003FE00
F800007F00
F800003F00
F800001F80
F800000F80
F800000FC0
F8000007C0
F8000007C0
F8000007C0
F8000007C0
F8000007C0
F8000007C0
F8000007C0
F800000FC0
F800000F80
F800001F80
F800003F00
F80000FF00
F80003FE00
FFFFFFFC00
FFFFFFF800
FFFFFFE000
FFFFFFC000
FFFFFE0000
F8007E0000
F8003E0000
F8003F0000
F8001F8000
F8000F8000
F8000FC000
F80007E000
F80003E000
F80003F000
F80001F800
F80000F800
F80000FC00
F800007E00
F800003E00
F800003F00
F800001F80
F800001F80
ENDCHAR
STARTCHAR racute
ENCODING 341
SWIDTH 386 0
DWIDTH 25 0
BBX 18 47 5 -1
BITMAP
001E00
001F80
003E00
007C00
00F800
01F000
03E000
03C000
078000
000000
000000
000000
F803C0
F81FC0
F87FC0
F8FFC0
F9FE00
FBF000
FFC000
FF8000
FF0000
FE0000
FC0000
FC0000
FC0000
F80000
F80000
F80000
F80000
F80000
F80000
F80000
F80000
F80000
F80000
F80000
F80000
F80000
F80000
F80000
F80000
F80000
F80000
F80000
F80000
F80000
F80000
ENDCHAR
STARTCHAR Rcommaaccent
ENCODING 342
SWIDTH 650 0
DWIDTH 42 0
BBX 34 63 5 -18
BITMAP
FFFFFC0000
FFFFFF8000
FFFFFFE000
FFFFFFF800
FFFFFFFC00
F80003FE00
F800007F00
F800003F00
F800001F80
F800000F80
F800000FC0
F8000007C0
F8000007C0
F8000007C0
F8000007C0
F8000007C0
F8000007C0
F8000007C0
F800000FC0
F800000F80
F800001F80
F800003F00
F80000FF00
F80003FE00
FFFFFFFC00
FFFFFFF800
FFFFFFE000
FFFFFFC000
FFFFFE0000
F8007E0000
F8003E0000
F8003F0000
F8001F8000
F8000F8000
F8000FC000
F80007E000
F80003E000
F80003F000
F80001F800
F80000F800
F80000FC00
F800007E00
F800003E00
F800003F00
F800001F80
F800001F80
0000000000
0000000000
0000000000
0000000000
0000000000
0003800000
0007C00000
000FC00000
000FE00000
0007E00000
0003E00000
0001C00000
0001C00000
0003800000
0003800000
0007000000
0006000000
ENDCHAR
STARTCHAR rcommaaccent
ENCODING 343
SWIDTH 386 0
DWIDTH 25 0
BBX 18 52 5 -18
BITMAP
F803C0
F81FC0
F87FC0
F8FFC0
F9FE00
FBF000
FFC000
FF8000
FF0000
FE0000
FC0000
FC0000
FC0000
F80000
F80000
F80000
F80000
F80000
F80000
F80000
F80000
F80000
F80000
F80000
F80000
F80000
F80000
F80000
F80000
F80000
F80000
F80000
F80000
F80000
F80000
000000
000000
000000
000000
000000
0C0000
1F0000
3F0000
3F0000
1F0000
1F0000
070000
070000
0E0000
1E0000
1C0000
180000
ENDCHAR
STARTCHAR Rcaron
ENCODING 344
SWIDTH 650 0
DWIDTH 42 0
BBX 34 59 5 -1
BITMAP
00F0078000
00700F0000
00781F0000
003C1E0000
001E3C0000
001F780000
000FF80000
0007F00000
0003E00000
0000000000
0000000000
0000000000
0000000000
FFFFFC0000
FFFFFF8000
FFFFFFE000
FFFFFFF800
FFFFFFFC00
F80003FE00
F800007F00
F800003F00
F800001F80
F800000F80
F800000FC0
F8000007C0
F8000007C0
F8000007C0
F8000007C0
F8000007C0
F8000007C0
F8000007C0
F800000FC0
F800000F80
F800001F80
F800003F00
F80000FF00
F80003FE00
FFFFFFFC00
FFFFFFF800
FFFFFFE000
FFFFFFC000
FFFFFE0000
F8007E0000
F8003E0000
F8003F0000
F8001F8000
F8000F8000
F8000FC000
F80007E000
F80003E000
F80003F000
F80001F800
F80000F800
F80000FC00
F800007E00
F800003E00
F800003F00
F800001F80
F800001F80
ENDCHAR
STARTCHAR rcaron
ENCODING 345
SWIDTH 386 0
DWIDTH 25 0
BBX 18 47 5 -1
BITMAP
7803C0
3C0780
3E0F80
1E0F00
0F1E00
07BC00
07FC00
03F800
01F000
000000
000000
000000
F803C0
F81FC0
F87FC0
F8FFC0
F9FE00
FBF000
FFC000
FF8000
FF0000
FE0000
FC0000
FC0000
FC0000
F80000
F80000
F80000
F80000
F80000
F80000
F80000
F80000
F80000
F80000
F80000
F80000
F80000
F80000
F80000
F80000
F80000
F80000
F80000
F80000
F80000
F80000
ENDCHAR
STARTCHAR Sacute
ENCODING 346
SWIDTH 613 0
DWIDTH 39 0
BBX 33 58 3 -1
BITMAP
0000100000
00003F0000
00007E0000
0000FC0000
0001F00000
0003E00000
0003C00000
0007800000
000F000000
001E000000
0000000000
0000000000
0001800000
003FFE0000
00FFFF8000
03FFFFE000
07FFFFF800
0FF80FFC00
1FC001FE00
1F80007E00
3F00003C00
3E00001800
3E00000800
3E00000000
7E00000000
7E00000000
3E00000000
3E00000000
3F00000000
3F80000000
1FE0000000
1FFC000000
0FFFC00000
03FFFC0000
01FFFF8000
007FFFE000
000FFFF000
0000FFFC00
00000FFE00
000001FE00
0000007F00
0000003F00
0000001F00
0000001F80
0000000F80
0000000F80
0000000F80
0000001F80
3800001F00
7C00001F00
FE00003F00
FF80007E00
3FE001FE00
1FFFFFFC00
0FFFFFF800
03FFFFE000
007FFF8000
000FFC0000
ENDCHAR
STARTCHAR sacute
ENCODING 347
SWIDTH 496 0
DWIDTH 32 0
BBX 26 47 3 -1
BITMAP
0001E000
0003F000
0007E000
0007C000
000F8000
001F0000
003C0000
00780000
00F00000
00000000
00000000
00000000
007F8000
03FFF800
07FFFE00
0FFFFF80
1FE1FF00
3F001F00
3E000600
3E000000
3C000000
7C000000
7C000000
3E000000
3F000000
3FC00000
1FF80000
0FFF0000
07FFE000
01FFF800
003FFE00
0007FF00
0000FF00
00003F80
00000F80
00000FC0
000007C0
000007C0
000007C0
30000F80
7C000F80
FF003F80
FFE0FF00
3FFFFE00
1FFFFC00
03FFF000
007FC000
ENDCHAR
STARTCHAR Scedilla
ENCODING 350
SWIDTH 613 0
DWIDTH 39 0
BBX 33 58 3 -13
BITMAP
0001800000
003FFE0000
00FFFF8000
03FFFFE000
07FFFFF800
0FF80FFC00
1FC001FE00
1F80007E00
3F00003C00
3E00001800
3E00000800
3E00000000
7E00000000
7E00000000
3E00000000
3E00000000
3F00000000
3F80000000
1FE0000000
1FFC000000
0FFFC00000
03FFFC0000
01FFFF8000
007FFFE000
000FFFF000
0000FFF800
00000FFC00
000003FE00
000000FF00
0000003F00
0000001F00
0000001F80
0000000F80
0000000F80
0000000F80
0000001F80
3800001F00
7C00001F00
FE00003F00
FF80007E00
7FE001FE00
1FFF3FFC00
0FFFFFF800
03FFFFE000
00FFFFC000
001FFE0000
0001C00000
0003C00000
0003F00000
0003F80000
00023C0000
00001C0000
00001E0000
00001E0000
001C3C0000
001FFC0000
001FF80000
0007E00000
ENDCHAR
STARTCHAR scedilla
ENCODING 351
SWIDTH 496 0
DWIDTH 32 0
BBX 26 47 3 -13
BITMAP
007F8000
03FFF800
07FFFE00
0FFFFF80
1FE1FF00
3F001F00
3E000600
3E000000
3C000000
7C000000
7C000000
3E000000
3F000000
3FC00000
1FF80000
0FFF0000
07FFE000
01FFF800
003FFC00
0007FF00
0000FF00
00003F80
00001F80
00000FC0
000007C0
000007C0
000007C0
30000F80
78000F80
FE001F80
FFC0FF00
3FFFFE00
1FFFFC00
03FFF800
007FC000
001C0000
001C0000
003F0000
003FC000
0001C000
0001E000
0001E000
0001E000
00C3C000
01FFC000
01FF8000
007E0000
ENDCHAR
STARTCHAR Scaron
ENCODING 352
SWIDTH 613 0
DWIDTH 39 0
BBX 33 59 3 -1
BITMAP
00E0078000
00F00F0000
00781E0000
003C3E0000
001E7C0000
001F780000
000FF00000
0007F00000
0007E00000
0000000000
0000000000
0000000000
0001800000
003FFE0000
00FFFF8000
03FFFFE000
07FFFFF800
0FF80FFC00
1FC001FE00
1F8000FE00
3F00003C00
3E00001C00
3E00000800
3E00000000
7E00000000
7E00000000
7E00000000
3E00000000
3F00000000
3F80000000
1FE0000000
1FF8000000
0FFF000000
07FFF00000
03FFFE0000
00FFFFC000
001FFFE000
0003FFF800
00003FFC00
000007FE00
000000FE00
0000007F00
0000003F00
0000001F80
0000001F80
0000000F80
0000000F80
0000000F80
1000001F80
3800001F00
7C00003F00
FE00003F00
FF8000FE00
3FE001FC00
1FFFFFFC00
0FFFFFF800
03FFFFE000
007FFF8000
000FFC0000
ENDCHAR
STARTCHAR scaron
ENCODING 353
SWIDTH 496 0
DWIDTH 32 0
BBX 26 47 3 -1
BITMAP
07003C00
07807800
03C0F000
01E1E000
00F3E000
00FFC000
007F8000
003F0000
003F0000
00000000
00000000
00000000
007F8000
03FFF800
07FFFE00
0FFFFF80
1FE1FF00
3F001F00
3E000600
3E000000
3C000000
7C000000
7C000000
3E000000
3F000000
3FC00000
1FF80000
0FFF0000
07FFE000
01FFF800
003FFE00
0007FF00
0000FF00
00003F80
00000F80
00000FC0
000007C0
000007C0
000007C0
30000F80
7C000F80
FF003F80
FFE0FF00
3FFFFE00
1FFFFC00
03FFF000
007FC000
ENDCHAR
STARTCHAR uni0162
ENCODING 354
SWIDTH 630 0
DWIDTH 40 0
BBX 34 58 3 -13
BITMAP
FFFFFFFFC0
FFFFFFFFC0
FFFFFFFFC0
FFFFFFFFC0
FFFFFFFFC0
0001F00000
0001F00000
0001F00000
0001F00000
0001F00000
0001F00000
0001F00000
0001F00000
0001F00000
0001F00000
0001F00000
0001F00000
0001F00000
0001F00000
0001F00000
0001F00000
0001F00000
0001F00000
0001F00000
0001F00000
0001F00000
0001F00000
0001F00000
0001F00000
0001F00000
0001F00000
0001F00000
0001F00000
0001F00000
0001F00000
0001F00000
0001F00000
0001F00000
0001F00000
0001F00000
0001F00000
0001F00000
0001F00000
0001F00000
0001F00000
0001F00000
0001E00000
0001C00000
0003C00000
0003F00000
0003FC0000
00001C0000
00001E0000
00001E0000
000C3C0000
001FFC0000
001FF80000
0007E00000
ENDCHAR
STARTCHAR uni0163
ENCODING 355
SWIDTH 370 0
DWIDTH 24 0
BBX 20 56 2 -13
BITMAP
03C000
03C000
03C000
03C000
03C000
03C000
03C000
03C000
03C000
FFFFC0
FFFFC0
FFFFC0
FFFFC0
03C000
03C000
03C000
03C000
03C000
03C000
03C000
03C000
03C000
03C000
03C000
03C000
03C000
03C000
03C000
03C000
03C000
03C000
03C000
03C000
03C000
03C000
03C000
03C000
03E000
03E040
03F9C0
01FFE0
00FFE0
007FE0
003F80
000E00
000E00
001F80
001FE0
0010E0
0000F0
0000F0
0000F0
0061E0
00FFE0
00FFC0
003F00
ENDCHAR
STARTCHAR Tcaron
ENCODING 356
SWIDTH 630 0
DWIDTH 40 0
BBX 34 59 3 -1
BITMAP
007003C000
0078078000
003C0F0000
001E1F0000
000F3E0000
000FBC0000
0007F80000
0003F80000
0003F00000
0000000000
0000000000
0000000000
0000000000
FFFFFFFFC0
FFFFFFFFC0
FFFFFFFFC0
FFFFFFFFC0
FFFFFFFFC0
0001F00000
0001F00000
0001F00000
0001F00000
0001F00000
0001F00000
0001F00000
0001F00000
0001F00000
0001F00000
0001F00000
0001F00000
0001F00000
0001F00000
0001F00000
0001F00000
0001F00000
0001F00000
0001F00000
0001F00000
0001F00000
0001F00000
0001F00000
0001F00000
0001F00000
0001F00000
0001F00000
0001F00000
0001F00000
0001F00000
0001F00000
0001F00000
0001F00000
0001F00000
0001F00000
0001F00000
0001F00000
0001F00000
0001F00000
0001F00000
0001F00000
ENDCHAR
STARTCHAR tcaron
ENCODING 357
SWIDTH 370 0
DWIDTH 24 0
BBX 30 46 2 -1
BITMAP
00000070
000000F8
000001F8
03C001FC
03C000FC
03C0007C
03C00038
03C00038
03C00070
03C00070
03C000E0
03C000C0
FFFFC000
FFFFC000
FFFFC000
FFFFC000
03C00000
03C00000
03C00000
03C00000
03C00000
03C00000
03C00000
03C00000
03C00000
03C00000
03C00000
03C00000
03C00000
03C00000
03C00000
03C00000
03C00000
03C00000
03C00000
03C00000
03C00000
03C00000
03C00000
03E00000
03E00000
03F9C000
01FFE000
00FFF000
007FE000
001F8000
ENDCHAR
STARTCHAR Umacron
ENCODING 362
SWIDTH 746 0
DWIDTH 48 0
BBX 37 55 5 -1
BITMAP
007FFFF800
007FFFF800
007FFFF800
007FFFF800
0000000000
0000000000
0000000000
0000000000
0000000000
F8000000F8
F8000000F8
F8000000F8
F8000000F8
F8000000F8
F8000000F8
F8000000F8
F8000000F8
F8000000F8
F8000000F8
F8000000F8
F8000000F8
F8000000F8
F8000000F8
F8000000F8
F8000000F8
F8000000F8
F8000000F8
F8000000F8
F8000000F8
F8000000F8
F8000000F8
F8000000F8
F8000000F8
F8000000F8
F8000000F8
F8000000F8
78000000F8
7C000000F8
7C000000F8
7C000000F8
7C000000F8
7C000001F0
3E000001F0
3E000003F0
3F000003E0
1F800007E0
1F80000FC0
0FE0001FC0
07F0003F80
03FC00FF00
01FFFFFE00
00FFFFFC00
007FFFF000
001FFFE000
0003FE0000
ENDCHAR
STARTCHAR umacron
ENCODING 363
SWIDTH 592 0
DWIDTH 38 0
BBX 28 44 5 -1
BITMAP
0FFFFF00
0FFFFF00
0FFFFF00
0FFFFF00
00000000
00000000
00000000
00000000
00000000
F80001F0
F80001F0
F80001F0
F80001F0
F80001F0
F80001F0
F80001F0
F80001F0
F80001F0
F80001F0
F80001F0
F80001F0
F80001F0
F80001F0
F80001F0
F80001F0
F80001F0
F80001F0
F80001F0
F80001F0
F80001F0
F80001F0
F80001F0
F80001F0
F80001F0
F80003F0
7C0003F0
7C0007F0
7E000FF0
3F803FF0
1FE1FDF0
1FFFF9F0
07FFF1F0
03FFC1F0
007F01F0
ENDCHAR
STARTCHAR Uring
ENCODING 366
SWIDTH 746 0
DWIDTH 48 0
BBX 37 63 5 -1
BITMAP
0000F80000
0001FE0000
0003FF0000
0007878000
0007038000
000E038000
000E018000
000E038000
0007038000
0007878000
0003FF0000
0001FE0000
0000780000
0000000000
0000000000
0000000000
0000000000
F8000000F8
F8000000F8
F8000000F8
F8000000F8
F8000000F8
F8000000F8
F8000000F8
F8000000F8
F8000000F8
F8000000F8
F8000000F8
F8000000F8
F8000000F8
F8000000F8
F8000000F8
F8000000F8
F8000000F8
F8000000F8
F8000000F8
F8000000F8
F8000000F8
F8000000F8
F8000000F8
F8000000F8
F8000000F8
F8000000F8
F8000000F8
78000000F8
7C000000F8
7C000000F8
7C000000F8
7C000000F8
7C000001F0
3E000001F0
3E000003F0
3F000003E0
1F800007E0
1F80000FC0
0FE0001FC0
07F0003F80
03FC00FF00
01FFFFFE00
00FFFFFC00
007FFFF000
001FFFE000
0003FE0000
ENDCHAR
STARTCHAR uring
ENCODING 367
SWIDTH 592 0
DWIDTH 38 0
BBX 28 53 5 -1
BITMAP
001F0000
003FC000
007FE000
00F0F000
00E07000
01C07000
01C03000
01C07000
00E07000
00F0F000
007FE000
003FC000
001F0000
00000000
00000000
00000000
00000000
00000000
F80001F0
F80001F0
F80001F0
F80001F0
F80001F0
F80001F0
F80001F0
F80001F0
F80001F0
F80001F0
F80001F0
F80001F0
F80001F0
F80001F0
F80001F0
F80001F0
F80001F0
F80001F0
F80001F0
F80001F0
F80001F0
F80001F0
F80001F0
F80001F0
F80001F0
F80003F0
7C0003F0
7C0007F0
7E000FF0
3F803FF0
1FE1FDF0
1FFFF9F0
07FFF1F0
03FFC1F0
007F01F0
ENDCHAR
STARTCHAR Uhungarumlaut
ENCODING 368
SWIDTH 746 0
DWIDTH 48 0
BBX 37 59 5 -1
BITMAP
0000700300
0000FC07E0
0000F80FC0
0001F00F80
0003E01F00
0007C03E00
000F807C00
001F00F000
001E01E000
0020000000
0000000000
0000000000
0000000000
F8000000F8
F8000000F8
F8000000F8
F8000000F8
F8000000F8
F8000000F8
F8000000F8
F8000000F8
F8000000F8
F8000000F8
F8000000F8
F8000000F8
F8000000F8
F8000000F8
F8000000F8
F8000000F8
F8000000F8
F8000000F8
F8000000F8
F8000000F8
F8000000F8
F8000000F8
F8000000F8
F8000000F8
F8000000F8
F8000000F8
F8000000F8
78000000F8
7C000000F8
7C000000F8
7C000000F8
7C000000F8
7C000001F0
3E000001F0
3E000003F0
3F000003E0
1F800007E0
1F80000FC0
0FE0001FC0
07F0003F80
03FC00FF00
01FFFFFE00
00FFFFFC00
007FFFF000
001FFFE000
0003FE0000
ENDCHAR
STARTCHAR uhungarumlaut
ENCODING 369
SWIDTH 592 0
DWIDTH 38 0
BBX 30 48 5 -1
BITMAP
000E0060
001F80FC
001F01F8
003E01F0
007C03E0
00F807C0
01F00F80
03E01E00
03C03C00
04000000
00000000
00000000
00000000
F80001F0
F80001F0
F80001F0
F80001F0
F80001F0
F80001F0
F80001F0
F80001F0
F80001F0
F80001F0
F80001F0
F80001F0
F80001F0
F80001F0
F80001F0
F80001F0
F80001F0
F80001F0
F80001F0
F80001F0
F80001F0
F80001F0
F80001F0
F80001F0
F80001F0
F80003F0
7C0003F0
7C0007F0
7E000FF0
3F803FF0
1FE1FDF0
1FFFF9F0
07FFF1F0
03FFC1F0
007F01F0
ENDCHAR
STARTCHAR Uogonek
ENCODING 370
SWIDTH 746 0
DWIDTH 48 0
BBX 37 56 5 -11
BITMAP
F8000000F8
F8000000F8
F8000000F8
F8000000F8
F8000000F8
F8000000F8
F8000000F8
F8000000F8
F8000000F8
F8000000F8
F8000000F8
F8000000F8
F8000000F8
F8000000F8
F8000000F8
F8000000F8
F8000000F8
F8000000F8
F8000000F8
F8000000F8
F8000000F8
F8000000F8
F8000000F8
F8000000F8
F8000000F8
F8000000F8
F8000000F8
78000000F8
7C000000F8
7C000000F8
7C000000F8
7C000000F8
7C000001F0
7E000001F0
3E000003F0
3F000003E0
1F800007E0
1F80000FC0
0FE0001FC0
0FF0003F80
07FC00FF00
03FFFFFE00
01FFFFFC00
007FFFF000
003FFFE000
000FFE0000
0003800000
0007800000
0007800000
0007800000
0007800000
0007C10000
0003FF0000
0003FF8000
0001FF8000
00007E0000
ENDCHAR
STARTCHAR uogonek
ENCODING 371
SWIDTH 592 0
DWIDTH 38 0
BBX 33 45 5 -11
BITMAP
F80001F000
F80001F000
F80001F000
F80001F000
F80001F000
F80001F000
F80001F000
F80001F000
F80001F000
F80001F000
F80001F000
F80001F000
F80001F000
F80001F000
F80001F000
F80001F000
F80001F000
F80001F000
F80001F000
F80001F000
F80001F000
F80001F000
F80001F000
F80001F000
F80001F000
F80003F000
7C0003F000
7C0007F000
7E000FF000
3F803FF000
1FE1FDF000
1FFFF9F000
07FFF1F000
03FFC1F000
007F03F000
000007C000
0000078000
0000070000
0000070000
0000078000
0000078200
000007FF00
000003FF80
000001FF80
0000007E00
ENDCHAR
STARTCHAR Wcircumflex
ENCODING 372
SWIDTH 1081 0
DWIDTH 69 0
BBX 64 59 3 -1
BITMAP
00000007C0000000
0000000FE0000000
0000000FF0000000
0000001FF0000000
0000003E78000000
0000003C7C000000
000000783E000000
000000F01E000000
000001E00F000000
0000000000000000
0000000000000000
0000000000000000
0000000000000000
F8000007E000003F
F800000FE000003E
FC00000FE000007E
FC00000FE000007E
7C00001FF000007C
7E00001FF00000FC
7E00001FF00000FC
3E00003EF80000F8
3F00003EF80001F8
3F00003E780001F8
1F00003C7C0001F0
1F80007C7C0003F0
1F80007C7C0003F0
0F8000783E0003E0
0FC000F83E0007E0
0FC000F83E0007E0
07C000F81E0007C0
07E001F01F0007C0
07E001F01F000FC0
03E001F00F000F80
03F003E00F800F80
03F003E00F801F80
01F003E007801F00
01F803C007C01F00
01F807C007C03F00
00F807C007C03E00
00FC078003E03E00
00FC0F8003E07E00
007C0F8003E07C00
007E0F0001F07C00
007E1F0001F0FC00
003E1F0001F0FC00
003F1F0000F0F800
003F3E0000F9F800
001F3E0000F9F800
001F3E000079F000
001FFC00007FF000
000FFC00007FF000
000FFC00003FE000
000FF800003FE000
0007F800003FE000
0007F800003FC000
0007F000001FC000
0003F000001FC000
0003F000001F8000
0003E000000F8000
ENDCHAR
STARTCHAR wcircumflex
ENCODING 373
SWIDTH 833 0
DWIDTH 53 0
BBX 49 48 2 -1
BITMAP
000003E0000000
000003F0000000
000007F8000000
00000FF8000000
00001F3C000000
00001E1E000000
00003C1F000000
0000780F000000
0000F007800000
00000000000000
00000000000000
00000000000000
00000000000000
FC0003E0000F80
7C0003E0000F80
7C0003F0001F00
7C0003F0001F00
3E0007F0001F00
3E0007F8003E00
3E0007F8003E00
1F000F78003E00
1F000F78003C00
1F000F3C007C00
0F001F3C007C00
0F801E3C007C00
0F801E1E00F800
0F803E1E00F800
07C03C1E00F800
07C03C1F00F000
07C07C0F01F000
03C0780F01F000
03E0780F81E000
03E0F80783E000
01E0F00783E000
01F0F007C3C000
01F0F003C3C000
00F1E003C7C000
00F1E003E78000
00F9E001E78000
007BE001EF8000
007BC001EF0000
007FC001FF0000
003FC000FF0000
003F8000FE0000
003F8000FE0000
003F80007E0000
001F00007E0000
001F00007C0000
ENDCHAR
STARTCHAR Ycircumflex
ENCODING 374
SWIDTH 671 0
DWIDTH 43 0
BBX 40 59 1 -1
BITMAP
00003E0000
00007F0000
00007F0000
0000FF8000
0001F7C000
0003E3E000
0003C1E000
000780F000
000F007800
0000000000
0000000000
0000000000
0000000000
FE0000003F
7E0000003F
3F0000007E
3F8000007E
1F800000FC
0FC00001F8
0FC00001F8
07E00003F0
03F00007E0
03F00007E0
01F8000FC0
00FC001F80
00FC001F80
007E003F00
003F007E00
003F007E00
001F80FC00
000F80F800
000FC1F800
0007E3F000
0007E3F000
0003F7E000
0001FFC000
0001FFC000
0000FF8000
00007F0000
00007F0000
00003E0000
00003E0000
00003E0000
00003E0000
00003E0000
00003E0000
00003E0000
00003E0000
00003E0000
00003E0000
00003E0000
00003E0000
00003E0000
00003E0000
00003E0000
00003E0000
00003E0000
00003E0000
00003E0000
ENDCHAR
STARTCHAR ycircumflex
ENCODING 375
SWIDTH 593 0
DWIDTH 38 0
BBX 33 58 2 -11
BITMAP
0003E00000
0003F00000
0007F80000
000FF80000
001F3C0000
001E1E0000
003C0F0000
00780F0000
0070078000
0000000000
0000000000
0000000000
0000000000
F800000F80
7C00001F00
7C00001F00
7E00003F00
3E00003E00
3F00003E00
1F00007C00
1F00007C00
0F8000FC00
0F8000F800
0FC000F800
07C001F000
07C001F000
03E003F000
03E003E000
03F003E000
01F007C000
01F007C000
00F8078000
00F80F8000
007C0F8000
007C1F0000
007E1F0000
003E1E0000
003E3E0000
001F3E0000
001F7C0000
000FFC0000
000FF80000
000FF80000
0007F80000
0007F00000
0003F00000
0003E00000
0003E00000
0003E00000
0007C00000
0007C00000
000F800000
001F800000
083F000000
1FFF000000
1FFE000000
1FFC000000
1FF0000000
ENDCHAR
STARTCHAR Ydieresis
ENCODING 376
SWIDTH 671 0
DWIDTH 43 0
BBX 40 57 1 -1
BITMAP
0007007000
000F80F800
001F80FC00
001F80FC00
000F80F800
0007007000
0000000000
0000000000
0000000000
0000000000
0000000000
FE0000003F
7E0000003F
3F0000007E
3F8000007E
1F800000FC
0FC00001F8
0FC00001F8
07E00003F0
03F00007E0
03F00007E0
01F8000FC0
00FC001F80
00FC001F80
007E003F00
003F007E00
003F007E00
001F80FC00
000F80F800
000FC1F800
0007E3F000
0007E3F000
0003F7E000
0001FFC000
0001FFC000
0000FF8000
00007F0000
00007F0000
00003E0000
00003E0000
00003E0000
00003E0000
00003E0000
00003E0000
00003E0000
00003E0000
00003E0000
00003E0000
00003E0000
00003E0000
00003E0000
00003E0000
00003E0000
00003E0000
00003E0000
00003E0000
00003E0000
ENDCHAR
STARTCHAR Zacute
ENCODING 377
SWIDTH 639 0
DWIDTH 41 0
BBX 33 59 4 -1
BITMAP
0000180000
00003F0000
00007E0000
0000FC0000
0001F80000
0001E00000
0003C00000
0007800000
000F000000
0000000000
0000000000
0000000000
0000000000
FFFFFFFF80
FFFFFFFF80
FFFFFFFF80
FFFFFFFF80
FFFFFFFF80
0000003F00
0000007E00
000000FE00
000000FC00
000001F800
000003F000
000007F000
000007E000
00000FC000
00001FC000
00001F8000
00003F0000
00007E0000
0000FE0000
0000FC0000
0001F80000
0003F80000
0003F00000
0007E00000
000FC00000
001FC00000
001F800000
003F000000
007F000000
007E000000
00FC000000
01F8000000
03F8000000
03F0000000
07E0000000
0FE0000000
0FC0000000
1F80000000
3F00000000
3F00000000
7E00000000
FFFFFFFF80
FFFFFFFF80
FFFFFFFF80
FFFFFFFF80
FFFFFFFF80
ENDCHAR
STARTCHAR zacute
ENCODING 378
SWIDTH 514 0
DWIDTH 33 0
BBX 27 48 3 -1
BITMAP
0000E000
0001F800
0003F000
0003E000
0007C000
000F8000
001F0000
003C0000
00780000
00000000
00000000
00000000
00000000
7FFFFFC0
7FFFFFC0
7FFFFFC0
7FFFFFC0
7FFFFFC0
00001F80
00001F00
00003F00
00007E00
0000FC00
0000FC00
0001F800
0003F000
0007E000
0007E000
000FC000
001F8000
003F0000
003F0000
007E0000
00FC0000
00F80000
01F80000
03F00000
07E00000
07E00000
0FC00000
1F800000
3F000000
3F000000
7FFFFFE0
FFFFFFE0
FFFFFFE0
FFFFFFE0
FFFFFFE0
ENDCHAR
STARTCHAR Zdotaccent
ENCODING 379
SWIDTH 639 0
DWIDTH 41 0
BBX 33 57 4 -1
BITMAP
0001C00000
0003E00000
0003E00000
0003E00000
0003E00000
0001C00000
0000000000
0000000000
0000000000
0000000000
0000000000
FFFFFFFF80
FFFFFFFF80
FFFFFFFF80
FFFFFFFF80
FFFFFFFF80
0000003F00
0000007E00
000000FE00
000000FC00
000001F800
000003F000
000007F000
000007E000
00000FC000
00001FC000
00001F8000
00003F0000
00007E0000
0000FE0000
0000FC0000
0001F80000
0003F80000
0003F00000
0007E00000
000FC00000
001FC00000
001F800000
003F000000
007F000000
007E000000
00FC000000
01F8000000
03F8000000
03F0000000
07E0000000
0FE0000000
0FC0000000
1F80000000
3F00000000
3F00000000
7E00000000
FFFFFFFF80
FFFFFFFF80
FFFFFFFF80
FFFFFFFF80
FFFFFFFF80
ENDCHAR
STARTCHAR zdotaccent
ENCODING 380
SWIDTH 514 0
DWIDTH 33 0
BBX 27 46 3 -1
BITMAP
000E0000
001F0000
001F8000
001F8000
001F0000
000E0000
00000000
00000000
00000000
00000000
00000000
7FFFFFC0
7FFFFFC0
7FFFFFC0
7FFFFFC0
7FFFFFC0
00001F80
00001F00
00003F00
00007E00
0000FC00
0000FC00
0001F800
0003F000
0007E000
0007E000
000FC000
001F8000
003F0000
003F0000
007E0000
00FC0000
00F80000
01F80000
03F00000
07E00000
07E00000
0FC00000
1F800000
3F000000
3F000000
7FFFFFE0
FFFFFFE0
FFFFFFE0
FFFFFFE0
FFFFFFE0
ENDCHAR
STARTCHAR Zcaron
ENCODING 381
SWIDTH 639 0
DWIDTH 41 0
BBX 33 59 4 -1
BITMAP
00F0078000
0078070000
003C0F0000
003C1E0000
001E3C0000
000F7C0000
000FF80000
0007F00000
0003E00000
0000000000
0000000000
0000000000
0000000000
FFFFFFFF80
FFFFFFFF80
FFFFFFFF80
FFFFFFFF80
FFFFFFFF80
0000003F00
0000007E00
000000FE00
000000FC00
000001F800
000003F000
000007F000
000007E000
00000FC000
00001FC000
00001F8000
00003F0000
00007E0000
0000FE0000
0000FC0000
0001F80000
0003F80000
0003F00000
0007E00000
000FC00000
001FC00000
001F800000
003F000000
007F000000
007E000000
00FC000000
01F8000000
03F8000000
03F0000000
07E0000000
0FE0000000
0FC0000000
1F80000000
3F00000000
3F00000000
7E00000000
FFFFFFFF80
FFFFFFFF80
FFFFFFFF80
FFFFFFFF80
FFFFFFFF80
ENDCHAR
STARTCHAR zcaron
ENCODING 382
SWIDTH 514 0
DWIDTH 33 0
BBX 27 48 3 -1
BITMAP
07801C00
03C03C00
01E07800
00F0F000
00F9E000
007FE000
003FC000
001F8000
001F8000
00000000
00000000
00000000
00000000
7FFFFFC0
7FFFFFC0
7FFFFFC0
7FFFFFC0
7FFFFFC0
00001F80
00001F00
00003F00
00007E00
0000FC00
0000FC00
0001F800
0003F000
0007E000
0007E000
000FC000
001F8000
003F0000
003F0000
007E0000
00FC0000
00F80000
01F80000
03F00000
07E00000
07E00000
0FC00000
1F800000
3F000000
3F000000
7FFFFFE0
FFFFFFE0
FFFFFFE0
FFFFFFE0
FFFFFFE0
ENDCHAR
STARTCHAR uni0237
ENCODING 567
SWIDTH 225 0
DWIDTH 14 0
BBX 14 45 -4 -11
BITMAP
007C
007C
007C
007C
007C
007C
007C
007C
007C
007C
007C
007C
007C
007C
007C
007C
007C
007C
007C
007C
007C
007C
007C
007C
007C
007C
007C
007C
007C
007C
007C
007C
007C
007C
007C
007C
007C
007C
00F8
00F8
41F8
7FF0
7FF0
FFE0
7F80
ENDCHAR
STARTCHAR circumflex
ENCODING 710
SWIDTH 398 0
DWIDTH 25 0
BBX 17 9 4 37
BITMAP
03E000
07F000
07F800
0FF800
1F3C00
1E3E00
3C1F00
780F00
F00780
ENDCHAR
STARTCHAR caron
ENCODING 711
SWIDTH 398 0
DWIDTH 25 0
BBX 17 9 4 37
BITMAP
F00780
780780
3C0F00
3E1E00
1F3C00
0F7C00
07F800
07F000
03E000
ENDCHAR
STARTCHAR breve
ENCODING 728
SWIDTH 418 0
DWIDTH 27 0
BBX 18 7 4 38
BITMAP
100100
380380
7E1FC0
FFFFC0
3FFF80
1FFF00
03F800
ENDCHAR
STARTCHAR dotaccent
ENCODING 729
SWIDTH 218 0
DWIDTH 14 0
BBX 6 6 4 39
BITMAP
78
FC
FC
FC
F8
30
ENDCHAR
STARTCHAR ring
ENCODING 730
SWIDTH 332 0
DWIDTH 21 0
BBX 13 13 4 39
BITMAP
0F80
3FE0
7FF0
7070
E038
E038
E038
E038
E038
7070
7FF0
3FE0
0F80
ENDCHAR
STARTCHAR ogonek
ENCODING 731
SWIDTH 319 0
DWIDTH 20 0
BBX 12 12 4 -12
BITMAP
3C00
7800
7000
F000
F000
F000
F000
F820
7FE0
7FF0
3FF0
0FC0
ENDCHAR
STARTCHAR tilde
ENCODING 732
SWIDTH 451 0
DWIDTH 29 0
BBX 21 8 4 37
BITMAP
0F8038
3FC070
3FE070
7FF8F0
70FFF0
703FE0
E01FC0
E00780
ENDCHAR
STARTCHAR hungarumlaut
ENCODING 733
SWIDTH 527 0
DWIDTH 34 0
BBX 24 9 5 37
BITMAP
038018
03E03F
07C03E
0F807C
1F00F8
3E01F0
7C03E0
7807C0
F00F00
ENDCHAR
STARTCHAR uni0326
ENCODING 806
SWIDTH 0 0
DWIDTH 0 0
BBX 6 12 -11 -17
BITMAP
70
F8
FC
FC
FC
7C
1C
38
38
70
E0
60
ENDCHAR
STARTCHAR Wgrave
ENCODING 7808
SWIDTH 1081 0
DWIDTH 69 0
BBX 64 59 3 -1
BITMAP
000000C000000000
000007E000000000
000003F000000000
000001F800000000
000000FC00000000
0000003C00000000
0000001E00000000
0000000F00000000
0000000780000000
0000000000000000
0000000000000000
0000000000000000
0000000000000000
F8000007E000003F
F800000FE000003E
FC00000FE000007E
FC00000FE000007E
7C00001FF000007C
7E00001FF00000FC
7E00001FF00000FC
3E00003EF80000F8
3F00003EF80001F8
3F00003E780001F8
1F00003C7C0001F0
1F80007C7C0003F0
1F80007C7C0003F0
0F8000783E0003E0
0FC000F83E0007E0
0FC000F83E0007E0
07C000F81E0007C0
07E001F01F0007C0
07E001F01F000FC0
03E001F00F000F80
03F003E00F800F80
03F003E00F801F80
01F003E007801F00
01F803C007C01F00
01F807C007C03F00
00F807C007C03E00
00FC078003E03E00
00FC0F8003E07E00
007C0F8003E07C00
007E0F0001F07C00
007E1F0001F0FC00
003E1F0001F0FC00
003F1F0000F0F800
003F3E0000F9F800
001F3E0000F9F800
001F3E000079F000
001FFC00007FF000
000FFC00007FF000
000FFC00003FE000
000FF800003FE000
0007F800003FE000
0007F800003FC000
0007F000001FC000
0003F000001FC000
0003F000001F8000
0003E000000F8000
ENDCHAR
STARTCHAR wgrave
ENCODING 7809
SWIDTH 833 0
DWIDTH 53 0
BBX 49 48 2 -1
BITMAP
00006000000000
0003F000000000
0001F800000000
0000FC00000000
00003E00000000
00001E00000000
00000F00000000
00000780000000
000003C0000000
00000000000000
00000000000000
00000000000000
00000000000000
FC0003E0000F80
7C0003E0000F80
7C0003F0001F00
7C0003F0001F00
3E0007F0001F00
3E0007F8003E00
3E0007F8003E00
1F000F78003E00
1F000F78003C00
1F000F3C007C00
0F001F3C007C00
0F801E3C007C00
0F801E1E00F800
0F803E1E00F800
07C03C1E00F800
07C03C1F00F000
07C07C0F01F000
03C0780F01F000
03E0780F81E000
03E0F80783E000
01E0F00783E000
01F0F007C3C000
01F0F003C3C000
00F1E003C7C000
00F1E003E78000
00F9E001E78000
007BE001EF8000
007BC001EF0000
007FC001FF0000
003FC000FF0000
003F8000FE0000
003F8000FE0000
003F80007E0000
001F00007E0000
001F00007C0000
ENDCHAR
STARTCHAR Wacute
ENCODING 7810
SWIDTH 1081 0
DWIDTH 69 0
BBX 64 59 3 -1
BITMAP
0000000007000000
000000000FC00000
000000001F800000
000000003F000000
000000003E000000
000000007C000000
00000000F8000000
00000001E0000000
00000003C0000000
0000000000000000
0000000000000000
0000000000000000
0000000000000000
F8000007E000003F
F800000FE000003E
FC00000FE000007E
FC00000FE000007E
7C00001FF000007C
7E00001FF00000FC
7E00001FF00000FC
3E00003EF80000F8
3F00003EF80001F8
3F00003E780001F8
1F00003C7C0001F0
1F80007C7C0003F0
1F80007C7C0003F0
0F8000783E0003E0
0FC000F83E0007E0
0FC000F83E0007E0
07C000F81E0007C0
07E001F01F0007C0
07E001F01F000FC0
03E001F00F000F80
03F003E00F800F80
03F003E00F801F80
01F003E007801F00
01F803C007C01F00
01F807C007C03F00
00F807C007C03E00
00FC078003E03E00
00FC0F8003E07E00
007C0F8003E07C00
007E0F0001F07C00
007E1F0001F0FC00
003E1F0001F0FC00
003F1F0000F0F800
003F3E0000F9F800
001F3E0000F9F800
001F3E000079F000
001FFC00007FF000
000FFC00007FF000
000FFC00003FE000
000FF800003FE000
0007F800003FE000
0007F800003FC000
0007F000001FC000
0003F000001FC000
0003F000001F8000
0003E000000F8000
ENDCHAR
STARTCHAR wacute
ENCODING 7811
SWIDTH 833 0
DWIDTH 53 0
BBX 49 48 2 -1
BITMAP
00000003800000
00000007E00000
0000000FC00000
0000000F800000
0000001F000000
0000003E000000
0000007C000000
000000F8000000
000001E0000000
00000000000000
00000000000000
00000000000000
00000000000000
FC0003E0000F80
7C0003E0000F80
7C0003F0001F00
7C0003F0001F00
3E0007F0001F00
3E0007F8003E00
3E0007F8003E00
1F000F78003E00
1F000F78003C00
1F000F3C007C00
0F001F3C007C00
0F801E3C007C00
0F801E1E00F800
0F803E1E00F800
07C03C1E00F800
07C03C1F00F000
07C07C0F01F000
03C0780F01F000
03E0780F81E000
03E0F80783E000
01E0F00783E000
01F0F007C3C000
01F0F003C3C000
00F1E003C7C000
00F1E003E78000
00F9E001E78000
007BE001EF8000
007BC001EF0000
007FC001FF0000
003FC000FF0000
003F8000FE0000
003F8000FE0000
003F80007E0000
001F00007E0000
001F00007C0000
ENDCHAR
STARTCHAR Wdieresis
ENCODING 7812
SWIDTH 1081 0
DWIDTH 69 0
BBX 64 57 3 -1
BITMAP
000000E00E000000
000001F01F000000
000001F01F800000
000001F01F800000
000001F01F000000
000000E00E000000
0000000000000000
0000000000000000
0000000000000000
0000000000000000
0000000000000000
F8000007E000003F
F800000FE000003E
FC00000FE000007E
FC00000FE000007E
7C00001FF000007C
7E00001FF00000FC
7E00001FF00000FC
3E00003EF80000F8
3F00003EF80001F8
3F00003E780001F8
1F00003C7C0001F0
1F80007C7C0003F0
1F80007C7C0003F0
0F8000783E0003E0
0FC000F83E0007E0
0FC000F83E0007E0
07C000F81E0007C0
07E001F01F0007C0
07E001F01F000FC0
03E001F00F000F80
03F003E00F800F80
03F003E00F801F80
01F003E007801F00
01F803C007C01F00
01F807C007C03F00
00F807C007C03E00
00FC078003E03E00
00FC0F8003E07E00
007C0F8003E07C00
007E0F0001F07C00
007E1F0001F0FC00
003E1F0001F0FC00
003F1F0000F0F800
003F3E0000F9F800
001F3E0000F9F800
001F3E000079F000
001FFC00007FF000
000FFC00007FF000
000FFC00003FE000
000FF800003FE000
0007F800003FE000
0007F800003FC000
0007F000001FC000
0003F000001FC000
0003F000001F8000
0003E000000F8000
ENDCHAR
STARTCHAR wdieresis
ENCODING 7813
SWIDTH 833 0
DWIDTH 53 0
BBX 49 46 2 -1
BITMAP
00007007000000
0000F80F800000
0000F80FC00000
0000F80FC00000
0000F80F800000
00007007000000
00000000000000
00000000000000
00000000000000
00000000000000
00000000000000
FC0003E0000F80
7C0003E0000F80
7C0003F0001F00
7C0003F0001F00
3E0007F0001F00
3E0007F8003E00
3E0007F8003E00
1F000F78003E00
1F000F78003C00
1F000F3C007C00
0F001F3C007C00
0F801E3C007C00
0F801E1E00F800
0F803E1E00F800
07C03C1E00F800
07C03C1F00F000
07C07C0F01F000
03C0780F01F000
03E0780F81E000
03E0F80783E000
01E0F00783E000
01F0F007C3C000
01F0F003C3C000
00F1E003C7C000
00F1E003E78000
00F9E001E78000
007BE001EF8000
007BC001EF0000
007FC001FF0000
003FC000FF0000
003F8000FE0000
003F8000FE0000
003F80007E0000
001F00007E0000
001F00007C0000
ENDCHAR
STARTCHAR uni1EB8
ENCODING 7864
SWIDTH 627 0
DWIDTH 40 0
BBX 32 57 5 -12
BITMAP
FFFFFFFF
FFFFFFFF
FFFFFFFF
FFFFFFFF
FFFFFFFF
F8000000
F8000000
F8000000
F8000000
F8000000
F8000000
F8000000
F8000000
F8000000
F8000000
F8000000
F8000000
F8000000
F8000000
F8000000
FFFFFFF8
FFFFFFF8
FFFFFFF8
FFFFFFF8
FFFFFFF8
F8000000
F8000000
F8000000
F8000000
F8000000
F8000000
F8000000
F8000000
F8000000
F8000000
F8000000
F8000000
F8000000
F8000000
F8000000
F8000000
FFFFFFFF
FFFFFFFF
FFFFFFFF
FFFFFFFF
FFFFFFFF
00000000
00000000
00000000
00000000
00000000
00038000
0007C000
0007E000
0007E000
0007C000
0003C000
ENDCHAR
STARTCHAR uni1EB9
ENCODING 7865
SWIDTH 595 0
DWIDTH 38 0
BBX 32 45 3 -11
BITMAP
000FF800
003FFE00
00FFFF80
03FFFFC0
07FC1FE0
0FE003F0
0FC001F8
1F8000F8
3F00007C
3E00003C
7C00003E
7C00001E
7C00001E
F800001F
F800001F
FFFFFFFF
FFFFFFFF
FFFFFFFF
FFFFFFFF
F8000000
F8000000
F8000000
7C000000
7C000000
7C000000
3E000000
3F000000
1F800030
0FC00078
07F001FC
03FC1FFC
01FFFFF0
00FFFFE0
003FFF00
0007F800
00000000
00000000
00000000
00000000
0001C000
0003E000
0007E000
0007E000
0003E000
0001C000
ENDCHAR
STARTCHAR uni1EBC
ENCODING 7868
SWIDTH 627 0
DWIDTH 40 0
BBX 32 58 5 -1
BITMAP
00380180
00FE01C0
01FF01C0
01FF83C0
03C7C780
03C3FF80
0380FF00
03807E00
03803C00
00000000
00000000
00000000
FFFFFFFF
FFFFFFFF
FFFFFFFF
FFFFFFFF
FFFFFFFF
F8000000
F8000000
F8000000
F8000000
F8000000
F8000000
F8000000
F8000000
F8000000
F8000000
F8000000
F8000000
F8000000
F8000000
F8000000
FFFFFFF8
FFFFFFF8
FFFFFFF8
FFFFFFF8
FFFFFFF8
F8000000
F8000000
F8000000
F8000000
F8000000
F8000000
F8000000
F8000000
F8000000
F8000000
F8000000
F8000000
F8000000
F8000000
F8000000
F8000000
FFFFFFFF
FFFFFFFF
FFFFFFFF
FFFFFFFF
FFFFFFFF
ENDCHAR
STARTCHAR uni1EBD
ENCODING 7869
SWIDTH 595 0
DWIDTH 38 0
BBX 32 46 3 -1
BITMAP
003E01E0
00FF01C0
00FF81C0
01FFC3C0
01C3FF80
03C1FF80
03807F00
03803E00
00000000
00000000
00000000
000FF800
003FFE00
00FFFF80
03FFFFC0
07FC1FE0
0FE003F0
0FC001F8
1F8000F8
3F00007C
3E00003C
7C00003E
7C00001E
7C00001E
F800001F
F800001F
FFFFFFFF
FFFFFFFF
FFFFFFFF
FFFFFFFF
F8000000
F8000000
F8000000
7C000000
7C000000
7C000000
3E000000
3F000000
1F800030
0FC00078
07F001FC
03FC1FFC
01FFFFF0
00FFFFE0
003FFF00
0007F800
ENDCHAR
STARTCHAR Ygrave
ENCODING 7922
SWIDTH 671 0
DWIDTH 43 0
BBX 40 59 1 -1
BITMAP
0001C00000
0007C00000
0003E00000
0001F00000
0000F80000
00007C0000
00003E0000
00001F0000
00000F0000
0000000000
0000000000
0000000000
0000000000
FE0000003F
7E0000003F
3F0000007E
3F8000007E
1F800000FC
0FC00001F8
0FC00001F8
07E00003F0
03F00007E0
03F00007E0
01F8000FC0
00FC001F80
00FC001F80
007E003F00
003F007E00
003F007E00
001F80FC00
000F80F800
000FC1F800
0007E3F000
0007E3F000
0003F7E000
0001FFC000
0001FFC000
0000FF8000
00007F0000
00007F0000
00003E0000
00003E0000
00003E0000
00003E0000
00003E0000
00003E0000
00003E0000
00003E0000
00003E0000
00003E0000
00003E0000
00003E0000
00003E0000
00003E0000
00003E0000
00003E0000
00003E0000
00003E0000
00003E0000
ENDCHAR
STARTCHAR ygrave
ENCODING 7923
SWIDTH 593 0
DWIDTH 38 0
BBX 33 58 2 -11
BITMAP
001C000000
007E000000
003F000000
001F000000
000F800000
0007C00000
0003E00000
0000F00000
0000780000
0000000000
0000000000
0000000000
0000000000
F800000F80
7C00001F00
7C00001F00
7E00003F00
3E00003E00
3F00003E00
1F00007C00
1F00007C00
0F8000FC00
0F8000F800
0FC000F800
07C001F000
07C001F000
03E003F000
03E003E000
03F003E000
01F007C000
01F007C000
00F8078000
00F80F8000
007C0F8000
007C1F0000
007E1F0000
003E1E0000
003E3E0000
001F3E0000
001F7C0000
000FFC0000
000FF80000
000FF80000
0007F80000
0007F00000
0003F00000
0003E00000
0003E00000
0003E00000
0007C00000
0007C00000
000F800000
001F800000
083F000000
1FFF000000
1FFE000000
1FFC000000
1FF0000000
ENDCHAR
STARTCHAR endash
ENCODING 8211
SWIDTH 577 0
DWIDTH 37 0
BBX 29 5 4 15
BITMAP
FFFFFFF8
FFFFFFF8
FFFFFFF8
FFFFFFF8
FFFFFFF8
ENDCHAR
STARTCHAR emdash
ENCODING 8212
SWIDTH 882 0
DWIDTH 56 0
BBX 49 5 4 15
BITMAP
FFFFFFFFFFFF80
FFFFFFFFFFFF80
FFFFFFFFFFFF80
FFFFFFFFFFFF80
FFFFFFFFFFFF80
ENDCHAR
STARTCHAR quoteleft
ENCODING 8216
SWIDTH 264 0
DWIDTH 17 0
BBX 7 15 5 28
BITMAP
08
1C
1C
3C
78
70
F0
F0
F8
FC
FE
FE
FE
7C
38
ENDCHAR
STARTCHAR quoteright
ENCODING 8217
SWIDTH 264 0
DWIDTH 17 0
BBX 7 15 5 28
BITMAP
38
FC
FE
FE
FE
7E
3E
1E
1E
3C
38
78
F0
60
20
ENDCHAR
STARTCHAR quotedblleft
ENCODING 8220
SWIDTH 464 0
DWIDTH 30 0
BBX 20 15 5 28
BITMAP
080040
1C00E0
1C01E0
3C01C0
7803C0
700380
F00780
F00700
F80FC0
FC0FE0
FE0FF0
FE0FF0
FE07F0
7C07E0
3803C0
ENDCHAR
STARTCHAR quotedblright
ENCODING 8221
SWIDTH 464 0
DWIDTH 30 0
BBX 20 15 5 28
BITMAP
3803C0
FC07E0
FE07F0
FE07F0
FE07F0
7E07F0
3E01F0
1E00F0
1E00E0
3C01E0
3801C0
7803C0
F00780
600300
200000
ENDCHAR
STARTCHAR ellipsis
ENCODING 8230
SWIDTH 654 0
DWIDTH 42 0
BBX 32 7 5 -1
BITMAP
7803C01C
FC07E03E
FC07E07F
FE0FE07F
FC07E07F
FC07E03F
7803C01E
ENDCHAR
STARTCHAR perthousand
ENCODING 8240
SWIDTH 1169 0
DWIDTH 75 0
BBX 69 46 3 -1
BITMAP
01F800001E00000000
07FE00003E00000000
0FFF80003C00000000
1FFFC0007800000000
3E07C0007800000000
7C03E000F000000000
7801F001E000000000
F800F001E000000000
F000F003C000000000
F000F0078000000000
F000F0078000000000
F000F00F0000000000
F000F01F0000000000
F000F01E0000000000
F800F03C0000000000
7801F07C0000000000
7C01E0780000000000
3C07E0F00000000000
3F1FC1F00000000000
1FFF81E00000000000
0FFF03C00000000000
03FE07C00000000000
000007800000000000
00000F000000000000
00001F03FE0003FE00
00001E07FF8007FF80
00003C0FFFC01FFFC0
00007C1F07E01F07C0
0000783E03E03E03E0
0000F03C01F07C01F0
0001F07800F07800F0
0001E07800F07800F0
0003C0780078F800F8
0003C0F80078F00078
000780F00078F00078
000F00F00078F00078
000F00780078F00078
001E007800F87800F0
003E007800F07800F0
003C007C00F07800F0
0078003C01F03C01E0
00F8003E03E03E03E0
00F0001FDFC01FDFC0
01E0000FFF800FFF80
03E00007FF0007FF00
03C00001FC0001FC00
ENDCHAR
STARTCHAR Euro
ENCODING 8364
SWIDTH 680 0
DWIDTH 44 0
BBX 43 46 -2 -1
BITMAP
000001FF0000
00000FFFF000
00003FFFFC00
0000FFFFFF00
0001FFFFFF80
0007FE007FC0
000FF0001FE0
001FE00007E0
003F800003C0
003F00000080
007E00000000
00FC00000000
00FC00000000
01F800000000
01F000000000
FFFFFFFF0000
FFFFFFFF0000
FFFFFFFF0000
FFFFFFFF0000
03E000000000
07E000000000
07C000000000
07C000000000
07C000000000
07C000000000
07E000000000
FFFFFFFF0000
FFFFFFFF0000
FFFFFFFF0000
FFFFFFFF0000
01F000000000
01F000000000
01F800000000
00FC00000000
00FC00000000
007E00000000
003F00000180
001F800003C0
001FE00007E0
000FF0001FE0
0007FC007FC0
0001FFFFFF80
0000FFFFFF00
00003FFFFC00
00000FFFF000
000001FF8000
ENDCHAR
STARTCHAR minus
ENCODING 8722
SWIDTH 593 0
DWIDTH 38 0
BBX 30 5 4 19
BITMAP
FFFFFFFC
FFFFFFFC
FFFFFFFC
FFFFFFFC
FFFFFFFC
ENDCHAR
STARTCHAR .notdef
ENCODING -1
SWIDTH 500 0
DWIDTH 32 0
BBX 20 66 6 -14
BITMAP
FFFFF0
FFFFF0
FFFFF0
FFFFF0
F801F0
F801F0
F801F0
FF9FF0
FF9FF0
F801F0
F801F0
FFFFF0
FFFFF0
F81FF0
F81FF0
F81FF0
F99FF0
F99FF0
F801F0
F801F0
FFFFF0
FFFFF0
F801F0
F801F0
FF9FF0
FF9FF0
F819F0
F819F0
F819F0
FFF9F0
F801F0
F801F0
F801F0
FFFFF0
F981F0
F981F0
F999F0
F9F9F0
F9F9F0
F801F0
F801F0
FFFFF0
FFFFF0
FFFFF0
FFFFF0
F801F0
F801F0
F9F9F0
F9F9F0
F9F9F0
F801F0
F801F0
F801F0
FFFFF0
F801F0
F801F0
FF0FF0
FE1FF0
F83FF0
F841F0
F801F0
F801F0
FFFFF0
FFFFF0
FFFFF0
FFFFF0
ENDCHAR
STARTCHAR a.alt
ENCODING -1
SWIDTH 638 0
DWIDTH 41 0
BBX 33 35 3 -1
BITMAP
000FE00F80
007FFC0F80
01FFFF0F80
03FFFF8F80
07FE3FCF80
0FF003EF80
0FC001FF80
1F8000FF80
3F00007F80
3F00003F80
3E00003F80
7E00001F80
7C00001F80
7C00001F80
7C00001F80
7C00000F80
FC00000F80
FC00000F80
FC00000F80
7C00000F80
7C00001F80
7C00001F80
7C00001F80
7E00001F80
3E00003F80
3F00003F80
3F00007F80
1F8000FF80
0FC001EF80
0FF007EF80
07FC1FCF80
03FFFF8F80
00FFFF0F80
007FFC0F80
000FF00F80
ENDCHAR
STARTCHAR aacute.alt
ENCODING -1
SWIDTH 638 0
DWIDTH 41 0
BBX 33 47 3 -1
BITMAP
00000F0000
00001F8000
00003F0000
00007E0000
0000F80000
0000F00000
0001E00000
0003C00000
0007800000
0000000000
0000000000
0000000000
000FE00F80
007FFC0F80
01FFFF0F80
03FFFF8F80
07FE3FCF80
0FF003EF80
0FC001FF80
1F8000FF80
3F00007F80
3F00003F80
3E00003F80
7E00001F80
7C00001F80
7C00001F80
7C00001F80
7C00000F80
FC00000F80
FC00000F80
FC00000F80
7C00000F80
7C00001F80
7C00001F80
7C00001F80
7E00001F80
3E00003F80
3F00003F80
3F00007F80
1F8000FF80
0FC001EF80
0FF007EF80
07FC1FCF80
03FFFF8F80
00FFFF0F80
007FFC0F80
000FF00F80
ENDCHAR
STARTCHAR abreve.alt
ENCODING -1
SWIDTH 638 0
DWIDTH 41 0
BBX 33 46 3 -1
BITMAP
0010008000
003803C000
007E0FE000
007FFFE000
003FFFC000
000FFF0000
0003FC0000
0000000000
0000000000
0000000000
0000000000
000FE00F80
007FFC0F80
01FFFF0F80
03FFFF8F80
07FE3FCF80
0FF003EF80
0FC001FF80
1F8000FF80
3F00007F80
3F00003F80
3E00003F80
7E00001F80
7C00001F80
7C00001F80
7C00001F80
7C00000F80
FC00000F80
FC00000F80
FC00000F80
7C00000F80
7C00001F80
7C00001F80
7C00001F80
7E00001F80
3E00003F80
3F00003F80
3F00007F80
1F8000FF80
0FC001EF80
0FF007EF80
07FC1FCF80
03FFFF8F80
00FFFF0F80
007FFC0F80
000FF00F80
ENDCHAR
STARTCHAR acircumflex.alt
ENCODING -1
SWIDTH 638 0
DWIDTH 41 0
BBX 33 47 3 -1
BITMAP
0001F00000
0001F80000
0003FC0000
0007FC0000
000F9E0000
000F0F0000
001E078000
003C078000
003803C000
0000000000
0000000000
0000000000
000FE00F80
007FFC0F80
01FFFF0F80
03FFFF8F80
07FE3FCF80
0FF003EF80
0FC001FF80
1F8000FF80
3F00007F80
3F00003F80
3E00003F80
7E00001F80
7C00001F80
7C00001F80
7C00001F80
7C00000F80
FC00000F80
FC00000F80
FC00000F80
7C00000F80
7C00001F80
7C00001F80
7C00001F80
7E00001F80
3E00003F80
3F00003F80
3F00007F80
1F8000FF80
0FC001EF80
0FF007EF80
07FC1FCF80
03FFFF8F80
00FFFF0F80
007FFC0F80
000FF00F80
ENDCHAR
STARTCHAR adieresis.alt
ENCODING -1
SWIDTH 638 0
DWIDTH 41 0
BBX 33 46 3 -1
BITMAP
003803C000
007C07C000
007E07E000
007E07E000
007C07C000
0038038000
0000000000
0000000000
0000000000
0000000000
0000000000
000FE00F80
007FFC0F80
01FFFF0F80
03FFFF8F80
07FE3FCF80
0FF003EF80
0FC001FF80
1F8000FF80
3F00007F80
3F00003F80
3E00003F80
7E00001F80
7C00001F80
7C00001F80
7C00001F80
7C00000F80
FC00000F80
FC00000F80
FC00000F80
7C00000F80
7C00001F80
7C00001F80
7C00001F80
7E00001F80
3E00003F80
3F00003F80
3F00007F80
1F8000FF80
0FC001EF80
0FF007EF80
07FC1FCF80
03FFFF8F80
00FFFF0F80
007FFC0F80
000FF00F80
ENDCHAR
STARTCHAR agrave.alt
ENCODING -1
SWIDTH 638 0
DWIDTH 41 0
BBX 33 47 3 -1
BITMAP
001E000000
003F000000
001F800000
000FC00000
0007E00000
0001E00000
0000F00000
0000780000
00003C0000
0000000000
0000000000
0000000000
000FE00F80
007FFC0F80
01FFFF0F80
03FFFF8F80
07FE3FCF80
0FF003EF80
0FC001FF80
1F8000FF80
3F00007F80
3F00003F80
3E00003F80
7E00001F80
7C00001F80
7C00001F80
7C00001F80
7C00000F80
FC00000F80
FC00000F80
FC00000F80
7C00000F80
7C00001F80
7C00001F80
7C00001F80
7E00001F80
3E00003F80
3F00003F80
3F00007F80
1F8000FF80
0FC001EF80
0FF007EF80
07FC1FCF80
03FFFF8F80
00FFFF0F80
007FFC0F80
000FF00F80
ENDCHAR
STARTCHAR amacron.alt
ENCODING -1
SWIDTH 638 0
DWIDTH 41 0
BBX 33 43 3 -1
BITMAP
00FFFFF000
00FFFFF000
00FFFFF000
00FFFFF000
0000000000
0000000000
0000000000
0000000000
000FE00F80
007FFC0F80
01FFFF0F80
03FFFF8F80
07FE3FCF80
0FF003EF80
0FC001FF80
1F8000FF80
3F00007F80
3F00003F80
3E00003F80
7E00001F80
7C00001F80
7C00001F80
7C00001F80
7C00000F80
FC00000F80
FC00000F80
FC00000F80
7C00000F80
7C00001F80
7C00001F80
7C00001F80
7E00001F80
3E00003F80
3F00003F80
3F00007F80
1F8000FF80
0FC001EF80
0FF007EF80
07FC1FCF80
03FFFF8F80
00FFFF0F80
007FFC0F80
000FF00F80
ENDCHAR
STARTCHAR aogonek.alt
ENCODING -1
SWIDTH 638 0
DWIDTH 41 0
BBX 37 45 3 -11
BITMAP
000FE00F80
007FFC0F80
01FFFF0F80
03FFFF8F80
07FE3FCF80
0FF003EF80
0FC001FF80
1F8000FF80
3F00007F80
3F00003F80
3E00003F80
7E00001F80
7C00001F80
7C00001F80
7C00001F80
7C00000F80
FC00000F80
FC00000F80
FC00000F80
7C00000F80
7C00001F80
7C00001F80
7C00001F80
7E00001F80
3E00003F80
3F00003F80
3F00007F80
1F8000FF80
0FC001EF80
0FF007EF80
07FC1FCF80
03FFFF8F80
00FFFF0F80
007FFC0F80
000FF01F80
0000003C00
0000007800
0000007800
0000007800
0000007800
0000003C10
0000003FF0
0000003FF8
0000000FF8
00000007E0
ENDCHAR
STARTCHAR aring.alt
ENCODING -1
SWIDTH 638 0
DWIDTH 41 0
BBX 33 53 3 -1
BITMAP
0001F00000
0003FC0000
0007FE0000
000F0F0000
000E070000
001C070000
001C030000
001C070000
001C070000
000E070000
000F0E0000
0007FE0000
0003FC0000
0000F00000
0000000000
0000000000
0000000000
0000000000
000FE00F80
007FFC0F80
01FFFF0F80
03FFFF8F80
07FE3FCF80
0FF003EF80
0FC001FF80
1F8000FF80
3F00007F80
3F00003F80
3E00003F80
7E00001F80
7C00001F80
7C00001F80
7C00001F80
7C00000F80
FC00000F80
FC00000F80
FC00000F80
7C00000F80
7C00001F80
7C00001F80
7C00001F80
7E00001F80
3E00003F80
3F00003F80
3F00007F80
1F8000FF80
0FC001EF80
0FF007EF80
07FC1FCF80
03FFFF8F80
00FFFF0F80
007FFC0F80
000FF00F80
ENDCHAR
STARTCHAR atilde.alt
ENCODING -1
SWIDTH 638 0
DWIDTH 41 0
BBX 33 46 3 -1
BITMAP
001F007000
003FC07000
007FE0F000
007FF0E000
00F0FFE000
00E07FC000
00E03FC000
01E00F0000
0000000000
0000000000
0000000000
000FE00F80
007FFC0F80
01FFFF0F80
03FFFF8F80
07FE3FCF80
0FF003EF80
0FC001FF80
1F8000FF80
3F00007F80
3F00003F80
3E00003F80
7E00001F80
7C00001F80
7C00001F80
7C00001F80
7C00000F80
FC00000F80
FC00000F80
FC00000F80
7C00000F80
7C00001F80
7C00001F80
7C00001F80
7E00001F80
3E00003F80
3F00003F80
3F00007F80
1F8000FF80
0FC001EF80
0FF007EF80
07FC1FCF80
03FFFF8F80
00FFFF0F80
007FFC0F80
000FF00F80
ENDCHAR
STARTCHAR ascender
ENCODING -1
SWIDTH 638 0
DWIDTH 41 0
BBX 5 46 5 -1
BITMAP
F8
F8
F8
F8
F8
F8
F8
F8
F8
F8
F8
F8
F8
F8
F8
F8
F8
F8
F8
F8
F8
F8
F8
F8
F8
F8
F8
F8
F8
F8
F8
F8
F8
F8
F8
F8
F8
F8
F8
F8
F8
F8
F8
F8
F8
F8
ENDCHAR
STARTCHAR descender
ENCODING -1
SWIDTH 638 0
DWIDTH 41 0
BBX 5 44 5 -10
BITMAP
F8
F8
F8
F8
F8
F8
F8
F8
F8
F8
F8
F8
F8
F8
F8
F8
F8
F8
F8
F8
F8
F8
F8
F8
F8
F8
F8
F8
F8
F8
F8
F8
F8
F8
F8
F8
F8
F8
F8
F8
F8
F8
F8
F8
ENDCHAR
ENDFONT
